{
.appVersion = "1158";
copyright = "Copyright 2018 Google Inc. All Rights Reserved.";
customParameters = (
{
name = glyphOrder;
value = (
.notdef,
NULL,
CR,
space,
uni00A0,
uni200C,
uni200D,
uni25CC,
uniA830,
uniA831,
uniA832,
uniA833,
uniA834,
uniA835,
uniA836,
uniA837,
uniA838,
uniA839,
A_iv,
AA_iv,
I_iv,
II_iv,
U_iv,
UU_iv,
VocR_iv,
VocRR_iv,
VocL_iv,
VocLL_iv,
E_iv,
AI_iv,
O_iv,
AU_iv,
Ka,
Kha,
Ga,
Gha,
Nga,
Ca,
Cha,
Ja,
Jha,
Nya,
Tta,
Ttha,
Dda,
Ddha,
Nna,
Ta,
Tha,
Da,
Dha,
Na,
Pa,
Pha,
Ba,
Bha,
Ma,
Ya,
Ra,
La,
Va,
Sha,
Ssa,
Sa,
Ha,
Lla,
A_dv,
AA_dv,
I_dv,
II_dv,
U_dv,
UU_dv,
VocR_dv,
VocRR_dv,
VocL_dv,
VocLL_dv,
E_dv,
AI_dv,
O_dv,
AU_dv,
Anusvara,
Visarga,
Virama,
Ardhacandra,
Danda,
DblDanda,
Abbreviation,
Huva,
u11650,
u11651,
u11652,
u11653,
u11654,
u11655,
u11656,
u11657,
u11658,
u11659,
Tha.alt,
Da.alt,
Dha.alt,
Pa.alt,
Ma.alt,
Ya.alt,
Ra.alt,
Dha.alt2,
Kaa,
Ku,
Khaa,
Kha.alt,
U.alt3,
UU.alt1,
Ca.alt,
Guu,
Jaa,
Ju,
Jhaa,
Jha.alt,
Nyaa,
Nya.alt,
Ttaa,
Tthaa,
Dda.alt,
Ta.alt,
AA_dv.alt,
U.alt4,
UU.alt3,
Da.alt2,
Naa,
Nu,
Phaa,
Phu,
Baa,
Ba.alt,
Bhaa,
Maa,
Muu,
Yaa,
Ru,
Laa,
Li,
La.alt,
Vaa,
Va.alt,
Saa,
Sa.alt,
Haa,
Ha.alt,
TRa,
Repha,
EyelashRa,
Rakar,
Vattu,
KaRa,
KaaRa,
Ra.alt2,
Ra.alt3,
Ra.alt4,
Ra.alt5,
Ra.alt6,
URa,
Ta.half,
Ma.half,
Sa.half,
KSsa,
KSsaa,
KSsa.half,
KSsYa,
DNya,
DNyaa,
DNyu,
I.med,
I.lg,
II.med,
II.lg,
Ka.half,
Kha.half,
Ga.half,
Gha.half,
Nga.half,
Cha.half,
Ja.half,
Tta.half,
Ttha.half,
Dda.half,
Ddha.half,
Nna.half,
Na.half,
Pa.half,
Pha.half,
Bha.half,
Ya.half,
Sha.half,
Ssa.half,
Ha.half,
Lla.half,
Ca.half,
Ba.half,
La.half,
Va.half,
Jha.half,
Nya.half,
Tha.half,
Da.half,
Dha.half,
RKa,
KSha,
TYa,
STha,
DYa,
SsDdha,
Rakar.alt
);
},
{
name = description;
value = "Designed by Monotype design team.";
},
{
name = license;

glyphs = (
{
glyphname = .notdef;
lastChange = "2018-08-06 13:06:16 +0000";
layers = (
{
background = {
paths = (
{
closed = 1;
nodes = (
"506 0 LINE",
"506 714 LINE",
"95 714 LINE",
"95 0 LINE"
);
},
{
closed = 1;
nodes = (
"146 663 LINE",
"455 663 LINE",
"455 51 LINE",
"146 51 LINE"
);
}
);
};
layerId = UUID0;
paths = (
{
closed = 1;
nodes = (
"506 0 LINE",
"506 714 LINE",
"95 714 LINE",
"95 0 LINE"
);
},
{
closed = 1;
nodes = (
"146 663 LINE",
"455 663 LINE",
"455 51 LINE",
"146 51 LINE"
);
}
);
width = 600;
}
);
},
{
glyphname = uni25CC;
lastChange = "2018-08-06 13:07:07 +0000";
layers = (
{
background = {
paths = (
{
closed = 1;
nodes = (
"469 423 OFFCURVE",
"481 435 OFFCURVE",
"481 449 CURVE SMOOTH",
"481 463 OFFCURVE",
"469 475 OFFCURVE",
"455 475 CURVE SMOOTH",
"441 475 OFFCURVE",
"429 463 OFFCURVE",
"429 449 CURVE SMOOTH",
"429 435 OFFCURVE",
"441 423 OFFCURVE",
"455 423 CURVE SMOOTH"
);
},
{
closed = 1;
nodes = (
"153 107 OFFCURVE",
"165 119 OFFCURVE",
"165 133 CURVE SMOOTH",
"165 147 OFFCURVE",
"153 159 OFFCURVE",
"139 159 CURVE SMOOTH",
"125 159 OFFCURVE",
"113 147 OFFCURVE",
"113 133 CURVE SMOOTH",
"113 119 OFFCURVE",
"125 107 OFFCURVE",
"139 107 CURVE SMOOTH"
);
},
{
closed = 1;
nodes = (
"227 60 OFFCURVE",
"239 72 OFFCURVE",
"239 86 CURVE SMOOTH",
"239 100 OFFCURVE",
"227 112 OFFCURVE",
"213 112 CURVE SMOOTH",
"199 112 OFFCURVE",
"187 100 OFFCURVE",
"187 86 CURVE SMOOTH",
"187 72 OFFCURVE",
"199 60 OFFCURVE",
"213 60 CURVE SMOOTH"
);
},
{
closed = 1;
nodes = (
"106 181 OFFCURVE",
"118 193 OFFCURVE",
"118 207 CURVE SMOOTH",
"118 221 OFFCURVE",
"106 233 OFFCURVE",
"92 233 CURVE SMOOTH",
"78 233 OFFCURVE",
"66 221 OFFCURVE",
"66 207 CURVE SMOOTH",
"66 193 OFFCURVE",
"78 181 OFFCURVE",
"92 181 CURVE SMOOTH"
);
},
{
closed = 1;
nodes = (
"311 42 OFFCURVE",
"323 54 OFFCURVE",
"323 68 CURVE SMOOTH",
"323 82 OFFCURVE",
"311 94 OFFCURVE",
"297 94 CURVE SMOOTH",
"283 94 OFFCURVE",
"271 82 OFFCURVE",
"271 68 CURVE SMOOTH",
"271 54 OFFCURVE",
"283 42 OFFCURVE",
"297 42 CURVE SMOOTH"
);
},
{
closed = 1;
nodes = (
"88 265 OFFCURVE",
"100 277 OFFCURVE",
"100 291 CURVE SMOOTH",
"100 305 OFFCURVE",
"88 317 OFFCURVE",
"74 317 CURVE SMOOTH",
"60 317 OFFCURVE",
"48 305 OFFCURVE",
"48 291 CURVE SMOOTH",
"48 277 OFFCURVE",
"60 265 OFFCURVE",
"74 265 CURVE SMOOTH"
);
},
{
closed = 1;
nodes = (
"395 60 OFFCURVE",
"407 72 OFFCURVE",
"407 86 CURVE SMOOTH",
"407 100 OFFCURVE",
"395 112 OFFCURVE",
"381 112 CURVE SMOOTH",
"367 112 OFFCURVE",
"355 100 OFFCURVE",
"355 86 CURVE SMOOTH",
"355 72 OFFCURVE",
"367 60 OFFCURVE",
"381 60 CURVE SMOOTH"
);
},
{
closed = 1;
nodes = (
"106 349 OFFCURVE",
"118 361 OFFCURVE",
"118 375 CURVE SMOOTH",
"118 389 OFFCURVE",
"106 401 OFFCURVE",
"92 401 CURVE SMOOTH",
"78 401 OFFCURVE",
"66 389 OFFCURVE",
"66 375 CURVE SMOOTH",
"66 361 OFFCURVE",
"78 349 OFFCURVE",
"92 349 CURVE SMOOTH"
);
},
{
closed = 1;
nodes = (
"153 423 OFFCURVE",
"165 435 OFFCURVE",
"165 449 CURVE SMOOTH",
"165 463 OFFCURVE",
"153 475 OFFCURVE",
"139 475 CURVE SMOOTH",
"125 475 OFFCURVE",
"113 463 OFFCURVE",
"113 449 CURVE SMOOTH",
"113 435 OFFCURVE",
"125 423 OFFCURVE",
"139 423 CURVE SMOOTH"
);
},
{
closed = 1;
nodes = (
"469 107 OFFCURVE",
"481 119 OFFCURVE",
"481 133 CURVE SMOOTH",
"481 147 OFFCURVE",
"469 159 OFFCURVE",
"455 159 CURVE SMOOTH",
"441 159 OFFCURVE",
"429 147 OFFCURVE",
"429 133 CURVE SMOOTH",
"429 119 OFFCURVE",
"441 107 OFFCURVE",
"455 107 CURVE SMOOTH"
);
},
{
closed = 1;
nodes = (
"227 470 OFFCURVE",
"239 482 OFFCURVE",
"239 496 CURVE SMOOTH",
"239 510 OFFCURVE",
"227 522 OFFCURVE",
"213 522 CURVE SMOOTH",
"199 522 OFFCURVE",
"187 510 OFFCURVE",
"187 496 CURVE SMOOTH",
"187 482 OFFCURVE",
"199 470 OFFCURVE",
"213 470 CURVE SMOOTH"
);
},
{
closed = 1;
nodes = (
"516 181 OFFCURVE",
"528 193 OFFCURVE",
"528 207 CURVE SMOOTH",
"528 221 OFFCURVE",
"516 233 OFFCURVE",
"502 233 CURVE SMOOTH",
"488 233 OFFCURVE",
"476 221 OFFCURVE",
"476 207 CURVE SMOOTH",
"476 193 OFFCURVE",
"488 181 OFFCURVE",
"502 181 CURVE SMOOTH"
);
},
{
closed = 1;
nodes = (
"311 488 OFFCURVE",
"323 500 OFFCURVE",
"323 514 CURVE SMOOTH",
"323 528 OFFCURVE",
"311 540 OFFCURVE",
"297 540 CURVE SMOOTH",
"283 540 OFFCURVE",
"271 528 OFFCURVE",
"271 514 CURVE SMOOTH",
"271 500 OFFCURVE",
"283 488 OFFCURVE",
"297 488 CURVE SMOOTH"
);
},
{
closed = 1;
nodes = (
"534 265 OFFCURVE",
"546 277 OFFCURVE",
"546 291 CURVE SMOOTH",
"546 305 OFFCURVE",
"534 317 OFFCURVE",
"520 317 CURVE SMOOTH",
"506 317 OFFCURVE",
"494 305 OFFCURVE",
"494 291 CURVE SMOOTH",
"494 277 OFFCURVE",
"506 265 OFFCURVE",
"520 265 CURVE SMOOTH"
);
},
{
closed = 1;
nodes = (
"395 470 OFFCURVE",
"407 482 OFFCURVE",
"407 496 CURVE SMOOTH",
"407 510 OFFCURVE",
"395 522 OFFCURVE",
"381 522 CURVE SMOOTH",
"367 522 OFFCURVE",
"355 510 OFFCURVE",
"355 496 CURVE SMOOTH",
"355 482 OFFCURVE",
"367 470 OFFCURVE",
"381 470 CURVE SMOOTH"
);
},
{
closed = 1;
nodes = (
"516 349 OFFCURVE",
"528 361 OFFCURVE",
"528 375 CURVE SMOOTH",
"528 389 OFFCURVE",
"516 401 OFFCURVE",
"502 401 CURVE SMOOTH",
"488 401 OFFCURVE",
"476 389 OFFCURVE",
"476 375 CURVE SMOOTH",
"476 361 OFFCURVE",
"488 349 OFFCURVE",
"502 349 CURVE SMOOTH"
);
}
);
};
layerId = UUID0;
paths = (
{
closed = 1;
nodes = (
"469 423 OFFCURVE",
"481 435 OFFCURVE",
"481 449 CURVE SMOOTH",
"481 463 OFFCURVE",
"469 475 OFFCURVE",
"455 475 CURVE SMOOTH",
"441 475 OFFCURVE",
"429 463 OFFCURVE",
"429 449 CURVE SMOOTH",
"429 435 OFFCURVE",
"441 423 OFFCURVE",
"455 423 CURVE SMOOTH"
);
},
{
closed = 1;
nodes = (
"153 107 OFFCURVE",
"165 119 OFFCURVE",
"165 133 CURVE SMOOTH",
"165 147 OFFCURVE",
"153 159 OFFCURVE",
"139 159 CURVE SMOOTH",
"125 159 OFFCURVE",
"113 147 OFFCURVE",
"113 133 CURVE SMOOTH",
"113 119 OFFCURVE",
"125 107 OFFCURVE",
"139 107 CURVE SMOOTH"
);
},
{
closed = 1;
nodes = (
"227 60 OFFCURVE",
"239 72 OFFCURVE",
"239 86 CURVE SMOOTH",
"239 100 OFFCURVE",
"227 112 OFFCURVE",
"213 112 CURVE SMOOTH",
"199 112 OFFCURVE",
"187 100 OFFCURVE",
"187 86 CURVE SMOOTH",
"187 72 OFFCURVE",
"199 60 OFFCURVE",
"213 60 CURVE SMOOTH"
);
},
{
closed = 1;
nodes = (
"106 181 OFFCURVE",
"118 193 OFFCURVE",
"118 207 CURVE SMOOTH",
"118 221 OFFCURVE",
"106 233 OFFCURVE",
"92 233 CURVE SMOOTH",
"78 233 OFFCURVE",
"66 221 OFFCURVE",
"66 207 CURVE SMOOTH",
"66 193 OFFCURVE",
"78 181 OFFCURVE",
"92 181 CURVE SMOOTH"
);
},
{
closed = 1;
nodes = (
"311 42 OFFCURVE",
"323 54 OFFCURVE",
"323 68 CURVE SMOOTH",
"323 82 OFFCURVE",
"311 94 OFFCURVE",
"297 94 CURVE SMOOTH",
"283 94 OFFCURVE",
"271 82 OFFCURVE",
"271 68 CURVE SMOOTH",
"271 54 OFFCURVE",
"283 42 OFFCURVE",
"297 42 CURVE SMOOTH"
);
},
{
closed = 1;
nodes = (
"88 265 OFFCURVE",
"100 277 OFFCURVE",
"100 291 CURVE SMOOTH",
"100 305 OFFCURVE",
"88 317 OFFCURVE",
"74 317 CURVE SMOOTH",
"60 317 OFFCURVE",
"48 305 OFFCURVE",
"48 291 CURVE SMOOTH",
"48 277 OFFCURVE",
"60 265 OFFCURVE",
"74 265 CURVE SMOOTH"
);
},
{
closed = 1;
nodes = (
"395 60 OFFCURVE",
"407 72 OFFCURVE",
"407 86 CURVE SMOOTH",
"407 100 OFFCURVE",
"395 112 OFFCURVE",
"381 112 CURVE SMOOTH",
"367 112 OFFCURVE",
"355 100 OFFCURVE",
"355 86 CURVE SMOOTH",
"355 72 OFFCURVE",
"367 60 OFFCURVE",
"381 60 CURVE SMOOTH"
);
},
{
closed = 1;
nodes = (
"106 349 OFFCURVE",
"118 361 OFFCURVE",
"118 375 CURVE SMOOTH",
"118 389 OFFCURVE",
"106 401 OFFCURVE",
"92 401 CURVE SMOOTH",
"78 401 OFFCURVE",
"66 389 OFFCURVE",
"66 375 CURVE SMOOTH",
"66 361 OFFCURVE",
"78 349 OFFCURVE",
"92 349 CURVE SMOOTH"
);
},
{
closed = 1;
nodes = (
"153 423 OFFCURVE",
"165 435 OFFCURVE",
"165 449 CURVE SMOOTH",
"165 463 OFFCURVE",
"153 475 OFFCURVE",
"139 475 CURVE SMOOTH",
"125 475 OFFCURVE",
"113 463 OFFCURVE",
"113 449 CURVE SMOOTH",
"113 435 OFFCURVE",
"125 423 OFFCURVE",
"139 423 CURVE SMOOTH"
);
},
{
closed = 1;
nodes = (
"469 107 OFFCURVE",
"481 119 OFFCURVE",
"481 133 CURVE SMOOTH",
"481 147 OFFCURVE",
"469 159 OFFCURVE",
"455 159 CURVE SMOOTH",
"441 159 OFFCURVE",
"429 147 OFFCURVE",
"429 133 CURVE SMOOTH",
"429 119 OFFCURVE",
"441 107 OFFCURVE",
"455 107 CURVE SMOOTH"
);
},
{
closed = 1;
nodes = (
"227 470 OFFCURVE",
"239 482 OFFCURVE",
"239 496 CURVE SMOOTH",
"239 510 OFFCURVE",
"227 522 OFFCURVE",
"213 522 CURVE SMOOTH",
"199 522 OFFCURVE",
"187 510 OFFCURVE",
"187 496 CURVE SMOOTH",
"187 482 OFFCURVE",
"199 470 OFFCURVE",
"213 470 CURVE SMOOTH"
);
},
{
closed = 1;
nodes = (
"516 181 OFFCURVE",
"528 193 OFFCURVE",
"528 207 CURVE SMOOTH",
"528 221 OFFCURVE",
"516 233 OFFCURVE",
"502 233 CURVE SMOOTH",
"488 233 OFFCURVE",
"476 221 OFFCURVE",
"476 207 CURVE SMOOTH",
"476 193 OFFCURVE",
"488 181 OFFCURVE",
"502 181 CURVE SMOOTH"
);
},
{
closed = 1;
nodes = (
"311 488 OFFCURVE",
"323 500 OFFCURVE",
"323 514 CURVE SMOOTH",
"323 528 OFFCURVE",
"311 540 OFFCURVE",
"297 540 CURVE SMOOTH",
"283 540 OFFCURVE",
"271 528 OFFCURVE",
"271 514 CURVE SMOOTH",
"271 500 OFFCURVE",
"283 488 OFFCURVE",
"297 488 CURVE SMOOTH"
);
},
{
closed = 1;
nodes = (
"534 265 OFFCURVE",
"546 277 OFFCURVE",
"546 291 CURVE SMOOTH",
"546 305 OFFCURVE",
"534 317 OFFCURVE",
"520 317 CURVE SMOOTH",
"506 317 OFFCURVE",
"494 305 OFFCURVE",
"494 291 CURVE SMOOTH",
"494 277 OFFCURVE",
"506 265 OFFCURVE",
"520 265 CURVE SMOOTH"
);
},
{
closed = 1;
nodes = (
"395 470 OFFCURVE",
"407 482 OFFCURVE",
"407 496 CURVE SMOOTH",
"407 510 OFFCURVE",
"395 522 OFFCURVE",
"381 522 CURVE SMOOTH",
"367 522 OFFCURVE",
"355 510 OFFCURVE",
"355 496 CURVE SMOOTH",
"355 482 OFFCURVE",
"367 470 OFFCURVE",
"381 470 CURVE SMOOTH"
);
},
{
closed = 1;
nodes = (
"516 349 OFFCURVE",
"528 361 OFFCURVE",
"528 375 CURVE SMOOTH",
"528 389 OFFCURVE",
"516 401 OFFCURVE",
"502 401 CURVE SMOOTH",
"488 401 OFFCURVE",
"476 389 OFFCURVE",
"476 375 CURVE SMOOTH",
"476 361 OFFCURVE",
"488 349 OFFCURVE",
"502 349 CURVE SMOOTH"
);
}
);
width = 594;
}
);
unicode = 25CC;
category = Letter;
},
{
glyphname = uniA830;
lastChange = "2018-08-06 13:06:16 +0000";
layers = (
{
background = {
paths = (
{
closed = 1;
nodes = (
"159 622 LINE",
"78 622 LINE",
"78 0 LINE",
"159 0 LINE"
);
}
);
};
layerId = UUID0;
paths = (
{
closed = 1;
nodes = (
"159 622 LINE",
"78 622 LINE",
"78 0 LINE",
"159 0 LINE"
);
}
);
width = 237;
}
);
unicode = A830;
category = Letter;
},
{
glyphname = uniA831;
lastChange = "2018-08-06 13:06:16 +0000";
layers = (
{
background = {
paths = (
{
closed = 1;
nodes = (
"359 622 LINE",
"278 622 LINE",
"278 0 LINE",
"359 0 LINE"
);
},
{
closed = 1;
nodes = (
"159 622 LINE",
"78 622 LINE",
"78 0 LINE",
"159 0 LINE"
);
}
);
};
layerId = UUID0;
paths = (
{
closed = 1;
nodes = (
"359 622 LINE",
"278 622 LINE",
"278 0 LINE",
"359 0 LINE"
);
},
{
closed = 1;
nodes = (
"159 622 LINE",
"78 622 LINE",
"78 0 LINE",
"159 0 LINE"
);
}
);
width = 437;
}
);
unicode = A831;
category = Letter;
},
{
glyphname = uniA832;
lastChange = "2018-08-06 13:06:16 +0000";
layers = (
{
background = {
paths = (
{
closed = 1;
nodes = (
"359 622 LINE",
"278 622 LINE",
"278 0 LINE",
"359 0 LINE"
);
},
{
closed = 1;
nodes = (
"159 622 LINE",
"78 622 LINE",
"78 0 LINE",
"159 0 LINE"
);
},
{
closed = 1;
nodes = (
"559 622 LINE",
"479 622 LINE",
"479 0 LINE",
"559 0 LINE"
);
}
);
};
layerId = UUID0;
paths = (
{
closed = 1;
nodes = (
"359 622 LINE",
"278 622 LINE",
"278 0 LINE",
"359 0 LINE"
);
},
{
closed = 1;
nodes = (
"159 622 LINE",
"78 622 LINE",
"78 0 LINE",
"159 0 LINE"
);
},
{
closed = 1;
nodes = (
"559 622 LINE",
"479 622 LINE",
"479 0 LINE",
"559 0 LINE"
);
}
);
width = 637;
}
);
unicode = A832;
category = Letter;
},
{
glyphname = uniA833;
lastChange = "2018-08-06 13:06:16 +0000";
layers = (
{
background = {
paths = (
{
closed = 1;
nodes = (
"583 542 LINE",
"563 622 LINE",
"40 491 LINE",
"60 412 LINE"
);
}
);
};
layerId = UUID0;
paths = (
{
closed = 1;
nodes = (
"583 542 LINE",
"563 622 LINE",
"40 491 LINE",
"60 412 LINE"
);
}
);
width = 622;
}
);
unicode = A833;
category = Letter;
},
{
glyphname = uniA834;
lastChange = "2018-08-06 13:06:16 +0000";
layers = (
{
background = {
paths = (
{
closed = 1;
nodes = (
"583 542 LINE",
"563 622 LINE",
"40 491 LINE",
"60 412 LINE"
);
},
{
closed = 1;
nodes = (
"583 345 LINE",
"563 425 LINE",
"40 294 LINE",
"60 215 LINE"
);
}
);
};
layerId = UUID0;
paths = (
{
closed = 1;
nodes = (
"583 542 LINE",
"563 622 LINE",
"40 491 LINE",
"60 412 LINE"
);
},
{
closed = 1;
nodes = (
"583 345 LINE",
"563 425 LINE",
"40 294 LINE",
"60 215 LINE"
);
}
);
width = 622;
}
);
unicode = A834;
category = Letter;
},
{
glyphname = uniA835;
lastChange = "2018-08-06 13:06:16 +0000";
layers = (
{
background = {
paths = (
{
closed = 1;
nodes = (
"583 542 LINE",
"563 622 LINE",
"40 491 LINE",
"60 412 LINE"
);
},
{
closed = 1;
nodes = (
"583 345 LINE",
"563 425 LINE",
"40 294 LINE",
"60 215 LINE"
);
},
{
closed = 1;
nodes = (
"583 148 LINE",
"563 228 LINE",
"40 97 LINE",
"60 18 LINE"
);
}
);
};
layerId = UUID0;
paths = (
{
closed = 1;
nodes = (
"583 542 LINE",
"563 622 LINE",
"40 491 LINE",
"60 412 LINE"
);
},
{
closed = 1;
nodes = (
"583 345 LINE",
"563 425 LINE",
"40 294 LINE",
"60 215 LINE"
);
},
{
closed = 1;
nodes = (
"583 148 LINE",
"563 228 LINE",
"40 97 LINE",
"60 18 LINE"
);
}
);
width = 622;
}
);
unicode = A835;
category = Letter;
},
{
glyphname = uniA836;
lastChange = "2018-08-06 13:06:16 +0000";
layers = (
{
background = {
paths = (
{
closed = 1;
nodes = (
"327 167 OFFCURVE",
"393 232 OFFCURVE",
"393 321 CURVE SMOOTH",
"393 410 OFFCURVE",
"327 473 OFFCURVE",
"230 473 CURVE SMOOTH",
"133 473 OFFCURVE",
"67 408 OFFCURVE",
"67 321 CURVE SMOOTH",
"67 230 OFFCURVE",
"134 167 OFFCURVE",
"230 167 CURVE SMOOTH"
);
},
{
closed = 1;
nodes = (
"282 404 OFFCURVE",
"317 369 OFFCURVE",
"317 321 CURVE SMOOTH",
"317 269 OFFCURVE",
"283 237 OFFCURVE",
"230 237 CURVE SMOOTH",
"177 237 OFFCURVE",
"143 269 OFFCURVE",
"143 321 CURVE SMOOTH",
"143 369 OFFCURVE",
"175 404 OFFCURVE",
"230 404 CURVE SMOOTH"
);
}
);
};
layerId = UUID0;
paths = (
{
closed = 1;
nodes = (
"327 167 OFFCURVE",
"393 232 OFFCURVE",
"393 321 CURVE SMOOTH",
"393 410 OFFCURVE",
"327 473 OFFCURVE",
"230 473 CURVE SMOOTH",
"133 473 OFFCURVE",
"67 408 OFFCURVE",
"67 321 CURVE SMOOTH",
"67 230 OFFCURVE",
"134 167 OFFCURVE",
"230 167 CURVE SMOOTH"
);
},
{
closed = 1;
nodes = (
"282 404 OFFCURVE",
"317 369 OFFCURVE",
"317 321 CURVE SMOOTH",
"317 269 OFFCURVE",
"283 237 OFFCURVE",
"230 237 CURVE SMOOTH",
"177 237 OFFCURVE",
"143 269 OFFCURVE",
"143 321 CURVE SMOOTH",
"143 369 OFFCURVE",
"175 404 OFFCURVE",
"230 404 CURVE SMOOTH"
);
}
);
width = 460;
}
);
unicode = A836;
category = Letter;
},
{
glyphname = uniA837;
lastChange = "2018-08-06 13:06:16 +0000";
layers = (
{
background = {
paths = (
{
closed = 1;
nodes = (
"453 623 LINE",
"158 395 LINE SMOOTH",
"86 340 OFFCURVE",
"57 301 OFFCURVE",
"57 240 CURVE SMOOTH",
"57 151 OFFCURVE",
"124 86 OFFCURVE",
"221 86 CURVE SMOOTH",
"317 86 OFFCURVE",
"383 152 OFFCURVE",
"383 240 CURVE SMOOTH",
"383 315 OFFCURVE",
"338 371 OFFCURVE",
"262 387 CURVE",
"317 424 OFFCURVE",
"365 459 OFFCURVE",
"407 492 CURVE SMOOTH",
"499 565 LINE"
);
},
{
closed = 1;
nodes = (
"272 323 OFFCURVE",
"307 288 OFFCURVE",
"307 240 CURVE SMOOTH",
"307 189 OFFCURVE",
"273 156 OFFCURVE",
"220 156 CURVE SMOOTH",
"167 156 OFFCURVE",
"133 189 OFFCURVE",
"133 240 CURVE SMOOTH",
"133 289 OFFCURVE",
"167 323 OFFCURVE",
"220 323 CURVE SMOOTH"
);
}
);
};
layerId = UUID0;
paths = (
{
closed = 1;
nodes = (
"453 623 LINE",
"158 395 LINE SMOOTH",
"86 340 OFFCURVE",
"57 301 OFFCURVE",
"57 240 CURVE SMOOTH",
"57 151 OFFCURVE",
"124 86 OFFCURVE",
"221 86 CURVE SMOOTH",
"317 86 OFFCURVE",
"383 152 OFFCURVE",
"383 240 CURVE SMOOTH",
"383 315 OFFCURVE",
"338 371 OFFCURVE",
"262 387 CURVE",
"317 424 OFFCURVE",
"365 459 OFFCURVE",
"407 492 CURVE SMOOTH",
"499 565 LINE"
);
},
{
closed = 1;
nodes = (
"272 323 OFFCURVE",
"307 288 OFFCURVE",
"307 240 CURVE SMOOTH",
"307 189 OFFCURVE",
"273 156 OFFCURVE",
"220 156 CURVE SMOOTH",
"167 156 OFFCURVE",
"133 189 OFFCURVE",
"133 240 CURVE SMOOTH",
"133 289 OFFCURVE",
"167 323 OFFCURVE",
"220 323 CURVE SMOOTH"
);
}
);
width = 509;
}
);
unicode = A837;
category = Letter;
},
{
glyphname = uniA838;
lastChange = "2018-08-06 13:06:16 +0000";
layers = (
{
background = {
paths = (
{
closed = 1;
nodes = (
"-122 -184 OFFCURVE",
"-90 -188 OFFCURVE",
"-61 -188 CURVE SMOOTH",
"8 -188 OFFCURVE",
"66 -175 OFFCURVE",
"111 -150 CURVE SMOOTH",
"202 -100 OFFCURVE",
"246 -3 OFFCURVE",
"246 177 CURVE SMOOTH",
"246 308 OFFCURVE",
"222 489 OFFCURVE",
"182 633 CURVE",
"101 615 LINE",
"140 470 OFFCURVE",
"164 308 OFFCURVE",
"164 180 CURVE SMOOTH",
"164 106 OFFCURVE",
"156 48 OFFCURVE",
"140 7 CURVE SMOOTH",
"108 -77 OFFCURVE",
"44 -115 OFFCURVE",
"-63 -115 CURVE SMOOTH",
"-88 -115 OFFCURVE",
"-117 -111 OFFCURVE",
"-151 -104 CURVE",
"-157 -177 LINE"
);
}
);
};
layerId = UUID0;
paths = (
{
closed = 1;
nodes = (
"-122 -184 OFFCURVE",
"-90 -188 OFFCURVE",
"-61 -188 CURVE SMOOTH",
"8 -188 OFFCURVE",
"66 -175 OFFCURVE",
"111 -150 CURVE SMOOTH",
"202 -100 OFFCURVE",
"246 -3 OFFCURVE",
"246 177 CURVE SMOOTH",
"246 308 OFFCURVE",
"222 489 OFFCURVE",
"182 633 CURVE",
"101 615 LINE",
"140 470 OFFCURVE",
"164 308 OFFCURVE",
"164 180 CURVE SMOOTH",
"164 106 OFFCURVE",
"156 48 OFFCURVE",
"140 7 CURVE SMOOTH",
"108 -77 OFFCURVE",
"44 -115 OFFCURVE",
"-63 -115 CURVE SMOOTH",
"-88 -115 OFFCURVE",
"-117 -111 OFFCURVE",
"-151 -104 CURVE",
"-157 -177 LINE"
);
}
);
width = 307;
}
);
unicode = A838;
category = Letter;
},
{
glyphname = uniA839;
lastChange = "2018-08-06 13:06:16 +0000";
layers = (
{
background = {
paths = (
{
closed = 1;
nodes = (
"-138 -239 OFFCURVE",
"-119 -240 OFFCURVE",
"-100 -240 CURVE SMOOTH",
"136 -240 OFFCURVE",
"257 -141 OFFCURVE",
"257 30 CURVE SMOOTH",
"257 102 OFFCURVE",
"235 175 OFFCURVE",
"202 250 CURVE SMOOTH",
"161 343 OFFCURVE",
"146 380 OFFCURVE",
"146 421 CURVE SMOOTH",
"146 490 OFFCURVE",
"204 533 OFFCURVE",
"337 558 CURVE",
"313 633 LINE",
"148 598 OFFCURVE",
"65 528 OFFCURVE",
"65 421 CURVE SMOOTH",
"65 362 OFFCURVE",
"84 309 OFFCURVE",
"121 230 CURVE SMOOTH",
"154 157 OFFCURVE",
"176 93 OFFCURVE",
"176 29 CURVE SMOOTH",
"176 -13 OFFCURVE",
"166 -49 OFFCURVE",
"145 -78 CURVE SMOOTH",
"103 -137 OFFCURVE",
"19 -165 OFFCURVE",
"-104 -165 CURVE SMOOTH",
"-125 -165 OFFCURVE",
"-142 -164 OFFCURVE",
"-155 -162 CURVE",
"-157 -237 LINE"
);
}
);
};
layerId = UUID0;
paths = (
{
closed = 1;
nodes = (
"-138 -239 OFFCURVE",
"-119 -240 OFFCURVE",
"-100 -240 CURVE SMOOTH",
"136 -240 OFFCURVE",
"257 -141 OFFCURVE",
"257 30 CURVE SMOOTH",
"257 102 OFFCURVE",
"235 175 OFFCURVE",
"202 250 CURVE SMOOTH",
"161 343 OFFCURVE",
"146 380 OFFCURVE",
"146 421 CURVE SMOOTH",
"146 490 OFFCURVE",
"204 533 OFFCURVE",
"337 558 CURVE",
"313 633 LINE",
"148 598 OFFCURVE",
"65 528 OFFCURVE",
"65 421 CURVE SMOOTH",
"65 362 OFFCURVE",
"85 309 OFFCURVE",
"121 230 CURVE SMOOTH",
"154 157 OFFCURVE",
"176 93 OFFCURVE",
"176 29 CURVE SMOOTH",
"176 -13 OFFCURVE",
"166 -49 OFFCURVE",
"145 -78 CURVE SMOOTH",
"103 -137 OFFCURVE",
"19 -165 OFFCURVE",
"-104 -165 CURVE SMOOTH",
"-125 -165 OFFCURVE",
"-142 -164 OFFCURVE",
"-155 -162 CURVE",
"-157 -237 LINE"
);
}
);
width = 337;
}
);
unicode = A839;
category = Letter;
},
{
glyphname = A_iv;
lastChange = "2018-08-06 13:06:57 +0000";
layers = (
{
background = {
anchors = (
{
name = Dot;
position = "{636, 718}";
}
);
paths = (
{
closed = 1;
nodes = (
"0 551 LINE",
"132 551 LINE",
"121 543 OFFCURVE",
"111 534 OFFCURVE",
"102 525 CURVE",
"151 468 LINE",
"179 496 OFFCURVE",
"215 530 OFFCURVE",
"270 530 CURVE SMOOTH",
"312 530 OFFCURVE",
"333 500 OFFCURVE",
"333 470 CURVE SMOOTH",
"333 435 OFFCURVE",
"315 399 OFFCURVE",
"263 398 CURVE",
"263 333 LINE",
"273 333 LINE",
"334 328 OFFCURVE",
"342 289 OFFCURVE",
"342 266 CURVE SMOOTH",
"342 232 OFFCURVE",
"320 198 OFFCURVE",
"250 198 CURVE SMOOTH",
"216 198 OFFCURVE",
"128 209 OFFCURVE",
"99 350 CURVE",
"26 335 LINE",
"58 169 OFFCURVE",
"174 124 OFFCURVE",
"250 124 CURVE SMOOTH",
"263 124 LINE",
"289 51 OFFCURVE",
"363 -10 OFFCURVE",
"460 -10 CURVE SMOOTH",
"626 -10 OFFCURVE",
"676 124 OFFCURVE",
"676 282 CURVE SMOOTH",
"676 551 LINE",
"766 551 LINE",
"766 622 LINE",
"0 622 LINE"
);
},
{
closed = 1;
nodes = (
"408 63 OFFCURVE",
"360 99 OFFCURVE",
"341 141 CURVE",
"398 166 OFFCURVE",
"423 216 OFFCURVE",
"423 268 CURVE SMOOTH",
"423 299 OFFCURVE",
"407 341 OFFCURVE",
"368 369 CURVE",
"397 395 OFFCURVE",
"413 431 OFFCURVE",
"413 468 CURVE SMOOTH",
"413 498 OFFCURVE",
"403 527 OFFCURVE",
"385 551 CURVE",
"596 551 LINE",
"596 282 LINE SMOOTH",
"596 109 OFFCURVE",
"536 63 OFFCURVE",
"461 63 CURVE SMOOTH"
);
}
);
};
layerId = UUID0;
paths = (
{
closed = 1;
nodes = (
"0 551 LINE",
"132 551 LINE",
"121 543 OFFCURVE",
"111 534 OFFCURVE",
"102 525 CURVE",
"151 468 LINE",
"179 496 OFFCURVE",
"215 530 OFFCURVE",
"270 530 CURVE SMOOTH",
"312 530 OFFCURVE",
"333 500 OFFCURVE",
"333 470 CURVE SMOOTH",
"333 435 OFFCURVE",
"315 399 OFFCURVE",
"263 398 CURVE",
"263 333 LINE",
"273 333 LINE",
"334 328 OFFCURVE",
"342 289 OFFCURVE",
"342 266 CURVE SMOOTH",
"342 232 OFFCURVE",
"320 198 OFFCURVE",
"250 198 CURVE SMOOTH",
"216 198 OFFCURVE",
"128 209 OFFCURVE",
"99 350 CURVE",
"26 335 LINE",
"58 169 OFFCURVE",
"174 124 OFFCURVE",
"250 124 CURVE SMOOTH",
"263 124 LINE",
"289 51 OFFCURVE",
"363 -10 OFFCURVE",
"460 -10 CURVE SMOOTH",
"626 -10 OFFCURVE",
"676 124 OFFCURVE",
"676 282 CURVE SMOOTH",
"676 551 LINE",
"766 551 LINE",
"766 622 LINE",
"0 622 LINE"
);
},
{
closed = 1;
nodes = (
"408 63 OFFCURVE",
"360 99 OFFCURVE",
"341 141 CURVE",
"398 166 OFFCURVE",
"423 216 OFFCURVE",
"423 268 CURVE SMOOTH",
"423 299 OFFCURVE",
"407 341 OFFCURVE",
"368 369 CURVE",
"397 395 OFFCURVE",
"413 431 OFFCURVE",
"413 468 CURVE SMOOTH",
"413 498 OFFCURVE",
"403 527 OFFCURVE",
"385 551 CURVE",
"596 551 LINE",
"596 282 LINE SMOOTH",
"596 109 OFFCURVE",
"536 63 OFFCURVE",
"461 63 CURVE SMOOTH"
);
}
);
width = 756;
}
);
unicode = 11600;
category = Letter;
},
{
glyphname = AA_iv;
lastChange = "2018-08-06 13:06:57 +0000";
layers = (
{
background = {
paths = (
{
closed = 1;
nodes = (
"731 9 LINE",
"713 35 OFFCURVE",
"698 53 OFFCURVE",
"682 65 CURVE",
"646 123 OFFCURVE",
"623 196 OFFCURVE",
"623 355 CURVE SMOOTH",
"623 420 OFFCURVE",
"633 485 OFFCURVE",
"650 551 CURVE",
"745 551 LINE",
"745 622 LINE",
"0 622 LINE",
"0 551 LINE",
"81 551 LINE",
"62 527 OFFCURVE",
"50 497 OFFCURVE",
"50 462 CURVE SMOOTH",
"50 385 OFFCURVE",
"110 322 OFFCURVE",
"187 322 CURVE SMOOTH",
"200 322 OFFCURVE",
"212 323 OFFCURVE",
"223 327 CURVE",
"206 282 OFFCURVE",
"187 242 OFFCURVE",
"187 178 CURVE SMOOTH",
"187 39 OFFCURVE",
"286 -10 OFFCURVE",
"394 -10 CURVE SMOOTH",
"490 -10 OFFCURVE",
"529 20 OFFCURVE",
"587 20 CURVE SMOOTH",
"623 20 OFFCURVE",
"626 10 OFFCURVE",
"657 -21 CURVE"
);
},
{
closed = 1;
nodes = (
"542 239 OFFCURVE",
"556 151 OFFCURVE",
"583 90 CURVE",
"522 88 OFFCURVE",
"475 61 OFFCURVE",
"397 61 CURVE SMOOTH",
"305 61 OFFCURVE",
"268 102 OFFCURVE",
"268 179 CURVE SMOOTH",
"268 278 OFFCURVE",
"330 357 OFFCURVE",
"330 449 CURVE SMOOTH",
"330 484 OFFCURVE",
"321 522 OFFCURVE",
"299 551 CURVE",
"568 551 LINE",
"552 484 OFFCURVE",
"542 417 OFFCURVE",
"542 352 CURVE SMOOTH"
);
},
{
closed = 1;
nodes = (
"162 392 OFFCURVE",
"120 412 OFFCURVE",
"120 461 CURVE SMOOTH",
"120 502 OFFCURVE",
"151 533 OFFCURVE",
"190 533 CURVE SMOOTH",
"240 533 OFFCURVE",
"251 483 OFFCURVE",
"251 462 CURVE SMOOTH",
"251 444 OFFCURVE",
"249 427 OFFCURVE",
"247 412 CURVE",
"231 400 OFFCURVE",
"212 392 OFFCURVE",
"189 392 CURVE SMOOTH"
);
}
);
};
layerId = UUID0;
paths = (
{
closed = 1;
nodes = (
"731 9 LINE",
"713 35 OFFCURVE",
"698 53 OFFCURVE",
"682 65 CURVE",
"646 123 OFFCURVE",
"623 196 OFFCURVE",
"623 355 CURVE SMOOTH",
"623 420 OFFCURVE",
"633 485 OFFCURVE",
"650 551 CURVE",
"745 551 LINE",
"745 622 LINE",
"0 622 LINE",
"0 551 LINE",
"81 551 LINE",
"62 527 OFFCURVE",
"50 497 OFFCURVE",
"50 462 CURVE SMOOTH",
"50 385 OFFCURVE",
"110 322 OFFCURVE",
"187 322 CURVE SMOOTH",
"200 322 OFFCURVE",
"212 323 OFFCURVE",
"223 327 CURVE",
"202 279 OFFCURVE",
"187 236 OFFCURVE",
"187 178 CURVE SMOOTH",
"187 39 OFFCURVE",
"286 -10 OFFCURVE",
"394 -10 CURVE SMOOTH",
"490 -10 OFFCURVE",
"529 20 OFFCURVE",
"587 20 CURVE SMOOTH",
"623 20 OFFCURVE",
"627 10 OFFCURVE",
"657 -21 CURVE"
);
},
{
closed = 1;
nodes = (
"542 239 OFFCURVE",
"556 151 OFFCURVE",
"583 90 CURVE",
"522 88 OFFCURVE",
"475 61 OFFCURVE",
"397 61 CURVE SMOOTH",
"305 61 OFFCURVE",
"268 102 OFFCURVE",
"268 179 CURVE SMOOTH",
"268 278 OFFCURVE",
"330 357 OFFCURVE",
"330 449 CURVE SMOOTH",
"330 484 OFFCURVE",
"321 522 OFFCURVE",
"299 551 CURVE",
"568 551 LINE",
"552 484 OFFCURVE",
"542 417 OFFCURVE",
"542 352 CURVE SMOOTH"
);
},
{
closed = 1;
nodes = (
"162 392 OFFCURVE",
"120 412 OFFCURVE",
"120 461 CURVE SMOOTH",
"120 502 OFFCURVE",
"151 533 OFFCURVE",
"190 533 CURVE SMOOTH",
"240 533 OFFCURVE",
"251 483 OFFCURVE",
"251 462 CURVE SMOOTH",
"251 444 OFFCURVE",
"249 427 OFFCURVE",
"247 412 CURVE",
"231 400 OFFCURVE",
"212 392 OFFCURVE",
"189 392 CURVE SMOOTH"
);
}
);
width = 735;
}
);
unicode = 11601;
category = Letter;
},
{
glyphname = I_iv;
lastChange = "2018-08-06 13:07:05 +0000";
layers = (
{
background = {
anchors = (
{
name = Dot;
position = "{578, 758}";
},
{
name = TopCtr;
position = "{319, 880}";
}
);
paths = (
{
closed = 1;
nodes = (
"648 622 LINE",
"517 622 LINE",
"492 689 OFFCURVE",
"464 751 OFFCURVE",
"439 805 CURVE",
"365 782 LINE",
"390 727 OFFCURVE",
"413 674 OFFCURVE",
"433 622 CURVE",
"0 622 LINE",
"0 551 LINE",
"140 551 LINE",
"85 525 OFFCURVE",
"60 479 OFFCURVE",
"60 429 CURVE SMOOTH",
"60 378 OFFCURVE",
"86 334 OFFCURVE",
"134 307 CURVE",
"89 277 OFFCURVE",
"60 231 OFFCURVE",
"60 178 CURVE SMOOTH",
"60 52 OFFCURVE",
"169 -10 OFFCURVE",
"294 -10 CURVE SMOOTH",
"507 -10 OFFCURVE",
"578 154 OFFCURVE",
"578 312 CURVE SMOOTH",
"578 397 OFFCURVE",
"563 477 OFFCURVE",
"541 551 CURVE",
"648 551 LINE"
);
},
{
closed = 1;
nodes = (
"265 348 LINE",
"174 348 OFFCURVE",
"141 387 OFFCURVE",
"141 428 CURVE SMOOTH",
"141 465 OFFCURVE",
"166 502 OFFCURVE",
"245 502 CURVE",
"245 551 LINE",
"458 551 LINE",
"483 472 OFFCURVE",
"498 393 OFFCURVE",
"498 312 CURVE SMOOTH",
"498 145 OFFCURVE",
"420 64 OFFCURVE",
"294 64 CURVE SMOOTH",
"225 64 OFFCURVE",
"140 97 OFFCURVE",
"140 177 CURVE SMOOTH",
"140 244 OFFCURVE",
"196 278 OFFCURVE",
"265 278 CURVE"
);
}
);
};
layerId = UUID0;
paths = (
{
closed = 1;
nodes = (
"648 622 LINE",
"517 622 LINE",
"492 689 OFFCURVE",
"464 751 OFFCURVE",
"439 805 CURVE",
"365 782 LINE",
"390 727 OFFCURVE",
"413 674 OFFCURVE",
"433 622 CURVE",
"0 622 LINE",
"0 551 LINE",
"140 551 LINE",
"85 525 OFFCURVE",
"60 479 OFFCURVE",
"60 429 CURVE SMOOTH",
"60 378 OFFCURVE",
"86 334 OFFCURVE",
"134 307 CURVE",
"89 277 OFFCURVE",
"60 231 OFFCURVE",
"60 178 CURVE SMOOTH",
"60 52 OFFCURVE",
"169 -10 OFFCURVE",
"294 -10 CURVE SMOOTH",
"507 -10 OFFCURVE",
"578 154 OFFCURVE",
"578 312 CURVE SMOOTH",
"578 397 OFFCURVE",
"563 477 OFFCURVE",
"541 551 CURVE",
"648 551 LINE"
);
},
{
closed = 1;
nodes = (
"265 348 LINE",
"174 348 OFFCURVE",
"141 387 OFFCURVE",
"141 428 CURVE SMOOTH",
"141 465 OFFCURVE",
"166 502 OFFCURVE",
"245 502 CURVE",
"245 551 LINE",
"458 551 LINE",
"483 472 OFFCURVE",
"498 393 OFFCURVE",
"498 312 CURVE SMOOTH",
"498 145 OFFCURVE",
"420 64 OFFCURVE",
"294 64 CURVE SMOOTH",
"225 64 OFFCURVE",
"140 97 OFFCURVE",
"140 177 CURVE SMOOTH",
"140 244 OFFCURVE",
"196 278 OFFCURVE",
"265 278 CURVE"
);
}
);
width = 638;
}
);
unicode = 11602;
category = Letter;
},
{
glyphname = II_iv;
lastChange = "2018-08-06 13:07:05 +0000";
layers = (
{
background = {
anchors = (
{
name = Dot;
position = "{710, 758}";
},
{
name = TopCtr;
position = "{320, 880}";
}
);
paths = (
{
closed = 1;
nodes = (
"650 622 LINE",
"457 622 LINE",
"454 634 OFFCURVE",
"453 646 OFFCURVE",
"453 658 CURVE SMOOTH",
"453 710 OFFCURVE",
"474 728 OFFCURVE",
"510 728 CURVE SMOOTH",
"535 728 OFFCURVE",
"552 717 OFFCURVE",
"565 699 CURVE",
"634 732 LINE",
"611 771 OFFCURVE",
"575 800 OFFCURVE",
"509 800 CURVE SMOOTH",
"414 800 OFFCURVE",
"370 740 OFFCURVE",
"370 652 CURVE SMOOTH",
"370 642 OFFCURVE",
"370 632 OFFCURVE",
"372 622 CURVE",
"0 622 LINE",
"0 551 LINE",
"140 551 LINE",
"85 525 OFFCURVE",
"60 479 OFFCURVE",
"60 429 CURVE SMOOTH",
"60 378 OFFCURVE",
"86 334 OFFCURVE",
"135 307 CURVE",
"89 277 OFFCURVE",
"60 231 OFFCURVE",
"60 182 CURVE SMOOTH",
"60 47 OFFCURVE",
"169 -10 OFFCURVE",
"294 -10 CURVE SMOOTH",
"456 -10 OFFCURVE",
"570 78 OFFCURVE",
"570 247 CURVE SMOOTH",
"570 342 OFFCURVE",
"511 455 OFFCURVE",
"477 551 CURVE",
"650 551 LINE"
);
},
{
closed = 1;
nodes = (
"265 348 LINE",
"174 348 OFFCURVE",
"141 387 OFFCURVE",
"141 428 CURVE SMOOTH",
"141 465 OFFCURVE",
"166 502 OFFCURVE",
"245 502 CURVE",
"245 551 LINE",
"389 551 LINE",
"423 451 OFFCURVE",
"490 344 OFFCURVE",
"490 245 CURVE SMOOTH",
"490 116 OFFCURVE",
"405 64 OFFCURVE",
"294 64 CURVE SMOOTH",
"225 64 OFFCURVE",
"140 94 OFFCURVE",
"140 181 CURVE SMOOTH",
"140 239 OFFCURVE",
"193 276 OFFCURVE",
"260 278 CURVE SMOOTH",
"265 278 LINE"
);
}
);
};
layerId = UUID0;
paths = (
{
closed = 1;
nodes = (
"650 622 LINE",
"457 622 LINE",
"454 634 OFFCURVE",
"453 646 OFFCURVE",
"453 658 CURVE SMOOTH",
"453 710 OFFCURVE",
"474 728 OFFCURVE",
"510 728 CURVE SMOOTH",
"535 728 OFFCURVE",
"552 717 OFFCURVE",
"565 699 CURVE",
"634 732 LINE",
"611 771 OFFCURVE",
"575 800 OFFCURVE",
"509 800 CURVE SMOOTH",
"414 800 OFFCURVE",
"370 740 OFFCURVE",
"370 652 CURVE SMOOTH",
"370 642 OFFCURVE",
"370 632 OFFCURVE",
"372 622 CURVE",
"0 622 LINE",
"0 551 LINE",
"140 551 LINE",
"85 525 OFFCURVE",
"60 479 OFFCURVE",
"60 429 CURVE SMOOTH",
"60 378 OFFCURVE",
"86 334 OFFCURVE",
"135 307 CURVE",
"89 277 OFFCURVE",
"60 231 OFFCURVE",
"60 182 CURVE SMOOTH",
"60 47 OFFCURVE",
"169 -10 OFFCURVE",
"294 -10 CURVE SMOOTH",
"456 -10 OFFCURVE",
"570 78 OFFCURVE",
"570 247 CURVE SMOOTH",
"570 342 OFFCURVE",
"511 455 OFFCURVE",
"477 551 CURVE",
"650 551 LINE"
);
},
{
closed = 1;
nodes = (
"265 348 LINE",
"174 348 OFFCURVE",
"141 387 OFFCURVE",
"141 428 CURVE SMOOTH",
"141 465 OFFCURVE",
"166 502 OFFCURVE",
"245 502 CURVE",
"245 551 LINE",
"389 551 LINE",
"423 451 OFFCURVE",
"490 344 OFFCURVE",
"490 245 CURVE SMOOTH",
"490 116 OFFCURVE",
"405 64 OFFCURVE",
"294 64 CURVE SMOOTH",
"225 64 OFFCURVE",
"140 94 OFFCURVE",
"140 181 CURVE SMOOTH",
"140 239 OFFCURVE",
"193 276 OFFCURVE",
"260 278 CURVE SMOOTH",
"265 278 LINE"
);
}
);
width = 640;
}
);
unicode = 11603;
category = Letter;
},
{
glyphname = U_iv;
lastChange = "2018-08-06 13:07:05 +0000";
layers = (
{
background = {
anchors = (
{
name = Dot;
position = "{682, 758}";
},
{
name = TopCtr;
position = "{371, 880}";
}
);
paths = (
{
closed = 1;
nodes = (
"274 204 LINE",
"326 199 OFFCURVE",
"350 165 OFFCURVE",
"350 129 CURVE SMOOTH",
"350 90 OFFCURVE",
"318 61 OFFCURVE",
"274 61 CURVE SMOOTH",
"206 61 OFFCURVE",
"141 140 OFFCURVE",
"141 338 CURVE SMOOTH",
"141 410 OFFCURVE",
"149 486 OFFCURVE",
"171 551 CURVE",
"576 551 LINE",
"594 495 OFFCURVE",
"602 434 OFFCURVE",
"602 381 CURVE SMOOTH",
"602 254 OFFCURVE",
"577 113 OFFCURVE",
"542 15 CURVE",
"614 -17 LINE",
"656 98 OFFCURVE",
"682 251 OFFCURVE",
"682 382 CURVE SMOOTH",
"682 440 OFFCURVE",
"674 498 OFFCURVE",
"658 551 CURVE",
"752 551 LINE",
"752 622 LINE",
"631 622 LINE",
"581 726 OFFCURVE",
"497 800 OFFCURVE",
"382 800 CURVE SMOOTH",
"258 800 OFFCURVE",
"169 731 OFFCURVE",
"116 622 CURVE",
"0 622 LINE",
"0 551 LINE",
"88 551 LINE",
"69 488 OFFCURVE",
"60 417 OFFCURVE",
"60 340 CURVE SMOOTH",
"60 117 OFFCURVE",
"141 -10 OFFCURVE",
"273 -10 CURVE SMOOTH",
"366 -10 OFFCURVE",
"431 52 OFFCURVE",
"431 132 CURVE SMOOTH",
"431 207 OFFCURVE",
"374 268 OFFCURVE",
"284 273 CURVE"
);
},
{
closed = 1;
nodes = (
"456 726 OFFCURVE",
"509 683 OFFCURVE",
"545 622 CURVE",
"203 622 LINE",
"240 684 OFFCURVE",
"296 726 OFFCURVE",
"378 726 CURVE SMOOTH"
);
}
);
};
layerId = UUID0;
paths = (
{
closed = 1;
nodes = (
"274 204 LINE",
"326 199 OFFCURVE",
"350 165 OFFCURVE",
"350 129 CURVE SMOOTH",
"350 90 OFFCURVE",
"318 61 OFFCURVE",
"274 61 CURVE SMOOTH",
"206 61 OFFCURVE",
"141 140 OFFCURVE",
"141 338 CURVE SMOOTH",
"141 410 OFFCURVE",
"149 486 OFFCURVE",
"171 551 CURVE",
"576 551 LINE",
"594 495 OFFCURVE",
"602 434 OFFCURVE",
"602 381 CURVE SMOOTH",
"602 254 OFFCURVE",
"577 113 OFFCURVE",
"542 15 CURVE",
"614 -17 LINE",
"656 98 OFFCURVE",
"682 251 OFFCURVE",
"682 382 CURVE SMOOTH",
"682 440 OFFCURVE",
"674 498 OFFCURVE",
"658 551 CURVE",
"752 551 LINE",
"752 622 LINE",
"631 622 LINE",
"581 726 OFFCURVE",
"497 800 OFFCURVE",
"382 800 CURVE SMOOTH",
"258 800 OFFCURVE",
"169 731 OFFCURVE",
"116 622 CURVE",
"0 622 LINE",
"0 551 LINE",
"88 551 LINE",
"69 488 OFFCURVE",
"60 417 OFFCURVE",
"60 340 CURVE SMOOTH",
"60 117 OFFCURVE",
"141 -10 OFFCURVE",
"273 -10 CURVE SMOOTH",
"366 -10 OFFCURVE",
"431 52 OFFCURVE",
"431 132 CURVE SMOOTH",
"431 207 OFFCURVE",
"374 268 OFFCURVE",
"284 273 CURVE"
);
},
{
closed = 1;
nodes = (
"456 726 OFFCURVE",
"509 683 OFFCURVE",
"545 622 CURVE",
"203 622 LINE",
"240 684 OFFCURVE",
"296 726 OFFCURVE",
"378 726 CURVE SMOOTH"
);
}
);
width = 742;
}
);
unicode = 11604;
category = Letter;
},
{
glyphname = UU_iv;
lastChange = "2018-08-06 13:07:05 +0000";
layers = (
{
background = {
anchors = (
{
name = Dot;
position = "{685, 758}";
},
{
name = TopCtr;
position = "{371, 880}";
}
);
paths = (
{
closed = 1;
nodes = (
"752 622 LINE",
"625 622 LINE",
"578 729 OFFCURVE",
"499 800 OFFCURVE",
"382 800 CURVE SMOOTH",
"258 800 OFFCURVE",
"169 731 OFFCURVE",
"116 622 CURVE",
"0 622 LINE",
"0 551 LINE",
"88 551 LINE",
"69 488 OFFCURVE",
"60 417 OFFCURVE",
"60 340 CURVE SMOOTH",
"60 117 OFFCURVE",
"141 -10 OFFCURVE",
"255 -10 CURVE SMOOTH",
"336 -10 OFFCURVE",
"391 52 OFFCURVE",
"391 132 CURVE SMOOTH",
"391 207 OFFCURVE",
"334 268 OFFCURVE",
"244 273 CURVE",
"234 204 LINE",
"286 199 OFFCURVE",
"310 165 OFFCURVE",
"310 129 CURVE SMOOTH",
"310 90 OFFCURVE",
"288 61 OFFCURVE",
"257 61 CURVE SMOOTH",
"206 61 OFFCURVE",
"141 140 OFFCURVE",
"141 338 CURVE SMOOTH",
"141 410 OFFCURVE",
"149 486 OFFCURVE",
"171 551 CURVE",
"572 551 LINE",
"577 533 OFFCURVE",
"582 516 OFFCURVE",
"586 498 CURVE",
"502 414 OFFCURVE",
"443 251 OFFCURVE",
"443 139 CURVE SMOOTH",
"443 46 OFFCURVE",
"482 -10 OFFCURVE",
"550 -10 CURVE SMOOTH",
"677 -10 OFFCURVE",
"685 180 OFFCURVE",
"685 282 CURVE SMOOTH",
"685 378 OFFCURVE",
"674 471 OFFCURVE",
"651 551 CURVE",
"752 551 LINE"
);
},
{
closed = 1;
nodes = (
"457 726 OFFCURVE",
"509 683 OFFCURVE",
"543 622 CURVE",
"203 622 LINE",
"240 684 OFFCURVE",
"296 726 OFFCURVE",
"378 726 CURVE SMOOTH"
);
},
{
closed = 1;
nodes = (
"605 161 OFFCURVE",
"590 60 OFFCURVE",
"554 60 CURVE SMOOTH",
"541 60 OFFCURVE",
"523 75 OFFCURVE",
"523 134 CURVE SMOOTH",
"523 190 OFFCURVE",
"536 314 OFFCURVE",
"600 401 CURVE",
"604 356 OFFCURVE",
"605 313 OFFCURVE",
"605 280 CURVE SMOOTH"
);
}
);
};
layerId = UUID0;
paths = (
{
closed = 1;
nodes = (
"752 622 LINE",
"625 622 LINE",
"578 729 OFFCURVE",
"499 800 OFFCURVE",
"382 800 CURVE SMOOTH",
"258 800 OFFCURVE",
"169 731 OFFCURVE",
"116 622 CURVE",
"0 622 LINE",
"0 551 LINE",
"88 551 LINE",
"69 488 OFFCURVE",
"60 417 OFFCURVE",
"60 340 CURVE SMOOTH",
"60 117 OFFCURVE",
"141 -10 OFFCURVE",
"255 -10 CURVE SMOOTH",
"336 -10 OFFCURVE",
"391 52 OFFCURVE",
"391 132 CURVE SMOOTH",
"391 207 OFFCURVE",
"334 268 OFFCURVE",
"244 273 CURVE",
"234 204 LINE",
"286 199 OFFCURVE",
"310 165 OFFCURVE",
"310 129 CURVE SMOOTH",
"310 90 OFFCURVE",
"288 61 OFFCURVE",
"257 61 CURVE SMOOTH",
"206 61 OFFCURVE",
"141 140 OFFCURVE",
"141 338 CURVE SMOOTH",
"141 410 OFFCURVE",
"149 486 OFFCURVE",
"171 551 CURVE",
"572 551 LINE",
"578 533 OFFCURVE",
"582 516 OFFCURVE",
"586 498 CURVE",
"502 414 OFFCURVE",
"443 251 OFFCURVE",
"443 139 CURVE SMOOTH",
"443 46 OFFCURVE",
"482 -10 OFFCURVE",
"550 -10 CURVE SMOOTH",
"677 -10 OFFCURVE",
"685 180 OFFCURVE",
"685 282 CURVE SMOOTH",
"685 378 OFFCURVE",
"674 471 OFFCURVE",
"651 551 CURVE",
"752 551 LINE"
);
},
{
closed = 1;
nodes = (
"457 726 OFFCURVE",
"509 683 OFFCURVE",
"543 622 CURVE",
"203 622 LINE",
"240 684 OFFCURVE",
"296 726 OFFCURVE",
"378 726 CURVE SMOOTH"
);
},
{
closed = 1;
nodes = (
"605 161 OFFCURVE",
"590 60 OFFCURVE",
"554 60 CURVE SMOOTH",
"541 60 OFFCURVE",
"523 75 OFFCURVE",
"523 134 CURVE SMOOTH",
"523 190 OFFCURVE",
"536 314 OFFCURVE",
"600 401 CURVE",
"604 356 OFFCURVE",
"605 313 OFFCURVE",
"605 280 CURVE SMOOTH"
);
}
);
width = 742;
}
);
unicode = 11605;
category = Letter;
},
{
glyphname = VocR_iv;
lastChange = "2018-08-06 13:06:57 +0000";
layers = (
{
background = {
anchors = (
{
name = Dot;
position = "{620, 718}";
}
);
paths = (
{
closed = 1;
nodes = (
"805 622 LINE",
"0 622 LINE",
"0 551 LINE",
"324 551 LINE",
"324 389 LINE",
"274 430 OFFCURVE",
"227 443 OFFCURVE",
"172 443 CURVE SMOOTH",
"130 443 OFFCURVE",
"88 434 OFFCURVE",
"40 413 CURVE",
"69 340 LINE",
"109 358 OFFCURVE",
"140 367 OFFCURVE",
"174 367 CURVE SMOOTH",
"215 367 OFFCURVE",
"247 365 OFFCURVE",
"301 312 CURVE",
"88 232 LINE",
"116 155 LINE",
"324 240 LINE",
"324 137 LINE SMOOTH",
"324 33 OFFCURVE",
"361 -5 OFFCURVE",
"449 -10 CURVE",
"460 64 LINE",
"428 69 OFFCURVE",
"404 86 OFFCURVE",
"404 141 CURVE SMOOTH",
"404 255 LINE",
"412 254 OFFCURVE",
"419 254 OFFCURVE",
"427 254 CURVE SMOOTH",
"481 254 OFFCURVE",
"528 262 OFFCURVE",
"567 276 CURVE",
"605 231 OFFCURVE",
"643 193 OFFCURVE",
"643 144 CURVE SMOOTH",
"643 94 OFFCURVE",
"606 73 OFFCURVE",
"572 57 CURVE",
"613 -7 LINE",
"674 23 OFFCURVE",
"722 63 OFFCURVE",
"722 140 CURVE SMOOTH",
"722 198 OFFCURVE",
"676 256 OFFCURVE",
"634 308 CURVE",
"703 353 OFFCURVE",
"735 419 OFFCURVE",
"735 478 CURVE SMOOTH",
"735 505 OFFCURVE",
"728 530 OFFCURVE",
"715 551 CURVE",
"805 551 LINE"
);
},
{
closed = 1;
nodes = (
"486 412 OFFCURVE",
"500 373 OFFCURVE",
"520 339 CURVE",
"494 333 OFFCURVE",
"464 329 OFFCURVE",
"430 329 CURVE SMOOTH",
"404 329 LINE",
"404 551 LINE",
"511 551 LINE",
"495 527 OFFCURVE",
"486 496 OFFCURVE",
"486 462 CURVE SMOOTH"
);
},
{
closed = 1;
nodes = (
"561 497 OFFCURVE",
"577 530 OFFCURVE",
"617 530 CURVE SMOOTH",
"646 530 OFFCURVE",
"660 507 OFFCURVE",
"660 481 CURVE SMOOTH",
"660 441 OFFCURVE",
"638 398 OFFCURVE",
"590 368 CURVE",
"573 396 OFFCURVE",
"561 426 OFFCURVE",
"561 462 CURVE SMOOTH"
);
}
);
};
layerId = UUID0;
paths = (
{
closed = 1;
nodes = (
"805 622 LINE",
"0 622 LINE",
"0 551 LINE",
"324 551 LINE",
"324 389 LINE",
"274 430 OFFCURVE",
"227 443 OFFCURVE",
"172 443 CURVE SMOOTH",
"130 443 OFFCURVE",
"88 434 OFFCURVE",
"40 413 CURVE",
"69 340 LINE",
"109 358 OFFCURVE",
"140 367 OFFCURVE",
"174 367 CURVE SMOOTH",
"215 367 OFFCURVE",
"247 365 OFFCURVE",
"301 312 CURVE",
"88 232 LINE",
"116 155 LINE",
"324 240 LINE",
"324 137 LINE SMOOTH",
"324 33 OFFCURVE",
"361 -5 OFFCURVE",
"449 -10 CURVE",
"460 64 LINE",
"428 69 OFFCURVE",
"404 86 OFFCURVE",
"404 141 CURVE SMOOTH",
"404 255 LINE",
"412 254 OFFCURVE",
"419 254 OFFCURVE",
"427 254 CURVE SMOOTH",
"481 254 OFFCURVE",
"528 262 OFFCURVE",
"567 276 CURVE",
"605 231 OFFCURVE",
"643 193 OFFCURVE",
"643 144 CURVE SMOOTH",
"643 94 OFFCURVE",
"606 73 OFFCURVE",
"572 57 CURVE",
"613 -7 LINE",
"674 23 OFFCURVE",
"722 63 OFFCURVE",
"722 140 CURVE SMOOTH",
"722 198 OFFCURVE",
"676 256 OFFCURVE",
"634 308 CURVE",
"703 353 OFFCURVE",
"735 419 OFFCURVE",
"735 478 CURVE SMOOTH",
"735 505 OFFCURVE",
"728 530 OFFCURVE",
"715 551 CURVE",
"805 551 LINE"
);
},
{
closed = 1;
nodes = (
"486 412 OFFCURVE",
"500 373 OFFCURVE",
"520 339 CURVE",
"494 333 OFFCURVE",
"464 329 OFFCURVE",
"430 329 CURVE SMOOTH",
"404 329 LINE",
"404 551 LINE",
"511 551 LINE",
"495 527 OFFCURVE",
"486 496 OFFCURVE",
"486 462 CURVE SMOOTH"
);
},
{
closed = 1;
nodes = (
"561 497 OFFCURVE",
"577 530 OFFCURVE",
"617 530 CURVE SMOOTH",
"646 530 OFFCURVE",
"660 507 OFFCURVE",
"660 481 CURVE SMOOTH",
"660 441 OFFCURVE",
"638 398 OFFCURVE",
"590 368 CURVE",
"573 396 OFFCURVE",
"561 426 OFFCURVE",
"561 462 CURVE SMOOTH"
);
}
);
width = 795;
}
);
unicode = 11606;
category = Letter;
},
{
glyphname = VocRR_iv;
lastChange = "2018-08-06 13:06:57 +0000";
layers = (
{
background = {
anchors = (
{
name = Dot;
position = "{617, 718}";
}
);
paths = (
{
closed = 1;
nodes = (
"845 622 LINE",
"0 622 LINE",
"0 551 LINE",
"324 551 LINE",
"324 389 LINE",
"274 430 OFFCURVE",
"227 443 OFFCURVE",
"172 443 CURVE SMOOTH",
"130 443 OFFCURVE",
"88 434 OFFCURVE",
"40 413 CURVE",
"69 340 LINE",
"109 358 OFFCURVE",
"140 367 OFFCURVE",
"174 367 CURVE SMOOTH",
"215 367 OFFCURVE",
"247 365 OFFCURVE",
"301 312 CURVE",
"88 232 LINE",
"116 155 LINE",
"324 240 LINE",
"324 137 LINE SMOOTH",
"324 33 OFFCURVE",
"361 -5 OFFCURVE",
"449 -10 CURVE",
"460 64 LINE",
"428 69 OFFCURVE",
"404 86 OFFCURVE",
"404 141 CURVE SMOOTH",
"404 255 LINE",
"412 254 OFFCURVE",
"419 254 OFFCURVE",
"427 254 CURVE SMOOTH",
"481 254 OFFCURVE",
"528 262 OFFCURVE",
"567 276 CURVE",
"605 231 OFFCURVE",
"643 193 OFFCURVE",
"643 144 CURVE SMOOTH",
"643 94 OFFCURVE",
"606 73 OFFCURVE",
"572 57 CURVE",
"613 -7 LINE",
"674 23 OFFCURVE",
"722 63 OFFCURVE",
"722 140 CURVE SMOOTH",
"722 150 OFFCURVE",
"721 160 OFFCURVE",
"719 170 CURVE",
"775 175 OFFCURVE",
"822 221 OFFCURVE",
"822 278 CURVE SMOOTH",
"822 338 OFFCURVE",
"776 386 OFFCURVE",
"709 386 CURVE",
"726 416 OFFCURVE",
"735 448 OFFCURVE",
"735 478 CURVE SMOOTH",
"735 505 OFFCURVE",
"728 530 OFFCURVE",
"715 551 CURVE",
"845 551 LINE"
);
},
{
closed = 1;
nodes = (
"486 412 OFFCURVE",
"500 373 OFFCURVE",
"520 339 CURVE",
"494 333 OFFCURVE",
"464 329 OFFCURVE",
"430 329 CURVE SMOOTH",
"404 329 LINE",
"404 551 LINE",
"511 551 LINE",
"495 527 OFFCURVE",
"486 496 OFFCURVE",
"486 462 CURVE SMOOTH"
);
},
{
closed = 1;
nodes = (
"561 497 OFFCURVE",
"577 530 OFFCURVE",
"617 530 CURVE SMOOTH",
"646 530 OFFCURVE",
"660 507 OFFCURVE",
"660 481 CURVE SMOOTH",
"660 441 OFFCURVE",
"638 398 OFFCURVE",
"590 368 CURVE",
"573 396 OFFCURVE",
"561 426 OFFCURVE",
"561 462 CURVE SMOOTH"
);
},
{
closed = 1;
nodes = (
"664 301 OFFCURVE",
"684 324 OFFCURVE",
"710 324 CURVE SMOOTH",
"737 324 OFFCURVE",
"757 306 OFFCURVE",
"757 279 CURVE SMOOTH",
"757 251 OFFCURVE",
"735 233 OFFCURVE",
"710 233 CURVE SMOOTH",
"693 233 OFFCURVE",
"689 242 OFFCURVE",
"679 252 CURVE SMOOTH",
"675 257 OFFCURVE",
"671 263 OFFCURVE",
"666 268 CURVE",
"664 273 OFFCURVE",
"664 277 OFFCURVE",
"664 282 CURVE SMOOTH"
);
}
);
};
layerId = UUID0;
paths = (
{
closed = 1;
nodes = (
"845 622 LINE",
"0 622 LINE",
"0 551 LINE",
"324 551 LINE",
"324 389 LINE",
"274 430 OFFCURVE",
"227 443 OFFCURVE",
"172 443 CURVE SMOOTH",
"130 443 OFFCURVE",
"88 434 OFFCURVE",
"40 413 CURVE",
"69 340 LINE",
"109 358 OFFCURVE",
"140 367 OFFCURVE",
"174 367 CURVE SMOOTH",
"215 367 OFFCURVE",
"247 365 OFFCURVE",
"301 312 CURVE",
"88 232 LINE",
"116 155 LINE",
"324 240 LINE",
"324 137 LINE SMOOTH",
"324 33 OFFCURVE",
"361 -5 OFFCURVE",
"449 -10 CURVE",
"460 64 LINE",
"428 69 OFFCURVE",
"404 86 OFFCURVE",
"404 141 CURVE SMOOTH",
"404 255 LINE",
"412 254 OFFCURVE",
"419 254 OFFCURVE",
"427 254 CURVE SMOOTH",
"481 254 OFFCURVE",
"528 262 OFFCURVE",
"567 276 CURVE",
"595 240 OFFCURVE",
"643 199 OFFCURVE",
"643 144 CURVE SMOOTH",
"643 94 OFFCURVE",
"606 73 OFFCURVE",
"572 57 CURVE",
"613 -7 LINE",
"674 23 OFFCURVE",
"722 63 OFFCURVE",
"722 140 CURVE SMOOTH",
"722 150 OFFCURVE",
"721 160 OFFCURVE",
"719 170 CURVE",
"775 175 OFFCURVE",
"822 221 OFFCURVE",
"822 278 CURVE SMOOTH",
"822 338 OFFCURVE",
"776 386 OFFCURVE",
"709 386 CURVE",
"726 416 OFFCURVE",
"735 448 OFFCURVE",
"735 478 CURVE SMOOTH",
"735 505 OFFCURVE",
"728 530 OFFCURVE",
"715 551 CURVE",
"845 551 LINE"
);
},
{
closed = 1;
nodes = (
"486 412 OFFCURVE",
"500 373 OFFCURVE",
"520 339 CURVE",
"494 333 OFFCURVE",
"464 329 OFFCURVE",
"430 329 CURVE SMOOTH",
"404 329 LINE",
"404 551 LINE",
"511 551 LINE",
"495 527 OFFCURVE",
"486 496 OFFCURVE",
"486 462 CURVE SMOOTH"
);
},
{
closed = 1;
nodes = (
"561 497 OFFCURVE",
"577 530 OFFCURVE",
"617 530 CURVE SMOOTH",
"646 530 OFFCURVE",
"660 507 OFFCURVE",
"660 481 CURVE SMOOTH",
"660 441 OFFCURVE",
"638 398 OFFCURVE",
"590 368 CURVE",
"573 396 OFFCURVE",
"561 426 OFFCURVE",
"561 462 CURVE SMOOTH"
);
},
{
closed = 1;
nodes = (
"664 301 OFFCURVE",
"684 324 OFFCURVE",
"710 324 CURVE SMOOTH",
"737 324 OFFCURVE",
"757 306 OFFCURVE",
"757 279 CURVE SMOOTH",
"757 251 OFFCURVE",
"735 233 OFFCURVE",
"710 233 CURVE SMOOTH",
"695 233 OFFCURVE",
"687 242 OFFCURVE",
"679 252 CURVE SMOOTH",
"672 261 OFFCURVE",
"668 266 OFFCURVE",
"666 268 CURVE",
"664 273 OFFCURVE",
"664 277 OFFCURVE",
"664 282 CURVE SMOOTH"
);
}
);
width = 835;
}
);
unicode = 11607;
category = Letter;
},
{
glyphname = VocL_iv;
lastChange = "2018-08-06 13:06:57 +0000";
layers = (
{
background = {
anchors = (
{
name = Dot;
position = "{475, 718}";
}
);
paths = (
{
closed = 1;
nodes = (
"245 59 LINE",
"195 120 OFFCURVE",
"140 214 OFFCURVE",
"140 289 CURVE SMOOTH",
"140 343 OFFCURVE",
"167 383 OFFCURVE",
"213 383 CURVE SMOOTH",
"247 383 OFFCURVE",
"286 361 OFFCURVE",
"296 300 CURVE",
"364 300 LINE",
"375 372 OFFCURVE",
"428 383 OFFCURVE",
"455 383 CURVE SMOOTH",
"488 383 OFFCURVE",
"520 359 OFFCURVE",
"520 318 CURVE SMOOTH",
"520 207 OFFCURVE",
"391 186 OFFCURVE",
"391 82 CURVE SMOOTH",
"391 22 OFFCURVE",
"430 -40 OFFCURVE",
"532 -40 CURVE SMOOTH",
"562 -40 OFFCURVE",
"592 -33 OFFCURVE",
"617 -22 CURVE",
"600 43 LINE",
"583 35 OFFCURVE",
"553 30 OFFCURVE",
"527 30 CURVE SMOOTH",
"505 30 OFFCURVE",
"471 44 OFFCURVE",
"471 86 CURVE SMOOTH",
"471 154 OFFCURVE",
"600 179 OFFCURVE",
"600 322 CURVE SMOOTH",
"600 386 OFFCURVE",
"558 431 OFFCURVE",
"506 448 CURVE",
"506 551 LINE",
"670 551 LINE",
"670 622 LINE",
"0 622 LINE",
"0 551 LINE",
"426 551 LINE",
"426 453 LINE",
"387 447 OFFCURVE",
"354 429 OFFCURVE",
"330 400 CURVE",
"298 440 OFFCURVE",
"249 456 OFFCURVE",
"211 456 CURVE SMOOTH",
"115 456 OFFCURVE",
"60 381 OFFCURVE",
"60 290 CURVE SMOOTH",
"60 192 OFFCURVE",
"122 77 OFFCURVE",
"188 10 CURVE"
);
}
);
};
layerId = UUID0;
paths = (
{
closed = 1;
nodes = (
"245 59 LINE",
"195 120 OFFCURVE",
"140 214 OFFCURVE",
"140 289 CURVE SMOOTH",
"140 343 OFFCURVE",
"167 383 OFFCURVE",
"213 383 CURVE SMOOTH",
"247 383 OFFCURVE",
"286 361 OFFCURVE",
"296 300 CURVE",
"364 300 LINE",
"375 372 OFFCURVE",
"428 383 OFFCURVE",
"455 383 CURVE SMOOTH",
"488 383 OFFCURVE",
"520 359 OFFCURVE",
"520 318 CURVE SMOOTH",
"520 207 OFFCURVE",
"391 186 OFFCURVE",
"391 82 CURVE SMOOTH",
"391 22 OFFCURVE",
"430 -40 OFFCURVE",
"532 -40 CURVE SMOOTH",
"562 -40 OFFCURVE",
"592 -33 OFFCURVE",
"617 -22 CURVE",
"600 43 LINE",
"583 35 OFFCURVE",
"553 30 OFFCURVE",
"527 30 CURVE SMOOTH",
"505 30 OFFCURVE",
"471 44 OFFCURVE",
"471 86 CURVE SMOOTH",
"471 154 OFFCURVE",
"600 179 OFFCURVE",
"600 322 CURVE SMOOTH",
"600 386 OFFCURVE",
"558 431 OFFCURVE",
"506 448 CURVE",
"506 551 LINE",
"670 551 LINE",
"670 622 LINE",
"0 622 LINE",
"0 551 LINE",
"426 551 LINE",
"426 453 LINE",
"387 447 OFFCURVE",
"354 429 OFFCURVE",
"330 400 CURVE",
"298 440 OFFCURVE",
"249 456 OFFCURVE",
"211 456 CURVE SMOOTH",
"115 456 OFFCURVE",
"60 381 OFFCURVE",
"60 290 CURVE SMOOTH",
"60 192 OFFCURVE",
"122 77 OFFCURVE",
"188 10 CURVE"
);
}
);
width = 660;
}
);
unicode = 11608;
category = Letter;
},
{
glyphname = VocLL_iv;
lastChange = "2018-08-06 13:06:57 +0000";
layers = (
{
background = {
anchors = (
{
name = Dot;
position = "{475, 718}";
}
);
paths = (
{
closed = 1;
nodes = (
"245 59 LINE",
"195 120 OFFCURVE",
"140 214 OFFCURVE",
"140 289 CURVE SMOOTH",
"140 343 OFFCURVE",
"167 383 OFFCURVE",
"213 383 CURVE SMOOTH",
"247 383 OFFCURVE",
"286 361 OFFCURVE",
"296 300 CURVE",
"364 300 LINE",
"375 372 OFFCURVE",
"428 383 OFFCURVE",
"455 383 CURVE SMOOTH",
"488 383 OFFCURVE",
"520 359 OFFCURVE",
"520 318 CURVE SMOOTH",
"520 207 OFFCURVE",
"391 186 OFFCURVE",
"391 82 CURVE SMOOTH",
"391 44 OFFCURVE",
"406 5 OFFCURVE",
"443 -18 CURVE",
"423 -39 OFFCURVE",
"408 -64 OFFCURVE",
"408 -96 CURVE SMOOTH",
"408 -156 OFFCURVE",
"447 -210 OFFCURVE",
"549 -210 CURVE SMOOTH",
"591 -210 OFFCURVE",
"632 -201 OFFCURVE",
"663 -182 CURVE",
"641 -115 LINE",
"616 -133 OFFCURVE",
"580 -140 OFFCURVE",
"544 -140 CURVE SMOOTH",
"522 -140 OFFCURVE",
"488 -134 OFFCURVE",
"488 -92 CURVE SMOOTH",
"488 -72 OFFCURVE",
"500 -56 OFFCURVE",
"519 -39 CURVE",
"523 -39 OFFCURVE",
"527 -40 OFFCURVE",
"532 -40 CURVE SMOOTH",
"562 -40 OFFCURVE",
"592 -33 OFFCURVE",
"617 -22 CURVE",
"600 43 LINE",
"580 34 OFFCURVE",
"553 30 OFFCURVE",
"527 30 CURVE SMOOTH",
"505 30 OFFCURVE",
"471 44 OFFCURVE",
"471 86 CURVE SMOOTH",
"471 154 OFFCURVE",
"600 179 OFFCURVE",
"600 322 CURVE SMOOTH",
"600 386 OFFCURVE",
"558 431 OFFCURVE",
"506 448 CURVE",
"506 551 LINE",
"670 551 LINE",
"670 622 LINE",
"0 622 LINE",
"0 551 LINE",
"426 551 LINE",
"426 453 LINE",
"387 447 OFFCURVE",
"354 429 OFFCURVE",
"330 400 CURVE",
"298 440 OFFCURVE",
"249 456 OFFCURVE",
"211 456 CURVE SMOOTH",
"115 456 OFFCURVE",
"60 381 OFFCURVE",
"60 290 CURVE SMOOTH",
"60 192 OFFCURVE",
"122 77 OFFCURVE",
"188 10 CURVE"
);
}
);
};
layerId = UUID0;
paths = (
{
closed = 1;
nodes = (
"245 59 LINE",
"195 120 OFFCURVE",
"140 214 OFFCURVE",
"140 289 CURVE SMOOTH",
"140 343 OFFCURVE",
"167 383 OFFCURVE",
"213 383 CURVE SMOOTH",
"247 383 OFFCURVE",
"286 361 OFFCURVE",
"296 300 CURVE",
"364 300 LINE",
"375 372 OFFCURVE",
"428 383 OFFCURVE",
"455 383 CURVE SMOOTH",
"488 383 OFFCURVE",
"520 359 OFFCURVE",
"520 318 CURVE SMOOTH",
"520 207 OFFCURVE",
"391 186 OFFCURVE",
"391 82 CURVE SMOOTH",
"391 44 OFFCURVE",
"406 5 OFFCURVE",
"443 -18 CURVE",
"423 -39 OFFCURVE",
"408 -64 OFFCURVE",
"408 -96 CURVE SMOOTH",
"408 -156 OFFCURVE",
"447 -210 OFFCURVE",
"549 -210 CURVE SMOOTH",
"591 -210 OFFCURVE",
"632 -201 OFFCURVE",
"663 -182 CURVE",
"641 -115 LINE",
"616 -133 OFFCURVE",
"580 -140 OFFCURVE",
"544 -140 CURVE SMOOTH",
"522 -140 OFFCURVE",
"488 -134 OFFCURVE",
"488 -92 CURVE SMOOTH",
"488 -72 OFFCURVE",
"500 -56 OFFCURVE",
"519 -39 CURVE",
"525 -40 OFFCURVE",
"527 -40 OFFCURVE",
"532 -40 CURVE SMOOTH",
"562 -40 OFFCURVE",
"592 -33 OFFCURVE",
"617 -22 CURVE",
"600 43 LINE",
"580 34 OFFCURVE",
"553 30 OFFCURVE",
"527 30 CURVE SMOOTH",
"505 30 OFFCURVE",
"471 44 OFFCURVE",
"471 86 CURVE SMOOTH",
"471 154 OFFCURVE",
"600 179 OFFCURVE",
"600 322 CURVE SMOOTH",
"600 386 OFFCURVE",
"558 431 OFFCURVE",
"506 448 CURVE",
"506 551 LINE",
"670 551 LINE",
"670 622 LINE",
"0 622 LINE",
"0 551 LINE",
"426 551 LINE",
"426 453 LINE",
"387 447 OFFCURVE",
"354 429 OFFCURVE",
"330 400 CURVE",
"298 440 OFFCURVE",
"249 456 OFFCURVE",
"211 456 CURVE SMOOTH",
"115 456 OFFCURVE",
"60 381 OFFCURVE",
"60 290 CURVE SMOOTH",
"60 192 OFFCURVE",
"122 77 OFFCURVE",
"188 10 CURVE"
);
}
);
width = 660;
}
);
unicode = 11609;
category = Letter;
},
{
glyphname = E_iv;
lastChange = "2018-08-06 13:07:05 +0000";
layers = (
{
background = {
anchors = (
{
name = Dot;
position = "{701, 758}";
},
{
name = TopCtr;
position = "{485, 900}";
}
);
components = (
{
name = A_iv;
},
{
name = E_dv;
transform = "{1, 0, 0, 1, 675, 0}";
}
);
};
layerId = UUID0;
paths = (
{
closed = 1;
nodes = (
"0 551 LINE",
"132 551 LINE",
"121 543 OFFCURVE",
"111 534 OFFCURVE",
"102 525 CURVE",
"151 468 LINE",
"179 496 OFFCURVE",
"215 530 OFFCURVE",
"270 530 CURVE SMOOTH",
"312 530 OFFCURVE",
"333 500 OFFCURVE",
"333 470 CURVE SMOOTH",
"333 435 OFFCURVE",
"315 399 OFFCURVE",
"263 398 CURVE",
"263 333 LINE",
"273 333 LINE",
"334 328 OFFCURVE",
"342 289 OFFCURVE",
"342 266 CURVE SMOOTH",
"342 232 OFFCURVE",
"320 198 OFFCURVE",
"250 198 CURVE SMOOTH",
"216 198 OFFCURVE",
"128 209 OFFCURVE",
"99 350 CURVE",
"26 335 LINE",
"58 169 OFFCURVE",
"174 124 OFFCURVE",
"250 124 CURVE SMOOTH",
"263 124 LINE",
"289 51 OFFCURVE",
"363 -10 OFFCURVE",
"460 -10 CURVE SMOOTH",
"626 -10 OFFCURVE",
"676 124 OFFCURVE",
"676 282 CURVE SMOOTH",
"676 551 LINE",
"766 551 LINE",
"766 622 LINE",
"0 622 LINE"
);
},
{
closed = 1;
nodes = (
"408 63 OFFCURVE",
"360 99 OFFCURVE",
"341 141 CURVE",
"398 166 OFFCURVE",
"423 216 OFFCURVE",
"423 268 CURVE SMOOTH",
"423 299 OFFCURVE",
"407 341 OFFCURVE",
"368 369 CURVE",
"397 395 OFFCURVE",
"413 431 OFFCURVE",
"413 468 CURVE SMOOTH",
"413 498 OFFCURVE",
"403 527 OFFCURVE",
"385 551 CURVE",
"596 551 LINE",
"596 282 LINE SMOOTH",
"596 109 OFFCURVE",
"536 63 OFFCURVE",
"461 63 CURVE SMOOTH"
);
},
{
closed = 1;
nodes = (
"348 781 LINE",
"525 771 OFFCURVE",
"567 694 OFFCURVE",
"593 615 CURVE",
"675 615 LINE",
"650 717 OFFCURVE",
"569 848 OFFCURVE",
"329 848 CURVE"
);
}
);
width = 756;
}
);
unicode = 1160A;
category = Letter;
},
{
glyphname = AI_iv;
lastChange = "2018-08-06 13:07:05 +0000";
layers = (
{
background = {
anchors = (
{
name = Dot;
position = "{741, 758}";
},
{
name = TopCtr;
position = "{461, 900}";
}
);
components = (
{
name = A_iv;
},
{
name = AI_dv;
transform = "{1, 0, 0, 1, 675, 0}";
}
);
};
layerId = UUID0;
paths = (
{
closed = 1;
nodes = (
"0 551 LINE",
"132 551 LINE",
"121 543 OFFCURVE",
"111 534 OFFCURVE",
"102 525 CURVE",
"151 468 LINE",
"179 496 OFFCURVE",
"215 530 OFFCURVE",
"270 530 CURVE SMOOTH",
"312 530 OFFCURVE",
"333 500 OFFCURVE",
"333 470 CURVE SMOOTH",
"333 435 OFFCURVE",
"315 399 OFFCURVE",
"263 398 CURVE",
"263 333 LINE",
"273 333 LINE",
"334 328 OFFCURVE",
"342 289 OFFCURVE",
"342 266 CURVE SMOOTH",
"342 232 OFFCURVE",
"320 198 OFFCURVE",
"250 198 CURVE SMOOTH",
"216 198 OFFCURVE",
"128 209 OFFCURVE",
"99 350 CURVE",
"26 335 LINE",
"58 169 OFFCURVE",
"174 124 OFFCURVE",
"250 124 CURVE SMOOTH",
"263 124 LINE",
"289 51 OFFCURVE",
"363 -10 OFFCURVE",
"460 -10 CURVE SMOOTH",
"626 -10 OFFCURVE",
"676 124 OFFCURVE",
"676 282 CURVE SMOOTH",
"676 551 LINE",
"766 551 LINE",
"766 622 LINE",
"0 622 LINE"
);
},
{
closed = 1;
nodes = (
"408 63 OFFCURVE",
"360 99 OFFCURVE",
"341 141 CURVE",
"398 166 OFFCURVE",
"423 216 OFFCURVE",
"423 268 CURVE SMOOTH",
"423 299 OFFCURVE",
"407 341 OFFCURVE",
"368 369 CURVE",
"397 395 OFFCURVE",
"413 431 OFFCURVE",
"413 468 CURVE SMOOTH",
"413 498 OFFCURVE",
"403 527 OFFCURVE",
"385 551 CURVE",
"596 551 LINE",
"596 282 LINE SMOOTH",
"596 109 OFFCURVE",
"536 63 OFFCURVE",
"461 63 CURVE SMOOTH"
);
},
{
closed = 1;
nodes = (
"282 799 LINE",
"341 736 OFFCURVE",
"412 725 OFFCURVE",
"460 725 CURVE SMOOTH",
"501 725 OFFCURVE",
"542 735 OFFCURVE",
"573 749 CURVE",
"596 615 LINE",
"675 615 LINE",
"636 819 LINE",
"587 836 LINE",
"566 819 OFFCURVE",
"520 795 OFFCURVE",
"455 795 CURVE SMOOTH",
"409 795 OFFCURVE",
"364 818 OFFCURVE",
"331 847 CURVE"
);
}
);
width = 756;
}
);
unicode = 1160B;
category = Letter;
},
{
glyphname = O_iv;
lastChange = "2018-08-06 13:07:05 +0000";
layers = (
{
background = {
anchors = (
{
name = Dot;
position = "{683, 758}";
},
{
name = TopCtr;
position = "{447, 920}";
}
);
components = (
{
name = AA_iv;
},
{
name = E_dv;
transform = "{1, 0, 0, 1, 658, 0}";
}
);
};
layerId = UUID0;
paths = (
{
closed = 1;
nodes = (
"731 9 LINE",
"713 35 OFFCURVE",
"698 53 OFFCURVE",
"682 65 CURVE",
"646 123 OFFCURVE",
"623 196 OFFCURVE",
"623 355 CURVE SMOOTH",
"623 420 OFFCURVE",
"633 485 OFFCURVE",
"650 551 CURVE",
"745 551 LINE",
"745 622 LINE",
"0 622 LINE",
"0 551 LINE",
"81 551 LINE",
"62 527 OFFCURVE",
"50 497 OFFCURVE",
"50 462 CURVE SMOOTH",
"50 385 OFFCURVE",
"110 322 OFFCURVE",
"187 322 CURVE SMOOTH",
"200 322 OFFCURVE",
"212 323 OFFCURVE",
"223 327 CURVE",
"202 279 OFFCURVE",
"187 236 OFFCURVE",
"187 178 CURVE SMOOTH",
"187 39 OFFCURVE",
"286 -10 OFFCURVE",
"394 -10 CURVE SMOOTH",
"490 -10 OFFCURVE",
"529 20 OFFCURVE",
"587 20 CURVE SMOOTH",
"623 20 OFFCURVE",
"627 10 OFFCURVE",
"657 -21 CURVE"
);
},
{
closed = 1;
nodes = (
"542 239 OFFCURVE",
"556 151 OFFCURVE",
"583 90 CURVE",
"522 88 OFFCURVE",
"475 61 OFFCURVE",
"397 61 CURVE SMOOTH",
"305 61 OFFCURVE",
"268 102 OFFCURVE",
"268 179 CURVE SMOOTH",
"268 278 OFFCURVE",
"330 357 OFFCURVE",
"330 449 CURVE SMOOTH",
"330 484 OFFCURVE",
"321 522 OFFCURVE",
"299 551 CURVE",
"568 551 LINE",
"552 484 OFFCURVE",
"542 417 OFFCURVE",
"542 352 CURVE SMOOTH"
);
},
{
closed = 1;
nodes = (
"162 392 OFFCURVE",
"120 412 OFFCURVE",
"120 461 CURVE SMOOTH",
"120 502 OFFCURVE",
"151 533 OFFCURVE",
"190 533 CURVE SMOOTH",
"240 533 OFFCURVE",
"251 483 OFFCURVE",
"251 462 CURVE SMOOTH",
"251 444 OFFCURVE",
"249 427 OFFCURVE",
"247 412 CURVE",
"231 400 OFFCURVE",
"212 392 OFFCURVE",
"189 392 CURVE SMOOTH"
);
},
{
closed = 1;
nodes = (
"331 781 LINE",
"508 771 OFFCURVE",
"550 694 OFFCURVE",
"576 615 CURVE",
"658 615 LINE",
"633 717 OFFCURVE",
"552 848 OFFCURVE",
"312 848 CURVE"
);
}
);
width = 735;
}
);
unicode = 1160C;
category = Letter;
},
{
glyphname = AU_iv;
lastChange = "2018-08-06 13:07:05 +0000";
layers = (
{
background = {
anchors = (
{
name = Dot;
position = "{718, 758}";
},
{
name = TopCtr;
position = "{427, 900}";
}
);
components = (
{
name = AA_iv;
},
{
name = AI_dv;
transform = "{1, 0, 0, 1, 655, 0}";
}
);
};
layerId = UUID0;
paths = (
{
closed = 1;
nodes = (
"731 9 LINE",
"713 35 OFFCURVE",
"698 53 OFFCURVE",
"682 65 CURVE",
"646 123 OFFCURVE",
"623 196 OFFCURVE",
"623 355 CURVE SMOOTH",
"623 420 OFFCURVE",
"633 485 OFFCURVE",
"650 551 CURVE",
"745 551 LINE",
"745 622 LINE",
"0 622 LINE",
"0 551 LINE",
"81 551 LINE",
"62 527 OFFCURVE",
"50 497 OFFCURVE",
"50 462 CURVE SMOOTH",
"50 385 OFFCURVE",
"110 322 OFFCURVE",
"187 322 CURVE SMOOTH",
"200 322 OFFCURVE",
"212 323 OFFCURVE",
"223 327 CURVE",
"202 279 OFFCURVE",
"187 236 OFFCURVE",
"187 178 CURVE SMOOTH",
"187 39 OFFCURVE",
"286 -10 OFFCURVE",
"394 -10 CURVE SMOOTH",
"490 -10 OFFCURVE",
"529 20 OFFCURVE",
"587 20 CURVE SMOOTH",
"623 20 OFFCURVE",
"627 10 OFFCURVE",
"657 -21 CURVE"
);
},
{
closed = 1;
nodes = (
"542 239 OFFCURVE",
"556 151 OFFCURVE",
"583 90 CURVE",
"522 88 OFFCURVE",
"475 61 OFFCURVE",
"397 61 CURVE SMOOTH",
"305 61 OFFCURVE",
"268 102 OFFCURVE",
"268 179 CURVE SMOOTH",
"268 278 OFFCURVE",
"330 357 OFFCURVE",
"330 449 CURVE SMOOTH",
"330 484 OFFCURVE",
"321 522 OFFCURVE",
"299 551 CURVE",
"568 551 LINE",
"552 484 OFFCURVE",
"542 417 OFFCURVE",
"542 352 CURVE SMOOTH"
);
},
{
closed = 1;
nodes = (
"162 392 OFFCURVE",
"120 412 OFFCURVE",
"120 461 CURVE SMOOTH",
"120 502 OFFCURVE",
"151 533 OFFCURVE",
"190 533 CURVE SMOOTH",
"240 533 OFFCURVE",
"251 483 OFFCURVE",
"251 462 CURVE SMOOTH",
"251 444 OFFCURVE",
"249 427 OFFCURVE",
"247 412 CURVE",
"231 400 OFFCURVE",
"212 392 OFFCURVE",
"189 392 CURVE SMOOTH"
);
},
{
closed = 1;
nodes = (
"262 799 LINE",
"321 736 OFFCURVE",
"392 725 OFFCURVE",
"440 725 CURVE SMOOTH",
"481 725 OFFCURVE",
"522 735 OFFCURVE",
"553 749 CURVE",
"576 615 LINE",
"655 615 LINE",
"616 819 LINE",
"567 836 LINE",
"546 819 OFFCURVE",
"500 795 OFFCURVE",
"435 795 CURVE SMOOTH",
"389 795 OFFCURVE",
"344 818 OFFCURVE",
"311 847 CURVE"
);
}
);
width = 735;
}
);
unicode = 1160D;
category = Letter;
},
{
glyphname = Ka;
lastChange = "2018-08-06 13:07:07 +0000";
layers = (
{
background = {
anchors = (
{
name = Bottom;
position = "{491, -80}";
},
{
name = BtmCtr;
position = "{339, -80}";
},
{
name = Dot;
position = "{529, 718}";
},
{
name = Rakar;
position = "{447, 90}";
},
{
name = Top;
position = "{556, 622}";
},
{
name = TopCtr;
position = "{327, 718}";
},
{
name = Vattu;
position = "{532, -47}";
}
);
paths = (
{
closed = 1;
nodes = (
"0 551 LINE",
"101 551 LINE",
"57 493 OFFCURVE",
"40 452 OFFCURVE",
"40 395 CURVE SMOOTH",
"40 288 OFFCURVE",
"110 223 OFFCURVE",
"110 131 CURVE SMOOTH",
"110 101 OFFCURVE",
"103 56 OFFCURVE",
"93 16 CURVE",
"91 11 OFFCURVE",
"89 5 OFFCURVE",
"88 0 CURVE",
"165 0 LINE",
"198 141 OFFCURVE",
"292 176 OFFCURVE",
"411 178 CURVE",
"414 56 OFFCURVE",
"456 -10 OFFCURVE",
"533 -10 CURVE SMOOTH",
"618 -10 OFFCURVE",
"635 58 OFFCURVE",
"635 85 CURVE SMOOTH",
"635 143 OFFCURVE",
"587 214 OFFCURVE",
"492 239 CURVE",
"496 314 OFFCURVE",
"511 422 OFFCURVE",
"556 551 CURVE",
"665 551 LINE",
"665 622 LINE",
"0 622 LINE"
);
},
{
closed = 1;
nodes = (
"318 247 OFFCURVE",
"242 226 OFFCURVE",
"186 175 CURVE",
"171 257 OFFCURVE",
"120 318 OFFCURVE",
"120 402 CURVE SMOOTH",
"120 444 OFFCURVE",
"133 487 OFFCURVE",
"199 551 CURVE",
"474 551 LINE",
"443 455 OFFCURVE",
"421 335 OFFCURVE",
"413 248 CURVE"
);
},
{
closed = 1;
nodes = (
"560 81 OFFCURVE",
"552 60 OFFCURVE",
"534 60 CURVE SMOOTH",
"513 60 OFFCURVE",
"493 81 OFFCURVE",
"491 167 CURVE",
"542 149 OFFCURVE",
"560 112 OFFCURVE",
"560 89 CURVE SMOOTH"
);
}
);
};
layerId = UUID0;
paths = (
{
closed = 1;
nodes = (
"0 551 LINE",
"101 551 LINE",
"57 493 OFFCURVE",
"40 452 OFFCURVE",
"40 395 CURVE SMOOTH",
"40 288 OFFCURVE",
"110 223 OFFCURVE",
"110 131 CURVE SMOOTH",
"110 101 OFFCURVE",
"103 56 OFFCURVE",
"93 16 CURVE",
"91 11 OFFCURVE",
"89 5 OFFCURVE",
"88 0 CURVE",
"165 0 LINE",
"198 141 OFFCURVE",
"292 176 OFFCURVE",
"411 178 CURVE",
"414 56 OFFCURVE",
"456 -10 OFFCURVE",
"533 -10 CURVE SMOOTH",
"618 -10 OFFCURVE",
"635 58 OFFCURVE",
"635 85 CURVE SMOOTH",
"635 143 OFFCURVE",
"587 214 OFFCURVE",
"492 239 CURVE",
"496 314 OFFCURVE",
"511 422 OFFCURVE",
"556 551 CURVE",
"665 551 LINE",
"665 622 LINE",
"0 622 LINE"
);
},
{
closed = 1;
nodes = (
"318 247 OFFCURVE",
"242 226 OFFCURVE",
"186 175 CURVE",
"171 257 OFFCURVE",
"120 318 OFFCURVE",
"120 402 CURVE SMOOTH",
"120 444 OFFCURVE",
"133 487 OFFCURVE",
"199 551 CURVE",
"474 551 LINE",
"443 455 OFFCURVE",
"421 335 OFFCURVE",
"413 248 CURVE"
);
},
{
closed = 1;
nodes = (
"560 81 OFFCURVE",
"552 60 OFFCURVE",
"534 60 CURVE SMOOTH",
"513 60 OFFCURVE",
"493 81 OFFCURVE",
"491 167 CURVE",
"542 149 OFFCURVE",
"560 112 OFFCURVE",
"560 89 CURVE SMOOTH"
);
}
);
width = 655;
}
);
unicode = 1160E;
category = Letter;
},
{
glyphname = Kha;
lastChange = "2018-08-06 13:07:07 +0000";
layers = (
{
background = {
anchors = (
{
name = Bottom;
position = "{357, -80}";
},
{
name = BtmCtr;
position = "{357, -80}";
},
{
name = Dot;
position = "{534, 718}";
},
{
name = Rakar;
position = "{421, 61}";
},
{
name = Top;
position = "{646, 622}";
},
{
name = TopCtr;
position = "{498, 718}";
},
{
name = Vattu;
position = "{357, -70}";
}
);
paths = (
{
closed = 1;
nodes = (
"704 622 LINE",
"290 622 LINE",
"295 639 OFFCURVE",
"298 658 OFFCURVE",
"298 679 CURVE SMOOTH",
"298 744 OFFCURVE",
"256 800 OFFCURVE",
"166 800 CURVE SMOOTH",
"120 800 OFFCURVE",
"79 787 OFFCURVE",
"40 732 CURVE",
"101 692 LINE",
"113 710 OFFCURVE",
"139 728 OFFCURVE",
"164 728 CURVE SMOOTH",
"209 728 OFFCURVE",
"218 698 OFFCURVE",
"218 675 CURVE SMOOTH",
"218 656 OFFCURVE",
"213 639 OFFCURVE",
"206 622 CURVE",
"0 622 LINE",
"0 551 LINE",
"157 551 LINE",
"111 496 OFFCURVE",
"55 443 OFFCURVE",
"55 376 CURVE SMOOTH",
"55 329 OFFCURVE",
"81 269 OFFCURVE",
"171 262 CURVE",
"154 235 OFFCURVE",
"146 205 OFFCURVE",
"146 171 CURVE SMOOTH",
"146 67 OFFCURVE",
"221 -10 OFFCURVE",
"357 -10 CURVE SMOOTH",
"553 -10 OFFCURVE",
"634 155 OFFCURVE",
"634 310 CURVE SMOOTH",
"634 409 OFFCURVE",
"612 493 OFFCURVE",
"590 551 CURVE",
"704 551 LINE"
);
},
{
closed = 1;
nodes = (
"274 355 LINE",
"242 339 OFFCURVE",
"221 332 OFFCURVE",
"189 332 CURVE SMOOTH",
"156 332 OFFCURVE",
"135 346 OFFCURVE",
"135 376 CURVE SMOOTH",
"135 437 OFFCURVE",
"206 482 OFFCURVE",
"255 551 CURVE",
"509 551 LINE",
"531 495 OFFCURVE",
"554 407 OFFCURVE",
"554 311 CURVE SMOOTH",
"554 135 OFFCURVE",
"462 64 OFFCURVE",
"361 64 CURVE SMOOTH",
"264 64 OFFCURVE",
"226 123 OFFCURVE",
"226 172 CURVE SMOOTH",
"226 230 OFFCURVE",
"256 263 OFFCURVE",
"304 293 CURVE"
);
}
);
};
layerId = UUID0;
paths = (
{
closed = 1;
nodes = (
"704 622 LINE",
"290 622 LINE",
"295 639 OFFCURVE",
"298 658 OFFCURVE",
"298 679 CURVE SMOOTH",
"298 744 OFFCURVE",
"256 800 OFFCURVE",
"166 800 CURVE SMOOTH",
"120 800 OFFCURVE",
"79 787 OFFCURVE",
"40 732 CURVE",
"101 692 LINE",
"113 710 OFFCURVE",
"139 728 OFFCURVE",
"164 728 CURVE SMOOTH",
"209 728 OFFCURVE",
"218 698 OFFCURVE",
"218 675 CURVE SMOOTH",
"218 656 OFFCURVE",
"213 639 OFFCURVE",
"206 622 CURVE",
"0 622 LINE",
"0 551 LINE",
"157 551 LINE",
"111 496 OFFCURVE",
"55 443 OFFCURVE",
"55 376 CURVE SMOOTH",
"55 329 OFFCURVE",
"81 269 OFFCURVE",
"171 262 CURVE",
"154 235 OFFCURVE",
"146 205 OFFCURVE",
"146 171 CURVE SMOOTH",
"146 67 OFFCURVE",
"221 -10 OFFCURVE",
"357 -10 CURVE SMOOTH",
"553 -10 OFFCURVE",
"634 155 OFFCURVE",
"634 310 CURVE SMOOTH",
"634 409 OFFCURVE",
"612 493 OFFCURVE",
"590 551 CURVE",
"704 551 LINE"
);
},
{
closed = 1;
nodes = (
"274 355 LINE",
"242 339 OFFCURVE",
"221 332 OFFCURVE",
"189 332 CURVE SMOOTH",
"156 332 OFFCURVE",
"135 346 OFFCURVE",
"135 376 CURVE SMOOTH",
"135 437 OFFCURVE",
"206 482 OFFCURVE",
"255 551 CURVE",
"509 551 LINE",
"531 495 OFFCURVE",
"554 407 OFFCURVE",
"554 311 CURVE SMOOTH",
"554 135 OFFCURVE",
"462 64 OFFCURVE",
"361 64 CURVE SMOOTH",
"264 64 OFFCURVE",
"226 123 OFFCURVE",
"226 172 CURVE SMOOTH",
"226 230 OFFCURVE",
"256 263 OFFCURVE",
"304 293 CURVE"
);
}
);
width = 694;
}
);
unicode = 1160F;
category = Letter;
},
{
glyphname = Ga;
lastChange = "2018-08-06 13:07:01 +0000";
layers = (
{
background = {
anchors = (
{
name = Bottom;
position = "{502, 0}";
},
{
name = Dot;
position = "{537, 718}";
},
{
name = Rakar;
position = "{503, 160}";
},
{
name = Top;
position = "{582, 622}";
}
);
paths = (
{
closed = 1;
nodes = (
"582 551 LINE",
"672 551 LINE",
"672 622 LINE",
"0 622 LINE",
"0 551 LINE",
"187 551 LINE",
"222 459 OFFCURVE",
"237 361 OFFCURVE",
"242 289 CURVE",
"223 298 OFFCURVE",
"202 304 OFFCURVE",
"179 304 CURVE SMOOTH",
"94 304 OFFCURVE",
"40 251 OFFCURVE",
"40 176 CURVE SMOOTH",
"40 88 OFFCURVE",
"106 45 OFFCURVE",
"177 45 CURVE SMOOTH",
"288 45 OFFCURVE",
"325 145 OFFCURVE",
"325 236 CURVE SMOOTH",
"325 293 OFFCURVE",
"315 428 OFFCURVE",
"274 551 CURVE",
"502 551 LINE",
"502 0 LINE",
"582 0 LINE"
);
},
{
closed = 1;
nodes = (
"139 116 OFFCURVE",
"120 146 OFFCURVE",
"120 176 CURVE SMOOTH",
"120 213 OFFCURVE",
"152 233 OFFCURVE",
"180 233 CURVE SMOOTH",
"206 233 OFFCURVE",
"227 221 OFFCURVE",
"244 206 CURVE",
"240 165 OFFCURVE",
"223 116 OFFCURVE",
"177 116 CURVE SMOOTH"
);
}
);
};
layerId = UUID0;
paths = (
{
closed = 1;
nodes = (
"582 551 LINE",
"672 551 LINE",
"672 622 LINE",
"0 622 LINE",
"0 551 LINE",
"187 551 LINE",
"222 459 OFFCURVE",
"237 361 OFFCURVE",
"242 289 CURVE",
"223 298 OFFCURVE",
"202 304 OFFCURVE",
"179 304 CURVE SMOOTH",
"94 304 OFFCURVE",
"40 251 OFFCURVE",
"40 176 CURVE SMOOTH",
"40 88 OFFCURVE",
"106 45 OFFCURVE",
"177 45 CURVE SMOOTH",
"288 45 OFFCURVE",
"325 145 OFFCURVE",
"325 236 CURVE SMOOTH",
"325 293 OFFCURVE",
"315 428 OFFCURVE",
"274 551 CURVE",
"502 551 LINE",
"502 0 LINE",
"582 0 LINE"
);
},
{
closed = 1;
nodes = (
"139 116 OFFCURVE",
"120 146 OFFCURVE",
"120 176 CURVE SMOOTH",
"120 213 OFFCURVE",
"152 233 OFFCURVE",
"180 233 CURVE SMOOTH",
"206 233 OFFCURVE",
"227 221 OFFCURVE",
"244 206 CURVE",
"240 165 OFFCURVE",
"223 116 OFFCURVE",
"177 116 CURVE SMOOTH"
);
}
);
width = 662;
}
);
unicode = 11610;
category = Letter;
},
{
glyphname = Gha;
lastChange = "2018-08-06 13:07:01 +0000";
layers = (
{
background = {
anchors = (
{
name = Bottom;
position = "{476, 0}";
},
{
name = Dot;
position = "{511, 718}";
},
{
name = Rakar;
position = "{476, 120}";
},
{
name = Top;
position = "{556, 622}";
}
);
paths = (
{
closed = 1;
nodes = (
"556 551 LINE",
"646 551 LINE",
"646 622 LINE",
"0 622 LINE",
"0 551 LINE",
"75 551 LINE",
"51 514 OFFCURVE",
"40 476 OFFCURVE",
"40 444 CURVE SMOOTH",
"40 391 OFFCURVE",
"70 349 OFFCURVE",
"127 333 CURVE",
"102 306 OFFCURVE",
"91 275 OFFCURVE",
"91 232 CURVE SMOOTH",
"91 130 OFFCURVE",
"175 89 OFFCURVE",
"269 89 CURVE SMOOTH",
"343 89 OFFCURVE",
"421 117 OFFCURVE",
"476 161 CURVE",
"476 0 LINE",
"556 0 LINE"
);
},
{
closed = 1;
nodes = (
"253 414 LINE",
"231 404 OFFCURVE",
"212 397 OFFCURVE",
"190 397 CURVE SMOOTH",
"141 397 OFFCURVE",
"120 423 OFFCURVE",
"120 456 CURVE SMOOTH",
"120 487 OFFCURVE",
"139 524 OFFCURVE",
"173 551 CURVE",
"476 551 LINE",
"476 251 LINE",
"427 198 OFFCURVE",
"336 160 OFFCURVE",
"266 160 CURVE SMOOTH",
"213 160 OFFCURVE",
"172 182 OFFCURVE",
"172 238 CURVE SMOOTH",
"172 277 OFFCURVE",
"199 320 OFFCURVE",
"261 345 CURVE SMOOTH",
"276 351 LINE"
);
}
);
};
layerId = UUID0;
paths = (
{
closed = 1;
nodes = (
"556 551 LINE",
"646 551 LINE",
"646 622 LINE",
"0 622 LINE",
"0 551 LINE",
"75 551 LINE",
"51 514 OFFCURVE",
"40 476 OFFCURVE",
"40 444 CURVE SMOOTH",
"40 391 OFFCURVE",
"70 349 OFFCURVE",
"127 333 CURVE",
"102 306 OFFCURVE",
"91 275 OFFCURVE",
"91 232 CURVE SMOOTH",
"91 130 OFFCURVE",
"175 89 OFFCURVE",
"269 89 CURVE SMOOTH",
"343 89 OFFCURVE",
"421 117 OFFCURVE",
"476 161 CURVE",
"476 0 LINE",
"556 0 LINE"
);
},
{
closed = 1;
nodes = (
"253 414 LINE",
"231 404 OFFCURVE",
"212 397 OFFCURVE",
"190 397 CURVE SMOOTH",
"141 397 OFFCURVE",
"120 423 OFFCURVE",
"120 456 CURVE SMOOTH",
"120 487 OFFCURVE",
"139 524 OFFCURVE",
"173 551 CURVE",
"476 551 LINE",
"476 251 LINE",
"427 198 OFFCURVE",
"336 160 OFFCURVE",
"266 160 CURVE SMOOTH",
"213 160 OFFCURVE",
"172 182 OFFCURVE",
"172 238 CURVE SMOOTH",
"172 277 OFFCURVE",
"199 320 OFFCURVE",
"261 345 CURVE SMOOTH",
"276 351 LINE"
);
}
);
width = 636;
}
);
unicode = 11611;
category = Letter;
},
{
glyphname = Nga;
lastChange = "2018-08-06 13:07:07 +0000";
layers = (
{
background = {
anchors = (
{
name = Bottom;
position = "{319, -80}";
},
{
name = BtmCtr;
position = "{355, -80}";
},
{
name = Dot;
position = "{462, 718}";
},
{
name = Rakar;
position = "{390, 54}";
},
{
name = Top;
position = "{556, 622}";
},
{
name = Vattu;
position = "{358, -70}";
}
);
paths = (
{
closed = 1;
nodes = (
"670 622 LINE",
"0 622 LINE",
"0 551 LINE",
"315 551 LINE",
"234 497 OFFCURVE",
"180 436 OFFCURVE",
"180 363 CURVE SMOOTH",
"180 280 OFFCURVE",
"247 249 OFFCURVE",
"308 249 CURVE SMOOTH",
"344 249 OFFCURVE",
"377 259 OFFCURVE",
"397 259 CURVE SMOOTH",
"476 259 OFFCURVE",
"490 217 OFFCURVE",
"490 173 CURVE SMOOTH",
"490 118 OFFCURVE",
"449 64 OFFCURVE",
"355 64 CURVE SMOOTH",
"250 64 OFFCURVE",
"166 120 OFFCURVE",
"93 277 CURVE",
"24 243 LINE",
"115 57 OFFCURVE",
"223 -10 OFFCURVE",
"358 -10 CURVE SMOOTH",
"498 -10 OFFCURVE",
"570 82 OFFCURVE",
"570 170 CURVE SMOOTH",
"570 271 OFFCURVE",
"517 330 OFFCURVE",
"411 330 CURVE SMOOTH",
"377 330 OFFCURVE",
"342 320 OFFCURVE",
"319 320 CURVE SMOOTH",
"287 320 OFFCURVE",
"260 331 OFFCURVE",
"260 365 CURVE SMOOTH",
"260 417 OFFCURVE",
"322 492 OFFCURVE",
"453 551 CURVE",
"670 551 LINE"
);
},
{
closed = 1;
nodes = (
"506 482 OFFCURVE",
"482 458 OFFCURVE",
"482 427 CURVE SMOOTH",
"482 398 OFFCURVE",
"506 372 OFFCURVE",
"534 372 CURVE SMOOTH",
"562 372 OFFCURVE",
"586 398 OFFCURVE",
"586 427 CURVE SMOOTH",
"586 458 OFFCURVE",
"562 482 OFFCURVE",
"534 482 CURVE SMOOTH"
);
}
);
};
layerId = UUID0;
paths = (
{
closed = 1;
nodes = (
"670 622 LINE",
"0 622 LINE",
"0 551 LINE",
"315 551 LINE",
"234 497 OFFCURVE",
"180 436 OFFCURVE",
"180 363 CURVE SMOOTH",
"180 280 OFFCURVE",
"247 249 OFFCURVE",
"308 249 CURVE SMOOTH",
"344 249 OFFCURVE",
"377 259 OFFCURVE",
"397 259 CURVE SMOOTH",
"476 259 OFFCURVE",
"490 217 OFFCURVE",
"490 173 CURVE SMOOTH",
"490 118 OFFCURVE",
"449 64 OFFCURVE",
"355 64 CURVE SMOOTH",
"250 64 OFFCURVE",
"166 120 OFFCURVE",
"93 277 CURVE",
"24 243 LINE",
"115 57 OFFCURVE",
"223 -10 OFFCURVE",
"358 -10 CURVE SMOOTH",
"498 -10 OFFCURVE",
"570 82 OFFCURVE",
"570 170 CURVE SMOOTH",
"570 271 OFFCURVE",
"517 330 OFFCURVE",
"411 330 CURVE SMOOTH",
"377 330 OFFCURVE",
"342 320 OFFCURVE",
"319 320 CURVE SMOOTH",
"287 320 OFFCURVE",
"260 331 OFFCURVE",
"260 365 CURVE SMOOTH",
"260 417 OFFCURVE",
"322 492 OFFCURVE",
"453 551 CURVE",
"670 551 LINE"
);
},
{
closed = 1;
nodes = (
"506 482 OFFCURVE",
"482 458 OFFCURVE",
"482 427 CURVE SMOOTH",
"482 398 OFFCURVE",
"506 372 OFFCURVE",
"534 372 CURVE SMOOTH",
"562 372 OFFCURVE",
"586 398 OFFCURVE",
"586 427 CURVE SMOOTH",
"586 458 OFFCURVE",
"562 482 OFFCURVE",
"534 482 CURVE SMOOTH"
);
}
);
width = 660;
}
);
unicode = 11612;
category = Letter;
},
{
glyphname = Ca;
lastChange = "2018-08-06 13:07:07 +0000";
layers = (
{
background = {
anchors = (
{
name = Bottom;
position = "{379, -80}";
},
{
name = BtmCtr;
position = "{382, -80}";
},
{
name = Dot;
position = "{493, 718}";
},
{
name = Rakar;
position = "{395, 54}";
},
{
name = Top;
position = "{520, 622}";
},
{
name = Vattu;
position = "{382, -70}";
}
);
paths = (
{
closed = 1;
nodes = (
"655 622 LINE",
"0 622 LINE",
"0 551 LINE",
"458 551 LINE",
"487 530 OFFCURVE",
"504 497 OFFCURVE",
"504 463 CURVE SMOOTH",
"504 411 OFFCURVE",
"467 364 OFFCURVE",
"382 364 CURVE SMOOTH",
"379 364 OFFCURVE",
"372 365 OFFCURVE",
"369 365 CURVE",
"364 295 LINE",
"457 292 OFFCURVE",
"493 237 OFFCURVE",
"493 181 CURVE SMOOTH",
"493 123 OFFCURVE",
"451 64 OFFCURVE",
"385 64 CURVE SMOOTH",
"256 64 OFFCURVE",
"217 231 OFFCURVE",
"72 231 CURVE SMOOTH",
"45 231 OFFCURVE",
"29 226 OFFCURVE",
"10 218 CURVE",
"31 150 LINE",
"45 155 OFFCURVE",
"58 159 OFFCURVE",
"72 159 CURVE SMOOTH",
"171 159 OFFCURVE",
"216 -10 OFFCURVE",
"383 -10 CURVE SMOOTH",
"503 -10 OFFCURVE",
"573 72 OFFCURVE",
"573 180 CURVE SMOOTH",
"573 237 OFFCURVE",
"548 291 OFFCURVE",
"492 328 CURVE",
"545 354 OFFCURVE",
"585 397 OFFCURVE",
"585 464 CURVE SMOOTH",
"585 494 OFFCURVE",
"575 525 OFFCURVE",
"556 551 CURVE",
"655 551 LINE"
);
}
);
};
layerId = UUID0;
paths = (
{
closed = 1;
nodes = (
"655 622 LINE",
"0 622 LINE",
"0 551 LINE",
"458 551 LINE",
"487 530 OFFCURVE",
"504 497 OFFCURVE",
"504 463 CURVE SMOOTH",
"504 411 OFFCURVE",
"467 364 OFFCURVE",
"382 364 CURVE SMOOTH",
"379 364 OFFCURVE",
"377 364 OFFCURVE",
"369 365 CURVE",
"364 295 LINE",
"457 292 OFFCURVE",
"493 237 OFFCURVE",
"493 181 CURVE SMOOTH",
"493 123 OFFCURVE",
"451 64 OFFCURVE",
"385 64 CURVE SMOOTH",
"256 64 OFFCURVE",
"217 231 OFFCURVE",
"72 231 CURVE SMOOTH",
"45 231 OFFCURVE",
"29 226 OFFCURVE",
"10 218 CURVE",
"31 150 LINE",
"45 155 OFFCURVE",
"58 159 OFFCURVE",
"72 159 CURVE SMOOTH",
"171 159 OFFCURVE",
"216 -10 OFFCURVE",
"383 -10 CURVE SMOOTH",
"503 -10 OFFCURVE",
"573 72 OFFCURVE",
"573 180 CURVE SMOOTH",
"573 237 OFFCURVE",
"548 291 OFFCURVE",
"492 328 CURVE",
"545 354 OFFCURVE",
"585 397 OFFCURVE",
"585 464 CURVE SMOOTH",
"585 494 OFFCURVE",
"575 525 OFFCURVE",
"556 551 CURVE",
"655 551 LINE"
);
}
);
width = 645;
}
);
unicode = 11613;
category = Letter;
},
{
glyphname = Cha;
lastChange = "2018-08-06 13:07:07 +0000";
layers = (
{
background = {
anchors = (
{
name = Bottom;
position = "{354, -80}";
},
{
name = BtmCtr;
position = "{353, -80}";
},
{
name = Dot;
position = "{532, 718}";
},
{
name = Rakar;
position = "{383, 54}";
},
{
name = Top;
position = "{546, 622}";
},
{
name = TopCtr;
position = "{348, 718}";
},
{
name = Vattu;
position = "{353, -70}";
}
);
paths = (
{
closed = 1;
nodes = (
"706 622 LINE",
"0 622 LINE",
"0 551 LINE",
"85 551 LINE",
"52 513 OFFCURVE",
"40 470 OFFCURVE",
"40 431 CURVE SMOOTH",
"40 354 OFFCURVE",
"88 317 OFFCURVE",
"147 306 CURVE",
"120 269 OFFCURVE",
"108 226 OFFCURVE",
"108 183 CURVE SMOOTH",
"108 84 OFFCURVE",
"173 -10 OFFCURVE",
"354 -10 CURVE SMOOTH",
"526 -10 OFFCURVE",
"616 110 OFFCURVE",
"616 302 CURVE SMOOTH",
"616 412 LINE SMOOTH",
"616 463 OFFCURVE",
"604 514 OFFCURVE",
"577 551 CURVE",
"706 551 LINE"
);
},
{
closed = 1;
nodes = (
"255 383 LINE",
"236 376 OFFCURVE",
"221 370 OFFCURVE",
"202 370 CURVE SMOOTH",
"145 370 OFFCURVE",
"120 399 OFFCURVE",
"120 436 CURVE SMOOTH",
"120 473 OFFCURVE",
"141 517 OFFCURVE",
"178 551 CURVE",
"364 551 LINE",
"348 530 OFFCURVE",
"338 503 OFFCURVE",
"338 470 CURVE SMOOTH",
"338 395 OFFCURVE",
"389 345 OFFCURVE",
"474 345 CURVE SMOOTH",
"497 345 OFFCURVE",
"518 350 OFFCURVE",
"536 359 CURVE",
"536 308 LINE SMOOTH",
"536 143 OFFCURVE",
"471 64 OFFCURVE",
"353 64 CURVE SMOOTH",
"234 64 OFFCURVE",
"188 123 OFFCURVE",
"188 185 CURVE SMOOTH",
"188 237 OFFCURVE",
"214 289 OFFCURVE",
"281 317 CURVE"
);
},
{
closed = 1;
nodes = (
"446 413 OFFCURVE",
"416 433 OFFCURVE",
"416 471 CURVE SMOOTH",
"416 501 OFFCURVE",
"433 532 OFFCURVE",
"472 532 CURVE SMOOTH",
"521 532 OFFCURVE",
"532 478 OFFCURVE",
"534 435 CURVE",
"519 422 OFFCURVE",
"500 413 OFFCURVE",
"475 413 CURVE SMOOTH"
);
}
);
};
layerId = UUID0;
paths = (
{
closed = 1;
nodes = (
"706 622 LINE",
"0 622 LINE",
"0 551 LINE",
"85 551 LINE",
"52 513 OFFCURVE",
"40 470 OFFCURVE",
"40 431 CURVE SMOOTH",
"40 354 OFFCURVE",
"88 317 OFFCURVE",
"147 306 CURVE",
"120 269 OFFCURVE",
"108 226 OFFCURVE",
"108 183 CURVE SMOOTH",
"108 84 OFFCURVE",
"173 -10 OFFCURVE",
"354 -10 CURVE SMOOTH",
"526 -10 OFFCURVE",
"616 110 OFFCURVE",
"616 302 CURVE SMOOTH",
"616 412 LINE SMOOTH",
"616 463 OFFCURVE",
"604 514 OFFCURVE",
"577 551 CURVE",
"706 551 LINE"
);
},
{
closed = 1;
nodes = (
"255 383 LINE",
"237 376 OFFCURVE",
"221 370 OFFCURVE",
"202 370 CURVE SMOOTH",
"145 370 OFFCURVE",
"120 399 OFFCURVE",
"120 436 CURVE SMOOTH",
"120 473 OFFCURVE",
"141 517 OFFCURVE",
"178 551 CURVE",
"364 551 LINE",
"348 530 OFFCURVE",
"338 503 OFFCURVE",
"338 470 CURVE SMOOTH",
"338 395 OFFCURVE",
"389 345 OFFCURVE",
"474 345 CURVE SMOOTH",
"497 345 OFFCURVE",
"518 350 OFFCURVE",
"536 359 CURVE",
"536 308 LINE SMOOTH",
"536 143 OFFCURVE",
"471 64 OFFCURVE",
"353 64 CURVE SMOOTH",
"234 64 OFFCURVE",
"188 123 OFFCURVE",
"188 185 CURVE SMOOTH",
"188 237 OFFCURVE",
"214 289 OFFCURVE",
"281 317 CURVE"
);
},
{
closed = 1;
nodes = (
"446 413 OFFCURVE",
"416 433 OFFCURVE",
"416 471 CURVE SMOOTH",
"416 501 OFFCURVE",
"433 532 OFFCURVE",
"472 532 CURVE SMOOTH",
"521 532 OFFCURVE",
"532 478 OFFCURVE",
"534 435 CURVE",
"519 422 OFFCURVE",
"500 413 OFFCURVE",
"475 413 CURVE SMOOTH"
);
}
);
width = 696;
}
);
unicode = 11614;
category = Letter;
},
{
glyphname = Ja;
lastChange = "2018-08-06 13:07:07 +0000";
layers = (
{
background = {
anchors = (
{
name = Bottom;
position = "{363, -80}";
},
{
name = BtmCtr;
position = "{365, -80}";
},
{
name = Dot;
position = "{512, 718}";
},
{
name = Rakar;
position = "{383, 52}";
},
{
name = Top;
position = "{585, 622}";
},
{
name = TopCtr;
position = "{375, 718}";
},
{
name = Vattu;
position = "{365, -70}";
}
);
paths = (
{
closed = 1;
nodes = (
"658 622 LINE",
"0 622 LINE",
"0 551 LINE",
"104 551 LINE",
"72 529 OFFCURVE",
"50 492 OFFCURVE",
"50 447 CURVE SMOOTH",
"50 370 OFFCURVE",
"108 323 OFFCURVE",
"174 323 CURVE SMOOTH",
"232 323 OFFCURVE",
"274 363 OFFCURVE",
"287 393 CURVE",
"328 322 LINE",
"265 240 OFFCURVE",
"227 176 OFFCURVE",
"227 113 CURVE SMOOTH",
"227 54 OFFCURVE",
"264 -10 OFFCURVE",
"365 -10 CURVE SMOOTH",
"470 -10 OFFCURVE",
"506 48 OFFCURVE",
"506 120 CURVE SMOOTH",
"506 148 OFFCURVE",
"480 212 OFFCURVE",
"437 282 CURVE SMOOTH",
"413 320 LINE",
"445 361 OFFCURVE",
"484 408 OFFCURVE",
"531 463 CURVE SMOOTH",
"605 551 LINE",
"658 551 LINE"
);
},
{
closed = 1;
nodes = (
"512 551 LINE",
"375 382 LINE",
"336 451 OFFCURVE",
"297 517 OFFCURVE",
"244 551 CURVE",
"244 551 LINE"
);
},
{
closed = 1;
nodes = (
"409 189 OFFCURVE",
"428 150 OFFCURVE",
"428 123 CURVE SMOOTH",
"428 86 OFFCURVE",
"413 62 OFFCURVE",
"363 62 CURVE SMOOTH",
"331 62 OFFCURVE",
"305 87 OFFCURVE",
"305 123 CURVE SMOOTH",
"305 156 OFFCURVE",
"325 198 OFFCURVE",
"366 257 CURVE"
);
},
{
closed = 1;
nodes = (
"196 501 OFFCURVE",
"217 487 OFFCURVE",
"240 460 CURVE",
"234 427 OFFCURVE",
"219 392 OFFCURVE",
"177 392 CURVE SMOOTH",
"160 392 OFFCURVE",
"123 406 OFFCURVE",
"123 446 CURVE SMOOTH",
"123 483 OFFCURVE",
"154 501 OFFCURVE",
"173 501 CURVE SMOOTH"
);
}
);
};
layerId = UUID0;
paths = (
{
closed = 1;
nodes = (
"658 622 LINE",
"0 622 LINE",
"0 551 LINE",
"104 551 LINE",
"72 529 OFFCURVE",
"50 492 OFFCURVE",
"50 447 CURVE SMOOTH",
"50 370 OFFCURVE",
"108 323 OFFCURVE",
"174 323 CURVE SMOOTH",
"232 323 OFFCURVE",
"274 363 OFFCURVE",
"287 393 CURVE",
"328 322 LINE",
"265 240 OFFCURVE",
"227 176 OFFCURVE",
"227 113 CURVE SMOOTH",
"227 54 OFFCURVE",
"264 -10 OFFCURVE",
"365 -10 CURVE SMOOTH",
"470 -10 OFFCURVE",
"506 48 OFFCURVE",
"506 120 CURVE SMOOTH",
"506 148 OFFCURVE",
"480 212 OFFCURVE",
"437 282 CURVE SMOOTH",
"413 320 LINE",
"445 361 OFFCURVE",
"484 408 OFFCURVE",
"531 463 CURVE SMOOTH",
"605 551 LINE",
"658 551 LINE"
);
},
{
closed = 1;
nodes = (
"512 551 LINE",
"375 382 LINE",
"336 451 OFFCURVE",
"297 517 OFFCURVE",
"244 551 CURVE"
);
},
{
closed = 1;
nodes = (
"409 189 OFFCURVE",
"428 150 OFFCURVE",
"428 123 CURVE SMOOTH",
"428 86 OFFCURVE",
"413 62 OFFCURVE",
"363 62 CURVE SMOOTH",
"331 62 OFFCURVE",
"305 87 OFFCURVE",
"305 123 CURVE SMOOTH",
"305 156 OFFCURVE",
"325 198 OFFCURVE",
"366 257 CURVE"
);
},
{
closed = 1;
nodes = (
"196 501 OFFCURVE",
"217 487 OFFCURVE",
"240 460 CURVE",
"234 427 OFFCURVE",
"219 392 OFFCURVE",
"177 392 CURVE SMOOTH",
"160 392 OFFCURVE",
"123 406 OFFCURVE",
"123 446 CURVE SMOOTH",
"123 483 OFFCURVE",
"154 501 OFFCURVE",
"173 501 CURVE SMOOTH"
);
}
);
width = 618;
}
);
unicode = 11615;
category = Letter;
},
{
glyphname = Jha;
lastChange = "2018-08-06 13:07:07 +0000";
layers = (
{
background = {
anchors = (
{
name = Bottom;
position = "{566, -80}";
},
{
name = BtmCtr;
position = "{375, -80}";
},
{
name = Dot;
position = "{595, 718}";
},
{
name = Rakar;
position = "{522, 90}";
},
{
name = Top;
position = "{631, 622}";
},
{
name = Vattu;
position = "{608, -47}";
}
);
paths = (
{
closed = 1;
nodes = (
"0 551 LINE",
"161 551 LINE",
"100 504 OFFCURVE",
"60 449 OFFCURVE",
"60 386 CURVE SMOOTH",
"60 312 OFFCURVE",
"120 278 OFFCURVE",
"169 278 CURVE SMOOTH",
"199 278 OFFCURVE",
"215 287 OFFCURVE",
"253 287 CURVE SMOOTH",
"294 287 OFFCURVE",
"306 255 OFFCURVE",
"306 216 CURVE SMOOTH",
"306 189 OFFCURVE",
"288 157 OFFCURVE",
"262 129 CURVE",
"224 168 OFFCURVE",
"182 195 OFFCURVE",
"124 195 CURVE SMOOTH",
"87 195 OFFCURVE",
"5 179 OFFCURVE",
"5 88 CURVE SMOOTH",
"5 29 OFFCURVE",
"61 -10 OFFCURVE",
"120 -10 CURVE SMOOTH",
"235 -10 OFFCURVE",
"346 73 OFFCURVE",
"378 163 CURVE",
"411 173 OFFCURVE",
"448 177 OFFCURVE",
"486 178 CURVE",
"489 56 OFFCURVE",
"531 -10 OFFCURVE",
"608 -10 CURVE SMOOTH",
"693 -10 OFFCURVE",
"710 58 OFFCURVE",
"710 85 CURVE SMOOTH",
"710 143 OFFCURVE",
"662 214 OFFCURVE",
"567 239 CURVE",
"571 314 OFFCURVE",
"586 422 OFFCURVE",
"631 551 CURVE",
"740 551 LINE",
"740 622 LINE",
"0 622 LINE"
);
},
{
closed = 1;
nodes = (
"225 357 OFFCURVE",
"207 348 OFFCURVE",
"188 348 CURVE SMOOTH",
"163 348 OFFCURVE",
"140 358 OFFCURVE",
"140 388 CURVE SMOOTH",
"140 434 OFFCURVE",
"189 499 OFFCURVE",
"289 551 CURVE",
"549 551 LINE",
"518 455 OFFCURVE",
"496 335 OFFCURVE",
"488 248 CURVE",
"452 247 OFFCURVE",
"417 244 OFFCURVE",
"385 237 CURVE",
"377 313 OFFCURVE",
"330 357 OFFCURVE",
"262 357 CURVE SMOOTH"
);
},
{
closed = 1;
nodes = (
"95 60 OFFCURVE",
"81 77 OFFCURVE",
"81 90 CURVE SMOOTH",
"81 116 OFFCURVE",
"106 125 OFFCURVE",
"128 125 CURVE SMOOTH",
"152 125 OFFCURVE",
"177 108 OFFCURVE",
"203 83 CURVE",
"178 69 OFFCURVE",
"152 60 OFFCURVE",
"127 60 CURVE SMOOTH"
);
},
{
closed = 1;
nodes = (
"635 81 OFFCURVE",
"627 60 OFFCURVE",
"609 60 CURVE SMOOTH",
"588 60 OFFCURVE",
"568 81 OFFCURVE",
"566 167 CURVE",
"617 149 OFFCURVE",
"635 112 OFFCURVE",
"635 89 CURVE SMOOTH"
);
}
);
};
layerId = UUID0;
paths = (
{
closed = 1;
nodes = (
"0 551 LINE",
"161 551 LINE",
"100 504 OFFCURVE",
"60 449 OFFCURVE",
"60 386 CURVE SMOOTH",
"60 312 OFFCURVE",
"120 278 OFFCURVE",
"169 278 CURVE SMOOTH",
"199 278 OFFCURVE",
"215 287 OFFCURVE",
"253 287 CURVE SMOOTH",
"294 287 OFFCURVE",
"306 255 OFFCURVE",
"306 216 CURVE SMOOTH",
"306 189 OFFCURVE",
"288 157 OFFCURVE",
"262 129 CURVE",
"224 168 OFFCURVE",
"182 195 OFFCURVE",
"124 195 CURVE SMOOTH",
"87 195 OFFCURVE",
"5 179 OFFCURVE",
"5 88 CURVE SMOOTH",
"5 29 OFFCURVE",
"61 -10 OFFCURVE",
"120 -10 CURVE SMOOTH",
"235 -10 OFFCURVE",
"346 73 OFFCURVE",
"378 163 CURVE",
"411 173 OFFCURVE",
"448 177 OFFCURVE",
"486 178 CURVE",
"489 56 OFFCURVE",
"531 -10 OFFCURVE",
"608 -10 CURVE SMOOTH",
"693 -10 OFFCURVE",
"710 58 OFFCURVE",
"710 85 CURVE SMOOTH",
"710 143 OFFCURVE",
"662 214 OFFCURVE",
"567 239 CURVE",
"571 314 OFFCURVE",
"586 422 OFFCURVE",
"631 551 CURVE",
"740 551 LINE",
"740 622 LINE",
"0 622 LINE"
);
},
{
closed = 1;
nodes = (
"225 357 OFFCURVE",
"207 348 OFFCURVE",
"188 348 CURVE SMOOTH",
"163 348 OFFCURVE",
"140 358 OFFCURVE",
"140 388 CURVE SMOOTH",
"140 434 OFFCURVE",
"189 499 OFFCURVE",
"289 551 CURVE",
"549 551 LINE",
"518 455 OFFCURVE",
"496 335 OFFCURVE",
"488 248 CURVE",
"452 247 OFFCURVE",
"417 244 OFFCURVE",
"385 237 CURVE",
"377 313 OFFCURVE",
"330 357 OFFCURVE",
"262 357 CURVE SMOOTH"
);
},
{
closed = 1;
nodes = (
"95 60 OFFCURVE",
"81 77 OFFCURVE",
"81 90 CURVE SMOOTH",
"81 116 OFFCURVE",
"106 125 OFFCURVE",
"128 125 CURVE SMOOTH",
"152 125 OFFCURVE",
"177 108 OFFCURVE",
"203 83 CURVE",
"178 69 OFFCURVE",
"152 60 OFFCURVE",
"127 60 CURVE SMOOTH"
);
},
{
closed = 1;
nodes = (
"635 81 OFFCURVE",
"627 60 OFFCURVE",
"609 60 CURVE SMOOTH",
"588 60 OFFCURVE",
"568 81 OFFCURVE",
"566 167 CURVE",
"617 149 OFFCURVE",
"635 112 OFFCURVE",
"635 89 CURVE SMOOTH"
);
}
);
width = 730;
}
);
unicode = 11616;
category = Letter;
},
{
glyphname = Nya;
lastChange = "2018-08-06 13:07:07 +0000";
layers = (
{
background = {
anchors = (
{
name = Bottom;
position = "{573, -80}";
},
{
name = BtmCtr;
position = "{391, -80}";
},
{
name = Dot;
position = "{600, 718}";
},
{
name = Rakar;
position = "{519, 90}";
},
{
name = Top;
position = "{637, 622}";
},
{
name = Vattu;
position = "{615, -47}";
}
);
paths = (
{
closed = 1;
nodes = (
"20 186 LINE",
"65 106 OFFCURVE",
"124 50 OFFCURVE",
"218 50 CURVE SMOOTH",
"297 50 OFFCURVE",
"391 97 OFFCURVE",
"399 209 CURVE",
"426 206 OFFCURVE",
"454 203 OFFCURVE",
"483 196 CURVE",
"483 62 OFFCURVE",
"529 -10 OFFCURVE",
"614 -10 CURVE SMOOTH",
"699 -10 OFFCURVE",
"716 58 OFFCURVE",
"716 85 CURVE SMOOTH",
"716 165 OFFCURVE",
"650 217 OFFCURVE",
"566 247 CURVE",
"573 322 OFFCURVE",
"593 427 OFFCURVE",
"637 551 CURVE",
"746 551 LINE",
"746 622 LINE",
"0 622 LINE",
"0 551 LINE",
"555 551 LINE",
"525 462 OFFCURVE",
"500 354 OFFCURVE",
"489 269 CURVE",
"456 276 OFFCURVE",
"423 280 OFFCURVE",
"391 282 CURVE",
"368 348 OFFCURVE",
"305 387 OFFCURVE",
"231 387 CURVE SMOOTH",
"185 387 OFFCURVE",
"150 377 OFFCURVE",
"122 369 CURVE",
"141 303 LINE",
"161 309 OFFCURVE",
"200 317 OFFCURVE",
"229 317 CURVE SMOOTH",
"283 317 OFFCURVE",
"320 284 OFFCURVE",
"320 223 CURVE SMOOTH",
"320 161 OFFCURVE",
"280 120 OFFCURVE",
"220 120 CURVE SMOOTH",
"158 120 OFFCURVE",
"110 166 OFFCURVE",
"76 226 CURVE"
);
},
{
closed = 1;
nodes = (
"641 81 OFFCURVE",
"633 60 OFFCURVE",
"615 60 CURVE SMOOTH",
"592 60 OFFCURVE",
"565 82 OFFCURVE",
"563 170 CURVE",
"608 151 OFFCURVE",
"641 124 OFFCURVE",
"641 89 CURVE SMOOTH"
);
}
);
};
layerId = UUID0;
paths = (
{
closed = 1;
nodes = (
"20 186 LINE",
"65 106 OFFCURVE",
"124 50 OFFCURVE",
"218 50 CURVE SMOOTH",
"297 50 OFFCURVE",
"391 97 OFFCURVE",
"399 209 CURVE",
"427 206 OFFCURVE",
"454 203 OFFCURVE",
"483 196 CURVE",
"483 62 OFFCURVE",
"529 -10 OFFCURVE",
"614 -10 CURVE SMOOTH",
"699 -10 OFFCURVE",
"716 58 OFFCURVE",
"716 85 CURVE SMOOTH",
"716 165 OFFCURVE",
"650 217 OFFCURVE",
"566 247 CURVE",
"573 322 OFFCURVE",
"593 427 OFFCURVE",
"637 551 CURVE",
"746 551 LINE",
"746 622 LINE",
"0 622 LINE",
"0 551 LINE",
"555 551 LINE",
"525 462 OFFCURVE",
"500 354 OFFCURVE",
"489 269 CURVE",
"456 276 OFFCURVE",
"423 280 OFFCURVE",
"391 282 CURVE",
"368 348 OFFCURVE",
"305 387 OFFCURVE",
"231 387 CURVE SMOOTH",
"185 387 OFFCURVE",
"150 377 OFFCURVE",
"122 369 CURVE",
"141 303 LINE",
"161 309 OFFCURVE",
"200 317 OFFCURVE",
"229 317 CURVE SMOOTH",
"283 317 OFFCURVE",
"320 284 OFFCURVE",
"320 223 CURVE SMOOTH",
"320 161 OFFCURVE",
"280 120 OFFCURVE",
"220 120 CURVE SMOOTH",
"158 120 OFFCURVE",
"110 166 OFFCURVE",
"76 226 CURVE"
);
},
{
closed = 1;
nodes = (
"641 81 OFFCURVE",
"633 60 OFFCURVE",
"615 60 CURVE SMOOTH",
"592 60 OFFCURVE",
"565 82 OFFCURVE",
"563 170 CURVE",
"608 151 OFFCURVE",
"641 124 OFFCURVE",
"641 89 CURVE SMOOTH"
);
}
);
width = 736;
}
);
unicode = 11617;
category = Letter;
},
{
glyphname = Tta;
lastChange = "2018-08-06 13:07:07 +0000";
layers = (
{
background = {
anchors = (
{
name = Bottom;
position = "{282, -80}";
},
{
name = BtmCtr;
position = "{273, -80}";
},
{
name = Dot;
position = "{422, 718}";
},
{
name = Rakar;
position = "{322, 57}";
},
{
name = Top;
position = "{458, 622}";
},
{
name = Vattu;
position = "{277, -70}";
}
);
paths = (
{
closed = 1;
nodes = (
"292 414 LINE",
"286 415 OFFCURVE",
"279 415 OFFCURVE",
"272 415 CURVE SMOOTH",
"107 415 OFFCURVE",
"60 276 OFFCURVE",
"60 203 CURVE SMOOTH",
"60 77 OFFCURVE",
"142 -10 OFFCURVE",
"273 -10 CURVE SMOOTH",
"407 -10 OFFCURVE",
"494 80 OFFCURVE",
"494 215 CURVE SMOOTH",
"494 310 OFFCURVE",
"445 390 OFFCURVE",
"445 471 CURVE SMOOTH",
"445 490 OFFCURVE",
"446 524 OFFCURVE",
"458 551 CURVE",
"564 551 LINE",
"564 622 LINE",
"0 622 LINE",
"0 551 LINE",
"373 551 LINE",
"365 525 OFFCURVE",
"365 495 OFFCURVE",
"365 472 CURVE SMOOTH",
"365 380 OFFCURVE",
"414 307 OFFCURVE",
"414 224 CURVE SMOOTH",
"414 127 OFFCURVE",
"357 64 OFFCURVE",
"272 64 CURVE SMOOTH",
"187 64 OFFCURVE",
"140 127 OFFCURVE",
"140 203 CURVE SMOOTH",
"140 278 OFFCURVE",
"195 341 OFFCURVE",
"273 341 CURVE SMOOTH",
"281 341 LINE"
);
}
);
};
layerId = UUID0;
paths = (
{
closed = 1;
nodes = (
"292 414 LINE",
"286 415 OFFCURVE",
"279 415 OFFCURVE",
"272 415 CURVE SMOOTH",
"107 415 OFFCURVE",
"60 276 OFFCURVE",
"60 203 CURVE SMOOTH",
"60 77 OFFCURVE",
"142 -10 OFFCURVE",
"273 -10 CURVE SMOOTH",
"407 -10 OFFCURVE",
"494 80 OFFCURVE",
"494 215 CURVE SMOOTH",
"494 310 OFFCURVE",
"445 390 OFFCURVE",
"445 471 CURVE SMOOTH",
"445 490 OFFCURVE",
"446 524 OFFCURVE",
"458 551 CURVE",
"564 551 LINE",
"564 622 LINE",
"0 622 LINE",
"0 551 LINE",
"373 551 LINE",
"365 525 OFFCURVE",
"365 495 OFFCURVE",
"365 472 CURVE SMOOTH",
"365 380 OFFCURVE",
"414 307 OFFCURVE",
"414 224 CURVE SMOOTH",
"414 127 OFFCURVE",
"357 64 OFFCURVE",
"272 64 CURVE SMOOTH",
"187 64 OFFCURVE",
"140 127 OFFCURVE",
"140 203 CURVE SMOOTH",
"140 278 OFFCURVE",
"195 341 OFFCURVE",
"273 341 CURVE SMOOTH",
"281 341 LINE"
);
}
);
width = 554;
}
);
unicode = 11618;
category = Letter;
},
{
glyphname = Dda;
lastChange = "2018-08-06 13:07:07 +0000";
layers = (
{
background = {
anchors = (
{
name = Bottom;
position = "{338, -80}";
},
{
name = BtmCtr;
position = "{358, -80}";
},
{
name = Dot;
position = "{472, 718}";
},
{
name = Rakar;
position = "{401, 54}";
},
{
name = Top;
position = "{463, 622}";
},
{
name = Vattu;
position = "{355, -70}";
}
);
paths = (
{
closed = 1;
nodes = (
"640 622 LINE",
"0 622 LINE",
"0 551 LINE",
"315 551 LINE",
"234 497 OFFCURVE",
"180 436 OFFCURVE",
"180 363 CURVE SMOOTH",
"180 280 OFFCURVE",
"247 249 OFFCURVE",
"308 249 CURVE SMOOTH",
"344 249 OFFCURVE",
"377 259 OFFCURVE",
"397 259 CURVE SMOOTH",
"476 259 OFFCURVE",
"490 217 OFFCURVE",
"490 173 CURVE SMOOTH",
"490 118 OFFCURVE",
"449 64 OFFCURVE",
"355 64 CURVE SMOOTH",
"250 64 OFFCURVE",
"166 120 OFFCURVE",
"93 277 CURVE",
"24 243 LINE",
"115 57 OFFCURVE",
"223 -10 OFFCURVE",
"358 -10 CURVE SMOOTH",
"498 -10 OFFCURVE",
"570 82 OFFCURVE",
"570 170 CURVE SMOOTH",
"570 271 OFFCURVE",
"517 330 OFFCURVE",
"411 330 CURVE SMOOTH",
"377 330 OFFCURVE",
"342 320 OFFCURVE",
"319 320 CURVE SMOOTH",
"287 320 OFFCURVE",
"260 331 OFFCURVE",
"260 365 CURVE SMOOTH",
"260 417 OFFCURVE",
"322 492 OFFCURVE",
"453 551 CURVE",
"640 551 LINE"
);
}
);
};
layerId = UUID0;
paths = (
{
closed = 1;
nodes = (
"640 622 LINE",
"0 622 LINE",
"0 551 LINE",
"315 551 LINE",
"234 497 OFFCURVE",
"180 436 OFFCURVE",
"180 363 CURVE SMOOTH",
"180 280 OFFCURVE",
"247 249 OFFCURVE",
"308 249 CURVE SMOOTH",
"344 249 OFFCURVE",
"377 259 OFFCURVE",
"397 259 CURVE SMOOTH",
"476 259 OFFCURVE",
"490 217 OFFCURVE",
"490 173 CURVE SMOOTH",
"490 118 OFFCURVE",
"449 64 OFFCURVE",
"355 64 CURVE SMOOTH",
"250 64 OFFCURVE",
"166 120 OFFCURVE",
"93 277 CURVE",
"24 243 LINE",
"115 57 OFFCURVE",
"223 -10 OFFCURVE",
"358 -10 CURVE SMOOTH",
"498 -10 OFFCURVE",
"570 82 OFFCURVE",
"570 170 CURVE SMOOTH",
"570 271 OFFCURVE",
"517 330 OFFCURVE",
"411 330 CURVE SMOOTH",
"377 330 OFFCURVE",
"342 320 OFFCURVE",
"319 320 CURVE SMOOTH",
"287 320 OFFCURVE",
"260 331 OFFCURVE",
"260 365 CURVE SMOOTH",
"260 417 OFFCURVE",
"322 492 OFFCURVE",
"453 551 CURVE",
"640 551 LINE"
);
}
);
width = 630;
}
);
unicode = 1161A;
category = Letter;
},
{
glyphname = Ddha;
lastChange = "2018-08-06 13:07:07 +0000";
layers = (
{
background = {
anchors = (
{
name = Bottom;
position = "{316, -80}";
},
{
name = BtmCtr;
position = "{291, -80}";
},
{
name = Dot;
position = "{459, 718}";
},
{
name = Rakar;
position = "{347, 54}";
},
{
name = Top;
position = "{385, 622}";
},
{
name = TopCtr;
position = "{337, 718}";
},
{
name = Vattu;
position = "{289, -70}";
}
);
paths = (
{
closed = 1;
nodes = (
"584 622 LINE",
"0 622 LINE",
"0 551 LINE",
"305 551 LINE",
"289 404 OFFCURVE",
"60 370 OFFCURVE",
"60 192 CURVE SMOOTH",
"60 51 OFFCURVE",
"166 -10 OFFCURVE",
"291 -10 CURVE SMOOTH",
"435 -10 OFFCURVE",
"534 68 OFFCURVE",
"534 179 CURVE SMOOTH",
"534 250 OFFCURVE",
"481 318 OFFCURVE",
"391 318 CURVE SMOOTH",
"308 318 OFFCURVE",
"251 256 OFFCURVE",
"251 179 CURVE SMOOTH",
"251 131 OFFCURVE",
"276 89 OFFCURVE",
"316 65 CURVE",
"308 64 OFFCURVE",
"299 64 OFFCURVE",
"291 64 CURVE SMOOTH",
"180 64 OFFCURVE",
"140 135 OFFCURVE",
"140 194 CURVE SMOOTH",
"140 332 OFFCURVE",
"370 377 OFFCURVE",
"385 551 CURVE",
"584 551 LINE"
);
},
{
closed = 1;
nodes = (
"326 208 OFFCURVE",
"342 250 OFFCURVE",
"391 250 CURVE SMOOTH",
"432 250 OFFCURVE",
"459 220 OFFCURVE",
"459 181 CURVE SMOOTH",
"459 147 OFFCURVE",
"445 117 OFFCURVE",
"417 96 CURVE",
"353 112 OFFCURVE",
"326 150 OFFCURVE",
"326 181 CURVE SMOOTH"
);
}
);
};
layerId = UUID0;
paths = (
{
closed = 1;
nodes = (
"584 622 LINE",
"0 622 LINE",
"0 551 LINE",
"305 551 LINE",
"289 404 OFFCURVE",
"60 370 OFFCURVE",
"60 192 CURVE SMOOTH",
"60 51 OFFCURVE",
"166 -10 OFFCURVE",
"291 -10 CURVE SMOOTH",
"435 -10 OFFCURVE",
"534 68 OFFCURVE",
"534 179 CURVE SMOOTH",
"534 250 OFFCURVE",
"481 318 OFFCURVE",
"391 318 CURVE SMOOTH",
"308 318 OFFCURVE",
"251 256 OFFCURVE",
"251 179 CURVE SMOOTH",
"251 131 OFFCURVE",
"276 89 OFFCURVE",
"316 65 CURVE",
"308 64 OFFCURVE",
"299 64 OFFCURVE",
"291 64 CURVE SMOOTH",
"180 64 OFFCURVE",
"140 135 OFFCURVE",
"140 194 CURVE SMOOTH",
"140 332 OFFCURVE",
"370 377 OFFCURVE",
"385 551 CURVE",
"584 551 LINE"
);
},
{
closed = 1;
nodes = (
"326 208 OFFCURVE",
"342 250 OFFCURVE",
"391 250 CURVE SMOOTH",
"432 250 OFFCURVE",
"459 220 OFFCURVE",
"459 181 CURVE SMOOTH",
"459 147 OFFCURVE",
"445 117 OFFCURVE",
"417 96 CURVE",
"353 112 OFFCURVE",
"326 150 OFFCURVE",
"326 181 CURVE SMOOTH"
);
}
);
width = 574;
}
);
unicode = 1161B;
category = Letter;
},
{
glyphname = Nna;
lastChange = "2018-08-06 13:07:01 +0000";
layers = (
{
background = {
anchors = (
{
name = Bottom;
position = "{561, 0}";
},
{
name = Dot;
position = "{596, 718}";
},
{
name = Rakar;
position = "{561, 120}";
},
{
name = Top;
position = "{641, 622}";
}
);
paths = (
{
closed = 1;
nodes = (
"641 551 LINE",
"731 551 LINE",
"731 622 LINE",
"0 622 LINE",
"0 551 LINE",
"90 551 LINE",
"69 484 OFFCURVE",
"60 401 OFFCURVE",
"60 322 CURVE SMOOTH",
"60 175 OFFCURVE",
"100 40 OFFCURVE",
"270 40 CURVE SMOOTH",
"357 40 OFFCURVE",
"465 89 OFFCURVE",
"465 215 CURVE SMOOTH",
"465 272 OFFCURVE",
"439 319 OFFCURVE",
"383 351 CURVE",
"423 377 OFFCURVE",
"444 418 OFFCURVE",
"444 463 CURVE SMOOTH",
"444 491 OFFCURVE",
"436 521 OFFCURVE",
"419 551 CURVE",
"561 551 LINE",
"561 0 LINE",
"641 0 LINE"
);
},
{
closed = 1;
nodes = (
"265 320 LINE",
"353 316 OFFCURVE",
"386 265 OFFCURVE",
"386 216 CURVE SMOOTH",
"386 140 OFFCURVE",
"318 114 OFFCURVE",
"269 114 CURVE SMOOTH",
"158 114 OFFCURVE",
"140 216 OFFCURVE",
"140 325 CURVE SMOOTH",
"140 408 OFFCURVE",
"153 496 OFFCURVE",
"167 551 CURVE",
"335 551 LINE",
"353 528 OFFCURVE",
"364 498 OFFCURVE",
"364 470 CURVE SMOOTH",
"364 425 OFFCURVE",
"337 385 OFFCURVE",
"282 385 CURVE SMOOTH",
"280 385 OFFCURVE",
"273 386 OFFCURVE",
"270 386 CURVE"
);
}
);
};
layerId = UUID0;
paths = (
{
closed = 1;
nodes = (
"641 551 LINE",
"731 551 LINE",
"731 622 LINE",
"0 622 LINE",
"0 551 LINE",
"90 551 LINE",
"69 484 OFFCURVE",
"60 401 OFFCURVE",
"60 322 CURVE SMOOTH",
"60 175 OFFCURVE",
"100 40 OFFCURVE",
"270 40 CURVE SMOOTH",
"357 40 OFFCURVE",
"465 89 OFFCURVE",
"465 215 CURVE SMOOTH",
"465 272 OFFCURVE",
"439 319 OFFCURVE",
"383 351 CURVE",
"423 377 OFFCURVE",
"444 418 OFFCURVE",
"444 463 CURVE SMOOTH",
"444 491 OFFCURVE",
"436 521 OFFCURVE",
"419 551 CURVE",
"561 551 LINE",
"561 0 LINE",
"641 0 LINE"
);
},
{
closed = 1;
nodes = (
"265 320 LINE",
"353 316 OFFCURVE",
"386 265 OFFCURVE",
"386 216 CURVE SMOOTH",
"386 140 OFFCURVE",
"318 114 OFFCURVE",
"269 114 CURVE SMOOTH",
"158 114 OFFCURVE",
"140 216 OFFCURVE",
"140 325 CURVE SMOOTH",
"140 408 OFFCURVE",
"153 496 OFFCURVE",
"167 551 CURVE",
"335 551 LINE",
"353 528 OFFCURVE",
"364 498 OFFCURVE",
"364 470 CURVE SMOOTH",
"364 425 OFFCURVE",
"337 385 OFFCURVE",
"282 385 CURVE SMOOTH",
"280 385 OFFCURVE",
"278 385 OFFCURVE",
"270 386 CURVE"
);
}
);
width = 721;
}
);
unicode = 1161C;
category = Letter;
},
{
glyphname = Ta;
lastChange = "2018-08-06 13:07:01 +0000";
layers = (
{
background = {
anchors = (
{
name = Bottom;
position = "{372, 0}";
},
{
name = Dot;
position = "{407, 718}";
},
{
name = Rakar;
position = "{372, 80}";
},
{
name = Top;
position = "{452, 622}";
}
);
paths = (
{
closed = 1;
nodes = (
"452 551 LINE",
"542 551 LINE",
"542 622 LINE",
"0 622 LINE",
"0 551 LINE",
"372 551 LINE",
"372 476 LINE",
"154 426 OFFCURVE",
"60 348 OFFCURVE",
"60 254 CURVE SMOOTH",
"60 207 OFFCURVE",
"84 156 OFFCURVE",
"128 103 CURVE SMOOTH",
"226 -14 LINE",
"261 61 LINE",
"199 137 LINE SMOOTH",
"160 184 OFFCURVE",
"141 224 OFFCURVE",
"141 258 CURVE SMOOTH",
"141 323 OFFCURVE",
"228 366 OFFCURVE",
"372 403 CURVE",
"372 0 LINE",
"452 0 LINE"
);
}
);
};
layerId = UUID0;
paths = (
{
closed = 1;
nodes = (
"452 551 LINE",
"542 551 LINE",
"542 622 LINE",
"0 622 LINE",
"0 551 LINE",
"372 551 LINE",
"372 476 LINE",
"154 426 OFFCURVE",
"60 348 OFFCURVE",
"60 254 CURVE SMOOTH",
"60 207 OFFCURVE",
"84 156 OFFCURVE",
"128 103 CURVE SMOOTH",
"226 -14 LINE",
"261 61 LINE",
"199 137 LINE SMOOTH",
"160 184 OFFCURVE",
"141 224 OFFCURVE",
"141 258 CURVE SMOOTH",
"141 323 OFFCURVE",
"228 366 OFFCURVE",
"372 403 CURVE",
"372 0 LINE",
"452 0 LINE"
);
}
);
width = 532;
}
);
unicode = 1161D;
category = Letter;
},
{
glyphname = Tha;
lastChange = "2018-08-06 13:07:01 +0000";
layers = (
{
background = {
anchors = (
{
name = Bottom;
position = "{507, -80}";
},
{
name = Dot;
position = "{669, 718}";
},
{
name = Top;
position = "{702, 622}";
}
);
paths = (
{
closed = 1;
nodes = (
"844 622 LINE",
"0 622 LINE",
"0 551 LINE",
"81 551 LINE",
"62 527 OFFCURVE",
"50 497 OFFCURVE",
"50 462 CURVE SMOOTH",
"50 385 OFFCURVE",
"110 322 OFFCURVE",
"187 322 CURVE SMOOTH",
"200 322 OFFCURVE",
"213 324 OFFCURVE",
"224 327 CURVE",
"207 276 OFFCURVE",
"188 230 OFFCURVE",
"188 183 CURVE SMOOTH",
"188 136 OFFCURVE",
"224 76 OFFCURVE",
"302 76 CURVE SMOOTH",
"337 76 OFFCURVE",
"368 87 OFFCURVE",
"395 105 CURVE",
"403 53 OFFCURVE",
"452 -10 OFFCURVE",
"547 -10 CURVE SMOOTH",
"724 -10 OFFCURVE",
"774 155 OFFCURVE",
"774 310 CURVE SMOOTH",
"774 409 OFFCURVE",
"743 493 OFFCURVE",
"717 551 CURVE",
"844 551 LINE"
);
},
{
closed = 1;
nodes = (
"450 266 LINE",
"390 161 OFFCURVE",
"347 146 OFFCURVE",
"306 146 CURVE SMOOTH",
"284 146 OFFCURVE",
"268 156 OFFCURVE",
"268 190 CURVE SMOOTH",
"268 284 OFFCURVE",
"330 360 OFFCURVE",
"330 459 CURVE SMOOTH",
"330 489 OFFCURVE",
"321 523 OFFCURVE",
"300 551 CURVE",
"634 551 LINE",
"662 490 OFFCURVE",
"694 394 OFFCURVE",
"694 311 CURVE SMOOTH",
"694 135 OFFCURVE",
"625 64 OFFCURVE",
"549 64 CURVE SMOOTH",
"490 64 OFFCURVE",
"470 95 OFFCURVE",
"470 132 CURVE SMOOTH",
"470 159 OFFCURVE",
"478 183 OFFCURVE",
"508 235 CURVE SMOOTH",
"508 235 LINE"
);
},
{
closed = 1;
nodes = (
"162 392 OFFCURVE",
"120 412 OFFCURVE",
"120 461 CURVE SMOOTH",
"120 502 OFFCURVE",
"151 533 OFFCURVE",
"190 533 CURVE SMOOTH",
"240 533 OFFCURVE",
"251 483 OFFCURVE",
"251 462 CURVE SMOOTH",
"251 444 OFFCURVE",
"249 428 OFFCURVE",
"247 412 CURVE",
"231 400 OFFCURVE",
"212 392 OFFCURVE",
"189 392 CURVE SMOOTH"
);
}
);
};
layerId = UUID0;
paths = (
{
closed = 1;
nodes = (
"844 622 LINE",
"0 622 LINE",
"0 551 LINE",
"81 551 LINE",
"62 527 OFFCURVE",
"50 497 OFFCURVE",
"50 462 CURVE SMOOTH",
"50 385 OFFCURVE",
"110 322 OFFCURVE",
"187 322 CURVE SMOOTH",
"200 322 OFFCURVE",
"213 324 OFFCURVE",
"224 327 CURVE",
"205 276 OFFCURVE",
"188 224 OFFCURVE",
"188 183 CURVE SMOOTH",
"188 136 OFFCURVE",
"224 76 OFFCURVE",
"302 76 CURVE SMOOTH",
"337 76 OFFCURVE",
"368 87 OFFCURVE",
"395 105 CURVE",
"403 53 OFFCURVE",
"452 -10 OFFCURVE",
"547 -10 CURVE SMOOTH",
"724 -10 OFFCURVE",
"774 155 OFFCURVE",
"774 310 CURVE SMOOTH",
"774 409 OFFCURVE",
"743 493 OFFCURVE",
"717 551 CURVE",
"844 551 LINE"
);
},
{
closed = 1;
nodes = (
"450 266 LINE",
"390 161 OFFCURVE",
"347 146 OFFCURVE",
"306 146 CURVE SMOOTH",
"284 146 OFFCURVE",
"268 156 OFFCURVE",
"268 190 CURVE SMOOTH",
"268 284 OFFCURVE",
"330 360 OFFCURVE",
"330 459 CURVE SMOOTH",
"330 489 OFFCURVE",
"321 523 OFFCURVE",
"300 551 CURVE",
"634 551 LINE",
"662 490 OFFCURVE",
"694 394 OFFCURVE",
"694 311 CURVE SMOOTH",
"694 135 OFFCURVE",
"625 64 OFFCURVE",
"549 64 CURVE SMOOTH",
"490 64 OFFCURVE",
"470 95 OFFCURVE",
"470 132 CURVE SMOOTH",
"470 159 OFFCURVE",
"478 183 OFFCURVE",
"508 235 CURVE"
);
},
{
closed = 1;
nodes = (
"162 392 OFFCURVE",
"120 412 OFFCURVE",
"120 461 CURVE SMOOTH",
"120 502 OFFCURVE",
"151 533 OFFCURVE",
"190 533 CURVE SMOOTH",
"240 533 OFFCURVE",
"251 483 OFFCURVE",
"251 462 CURVE SMOOTH",
"251 444 OFFCURVE",
"249 428 OFFCURVE",
"247 412 CURVE",
"231 400 OFFCURVE",
"212 392 OFFCURVE",
"189 392 CURVE SMOOTH"
);
}
);
width = 834;
}
);
unicode = 1161E;
category = Letter;
},
{
glyphname = Da;
lastChange = "2018-08-06 13:07:07 +0000";
layers = (
{
background = {
anchors = (
{
name = Bottom;
position = "{335, -80}";
},
{
name = BtmCtr;
position = "{321, -80}";
},
{
name = Dot;
position = "{485, 718}";
},
{
name = Rakar;
position = "{374, 54}";
},
{
name = Top;
position = "{516, 622}";
},
{
name = TopCtr;
position = "{321, 718}";
},
{
name = Vattu;
position = "{331, -70}";
}
);
paths = (
{
closed = 1;
nodes = (
"652 622 LINE",
"0 622 LINE",
"0 551 LINE",
"67 551 LINE",
"50 519 OFFCURVE",
"40 482 OFFCURVE",
"40 446 CURVE SMOOTH",
"40 379 OFFCURVE",
"78 316 OFFCURVE",
"157 304 CURVE",
"126 265 OFFCURVE",
"118 224 OFFCURVE",
"118 179 CURVE SMOOTH",
"118 75 OFFCURVE",
"195 -10 OFFCURVE",
"331 -10 CURVE SMOOTH",
"527 -10 OFFCURVE",
"582 155 OFFCURVE",
"582 310 CURVE SMOOTH",
"582 409 OFFCURVE",
"555 493 OFFCURVE",
"531 551 CURVE",
"652 551 LINE"
);
},
{
closed = 1;
nodes = (
"502 135 OFFCURVE",
"436 64 OFFCURVE",
"335 64 CURVE SMOOTH",
"238 64 OFFCURVE",
"198 125 OFFCURVE",
"198 183 CURVE SMOOTH",
"198 247 OFFCURVE",
"224 288 OFFCURVE",
"302 331 CURVE",
"272 390 LINE",
"238 376 OFFCURVE",
"216 372 OFFCURVE",
"197 372 CURVE SMOOTH",
"147 372 OFFCURVE",
"120 402 OFFCURVE",
"120 448 CURVE SMOOTH",
"120 477 OFFCURVE",
"126 513 OFFCURVE",
"153 551 CURVE",
"450 551 LINE",
"475 495 OFFCURVE",
"502 407 OFFCURVE",
"502 311 CURVE SMOOTH"
);
}
);
};
layerId = UUID0;
paths = (
{
closed = 1;
nodes = (
"652 622 LINE",
"0 622 LINE",
"0 551 LINE",
"67 551 LINE",
"50 519 OFFCURVE",
"40 482 OFFCURVE",
"40 446 CURVE SMOOTH",
"40 379 OFFCURVE",
"78 316 OFFCURVE",
"157 304 CURVE",
"126 265 OFFCURVE",
"118 224 OFFCURVE",
"118 179 CURVE SMOOTH",
"118 75 OFFCURVE",
"195 -10 OFFCURVE",
"331 -10 CURVE SMOOTH",
"527 -10 OFFCURVE",
"582 155 OFFCURVE",
"582 310 CURVE SMOOTH",
"582 409 OFFCURVE",
"555 493 OFFCURVE",
"531 551 CURVE",
"652 551 LINE"
);
},
{
closed = 1;
nodes = (
"502 135 OFFCURVE",
"436 64 OFFCURVE",
"335 64 CURVE SMOOTH",
"238 64 OFFCURVE",
"198 125 OFFCURVE",
"198 183 CURVE SMOOTH",
"198 247 OFFCURVE",
"224 288 OFFCURVE",
"302 331 CURVE",
"272 390 LINE",
"238 376 OFFCURVE",
"216 372 OFFCURVE",
"197 372 CURVE SMOOTH",
"147 372 OFFCURVE",
"120 402 OFFCURVE",
"120 448 CURVE SMOOTH",
"120 477 OFFCURVE",
"126 513 OFFCURVE",
"153 551 CURVE",
"450 551 LINE",
"475 495 OFFCURVE",
"502 407 OFFCURVE",
"502 311 CURVE SMOOTH"
);
}
);
width = 642;
}
);
unicode = 1161F;
category = Letter;
},
{
glyphname = Dha;
lastChange = "2018-08-06 13:07:07 +0000";
layers = (
{
background = {
anchors = (
{
name = Bottom;
position = "{371, -80}";
},
{
name = BtmCtr;
position = "{336, -80}";
},
{
name = Dot;
position = "{515, 718}";
},
{
name = Rakar;
position = "{414, 55}";
},
{
name = Top;
position = "{544, 622}";
},
{
name = TopCtr;
position = "{336, 718}";
},
{
name = Vattu;
position = "{374, -70}";
}
);
paths = (
{
closed = 1;
nodes = (
"683 622 LINE",
"0 622 LINE",
"0 551 LINE",
"82 551 LINE",
"60 520 OFFCURVE",
"50 480 OFFCURVE",
"50 444 CURVE SMOOTH",
"50 343 OFFCURVE",
"105 247 OFFCURVE",
"209 237 CURVE",
"192 211 OFFCURVE",
"185 184 OFFCURVE",
"185 149 CURVE SMOOTH",
"185 69 OFFCURVE",
"254 -10 OFFCURVE",
"371 -10 CURVE SMOOTH",
"544 -10 OFFCURVE",
"613 132 OFFCURVE",
"613 310 CURVE SMOOTH",
"613 401 OFFCURVE",
"584 490 OFFCURVE",
"559 551 CURVE",
"683 551 LINE"
);
},
{
closed = 1;
nodes = (
"533 196 OFFCURVE",
"512 62 OFFCURVE",
"374 62 CURVE SMOOTH",
"316 62 OFFCURVE",
"260 95 OFFCURVE",
"260 157 CURVE SMOOTH",
"260 206 OFFCURVE",
"305 255 OFFCURVE",
"349 270 CURVE",
"319 328 LINE",
"280 310 OFFCURVE",
"254 304 OFFCURVE",
"232 304 CURVE SMOOTH",
"190 304 OFFCURVE",
"162 326 OFFCURVE",
"146 359 CURVE",
"159 355 OFFCURVE",
"172 353 OFFCURVE",
"188 353 CURVE SMOOTH",
"265 353 OFFCURVE",
"323 398 OFFCURVE",
"323 479 CURVE SMOOTH",
"323 507 OFFCURVE",
"314 531 OFFCURVE",
"300 551 CURVE",
"477 551 LINE",
"503 490 OFFCURVE",
"533 392 OFFCURVE",
"533 311 CURVE SMOOTH"
);
},
{
closed = 1;
nodes = (
"128 450 LINE SMOOTH",
"128 483 OFFCURVE",
"140 535 OFFCURVE",
"190 535 CURVE SMOOTH",
"229 535 OFFCURVE",
"245 506 OFFCURVE",
"245 479 CURVE SMOOTH",
"245 443 OFFCURVE",
"219 421 OFFCURVE",
"187 421 CURVE SMOOTH",
"164 421 OFFCURVE",
"145 429 OFFCURVE",
"128 441 CURVE"
);
}
);
};
layerId = UUID0;
paths = (
{
closed = 1;
nodes = (
"683 622 LINE",
"0 622 LINE",
"0 551 LINE",
"82 551 LINE",
"60 520 OFFCURVE",
"50 480 OFFCURVE",
"50 444 CURVE SMOOTH",
"50 343 OFFCURVE",
"105 247 OFFCURVE",
"209 237 CURVE",
"192 211 OFFCURVE",
"185 184 OFFCURVE",
"185 149 CURVE SMOOTH",
"185 69 OFFCURVE",
"254 -10 OFFCURVE",
"371 -10 CURVE SMOOTH",
"544 -10 OFFCURVE",
"613 132 OFFCURVE",
"613 310 CURVE SMOOTH",
"613 401 OFFCURVE",
"584 490 OFFCURVE",
"559 551 CURVE",
"683 551 LINE"
);
},
{
closed = 1;
nodes = (
"533 196 OFFCURVE",
"512 62 OFFCURVE",
"374 62 CURVE SMOOTH",
"316 62 OFFCURVE",
"260 95 OFFCURVE",
"260 157 CURVE SMOOTH",
"260 206 OFFCURVE",
"305 255 OFFCURVE",
"349 270 CURVE",
"319 328 LINE",
"280 310 OFFCURVE",
"254 304 OFFCURVE",
"232 304 CURVE SMOOTH",
"190 304 OFFCURVE",
"162 326 OFFCURVE",
"146 359 CURVE",
"159 355 OFFCURVE",
"172 353 OFFCURVE",
"188 353 CURVE SMOOTH",
"265 353 OFFCURVE",
"323 398 OFFCURVE",
"323 479 CURVE SMOOTH",
"323 507 OFFCURVE",
"314 531 OFFCURVE",
"300 551 CURVE",
"477 551 LINE",
"503 490 OFFCURVE",
"533 392 OFFCURVE",
"533 311 CURVE SMOOTH"
);
},
{
closed = 1;
nodes = (
"128 450 LINE SMOOTH",
"128 483 OFFCURVE",
"140 535 OFFCURVE",
"190 535 CURVE SMOOTH",
"229 535 OFFCURVE",
"245 506 OFFCURVE",
"245 479 CURVE SMOOTH",
"245 443 OFFCURVE",
"219 421 OFFCURVE",
"187 421 CURVE SMOOTH",
"164 421 OFFCURVE",
"145 429 OFFCURVE",
"128 441 CURVE"
);
}
);
width = 673;
}
);
unicode = 11620;
category = Letter;
},
{
glyphname = Na;
lastChange = "2018-08-06 13:07:07 +0000";
layers = (
{
background = {
anchors = (
{
name = Bottom;
position = "{363, -80}";
},
{
name = BtmCtr;
position = "{363, -80}";
},
{
name = Dot;
position = "{512, 718}";
},
{
name = Rakar;
position = "{393, 54}";
},
{
name = Top;
position = "{585, 622}";
},
{
name = TopCtr;
position = "{375, 718}";
},
{
name = Vattu;
position = "{363, -70}";
}
);
paths = (
{
closed = 1;
nodes = (
"658 622 LINE",
"0 622 LINE",
"0 551 LINE",
"512 551 LINE",
"374 380 LINE",
"332 444 OFFCURVE",
"273 520 OFFCURVE",
"182 520 CURVE SMOOTH",
"110 520 OFFCURVE",
"75 488 OFFCURVE",
"75 457 CURVE SMOOTH",
"75 426 OFFCURVE",
"104 392 OFFCURVE",
"176 392 CURVE SMOOTH",
"201 392 OFFCURVE",
"235 397 OFFCURVE",
"255 407 CURVE",
"273 398 OFFCURVE",
"299 368 OFFCURVE",
"328 322 CURVE",
"265 240 OFFCURVE",
"227 176 OFFCURVE",
"227 113 CURVE SMOOTH",
"227 54 OFFCURVE",
"268 -10 OFFCURVE",
"363 -10 CURVE SMOOTH",
"472 -9 OFFCURVE",
"506 48 OFFCURVE",
"506 120 CURVE SMOOTH",
"506 148 OFFCURVE",
"480 212 OFFCURVE",
"437 282 CURVE SMOOTH",
"413 320 LINE",
"605 551 LINE",
"658 551 LINE"
);
},
{
closed = 1;
nodes = (
"380 235 LINE",
"407 188 OFFCURVE",
"428 150 OFFCURVE",
"428 123 CURVE SMOOTH",
"428 86 OFFCURVE",
"413 62 OFFCURVE",
"363 62 CURVE SMOOTH",
"331 62 OFFCURVE",
"305 87 OFFCURVE",
"305 123 CURVE SMOOTH",
"305 156 OFFCURVE",
"325 198 OFFCURVE",
"366 257 CURVE"
);
}
);
};
layerId = UUID0;
paths = (
{
closed = 1;
nodes = (
"658 622 LINE",
"0 622 LINE",
"0 551 LINE",
"512 551 LINE",
"374 380 LINE",
"332 444 OFFCURVE",
"273 520 OFFCURVE",
"182 520 CURVE SMOOTH",
"110 520 OFFCURVE",
"75 488 OFFCURVE",
"75 457 CURVE SMOOTH",
"75 426 OFFCURVE",
"104 392 OFFCURVE",
"176 392 CURVE SMOOTH",
"201 392 OFFCURVE",
"235 397 OFFCURVE",
"255 407 CURVE",
"273 398 OFFCURVE",
"299 368 OFFCURVE",
"328 322 CURVE",
"265 240 OFFCURVE",
"227 176 OFFCURVE",
"227 113 CURVE SMOOTH",
"227 54 OFFCURVE",
"268 -10 OFFCURVE",
"363 -10 CURVE SMOOTH",
"470 -10 OFFCURVE",
"506 47 OFFCURVE",
"506 120 CURVE SMOOTH",
"506 148 OFFCURVE",
"480 212 OFFCURVE",
"437 282 CURVE SMOOTH",
"413 320 LINE",
"605 551 LINE",
"658 551 LINE"
);
},
{
closed = 1;
nodes = (
"380 235 LINE",
"407 188 OFFCURVE",
"428 150 OFFCURVE",
"428 123 CURVE SMOOTH",
"428 86 OFFCURVE",
"413 62 OFFCURVE",
"363 62 CURVE SMOOTH",
"331 62 OFFCURVE",
"305 87 OFFCURVE",
"305 123 CURVE SMOOTH",
"305 156 OFFCURVE",
"325 198 OFFCURVE",
"366 257 CURVE"
);
}
);
width = 658;
}
);
unicode = 11621;
category = Letter;
},
{
glyphname = Pa;
lastChange = "2018-08-06 13:07:07 +0000";
layers = (
{
background = {
anchors = (
{
name = Bottom;
position = "{455, -80}";
},
{
name = BtmCtr;
position = "{357, -80}";
},
{
name = Dot;
position = "{513, 718}";
},
{
name = Top;
position = "{575, 622}";
},
{
name = TopCtr;
position = "{357, 718}";
},
{
name = Vattu;
position = "{356, -79}";
}
);
paths = (
{
closed = 1;
nodes = (
"724 622 LINE",
"0 622 LINE",
"0 551 LINE",
"124 551 LINE",
"96 486 OFFCURVE",
"60 377 OFFCURVE",
"60 270 CURVE SMOOTH",
"60 71 OFFCURVE",
"131 -10 OFFCURVE",
"239 -10 CURVE SMOOTH",
"293 -10 OFFCURVE",
"332 16 OFFCURVE",
"357 58 CURVE",
"382 16 OFFCURVE",
"421 -10 OFFCURVE",
"475 -10 CURVE SMOOTH",
"583 -10 OFFCURVE",
"654 71 OFFCURVE",
"654 270 CURVE SMOOTH",
"654 377 OFFCURVE",
"617 486 OFFCURVE",
"590 551 CURVE",
"724 551 LINE"
);
},
{
closed = 1;
nodes = (
"319 213 LINE",
"316 105 OFFCURVE",
"282 64 OFFCURVE",
"237 64 CURVE SMOOTH",
"190 64 OFFCURVE",
"140 114 OFFCURVE",
"140 271 CURVE SMOOTH",
"140 375 OFFCURVE",
"177 488 OFFCURVE",
"205 551 CURVE",
"508 551 LINE",
"537 488 OFFCURVE",
"574 375 OFFCURVE",
"574 271 CURVE SMOOTH",
"574 114 OFFCURVE",
"524 64 OFFCURVE",
"477 64 CURVE SMOOTH",
"432 64 OFFCURVE",
"398 105 OFFCURVE",
"395 213 CURVE"
);
}
);
};
layerId = UUID0;
paths = (
{
closed = 1;
nodes = (
"724 622 LINE",
"0 622 LINE",
"0 551 LINE",
"124 551 LINE",
"96 486 OFFCURVE",
"60 377 OFFCURVE",
"60 270 CURVE SMOOTH",
"60 71 OFFCURVE",
"131 -10 OFFCURVE",
"239 -10 CURVE SMOOTH",
"293 -10 OFFCURVE",
"332 16 OFFCURVE",
"357 58 CURVE",
"382 16 OFFCURVE",
"421 -10 OFFCURVE",
"475 -10 CURVE SMOOTH",
"583 -10 OFFCURVE",
"654 71 OFFCURVE",
"654 270 CURVE SMOOTH",
"654 377 OFFCURVE",
"617 486 OFFCURVE",
"590 551 CURVE",
"724 551 LINE"
);
},
{
closed = 1;
nodes = (
"319 213 LINE",
"316 105 OFFCURVE",
"282 64 OFFCURVE",
"237 64 CURVE SMOOTH",
"190 64 OFFCURVE",
"140 114 OFFCURVE",
"140 271 CURVE SMOOTH",
"140 375 OFFCURVE",
"177 488 OFFCURVE",
"205 551 CURVE",
"508 551 LINE",
"537 488 OFFCURVE",
"574 375 OFFCURVE",
"574 271 CURVE SMOOTH",
"574 114 OFFCURVE",
"524 64 OFFCURVE",
"477 64 CURVE SMOOTH",
"432 64 OFFCURVE",
"398 105 OFFCURVE",
"395 213 CURVE"
);
}
);
width = 714;
}
);
unicode = 11622;
category = Letter;
},
{
glyphname = Pha;
lastChange = "2018-08-06 13:07:07 +0000";
layers = (
{
background = {
anchors = (
{
name = Bottom;
position = "{610, -80}";
},
{
name = BtmCtr;
position = "{471, -80}";
},
{
name = Dot;
position = "{644, 718}";
},
{
name = Rakar;
position = "{573, 90}";
},
{
name = Top;
position = "{676, 622}";
},
{
name = Vattu;
position = "{653, -50}";
}
);
paths = (
{
closed = 1;
nodes = (
"0 551 LINE",
"784 551 LINE",
"784 622 LINE",
"0 622 LINE"
);
},
{
closed = 1;
nodes = (
"604 580 LINE",
"559 459 OFFCURVE",
"530 285 OFFCURVE",
"530 193 CURVE SMOOTH",
"530 62 OFFCURVE",
"572 -10 OFFCURVE",
"652 -10 CURVE SMOOTH",
"737 -10 OFFCURVE",
"754 58 OFFCURVE",
"754 85 CURVE SMOOTH",
"754 156 OFFCURVE",
"691 248 OFFCURVE",
"535 248 CURVE SMOOTH",
"425 248 OFFCURVE",
"286 201 OFFCURVE",
"226 0 CURVE",
"303 0 LINE",
"337 144 OFFCURVE",
"470 178 OFFCURVE",
"537 178 CURVE SMOOTH",
"656 178 OFFCURVE",
"679 121 OFFCURVE",
"679 89 CURVE SMOOTH",
"679 81 OFFCURVE",
"671 60 OFFCURVE",
"653 60 CURVE SMOOTH",
"631 60 OFFCURVE",
"610 84 OFFCURVE",
"610 183 CURVE SMOOTH",
"610 257 OFFCURVE",
"618 396 OFFCURVE",
"682 569 CURVE"
);
},
{
closed = 1;
nodes = (
"274 284 LINE SMOOTH",
"274 202 OFFCURVE",
"263 110 OFFCURVE",
"227 3 CURVE",
"310 36 LINE",
"336 117 OFFCURVE",
"351 213 OFFCURVE",
"351 289 CURVE SMOOTH",
"351 532 LINE",
"274 510 LINE"
);
},
{
closed = 1;
nodes = (
"271 515 LINE SMOOTH",
"271 421 OFFCURVE",
"256 389 OFFCURVE",
"200 389 CURVE SMOOTH",
"159 389 OFFCURVE",
"130 408 OFFCURVE",
"130 515 CURVE SMOOTH",
"130 600 LINE",
"50 600 LINE",
"50 514 LINE SMOOTH",
"50 366 OFFCURVE",
"106 318 OFFCURVE",
"196 318 CURVE SMOOTH",
"291 318 OFFCURVE",
"351 380 OFFCURVE",
"351 500 CURVE SMOOTH",
"351 595 LINE",
"271 595 LINE"
);
}
);
};
layerId = UUID0;
paths = (
{
closed = 1;
nodes = (
"0 551 LINE",
"784 551 LINE",
"784 622 LINE",
"0 622 LINE"
);
},
{
closed = 1;
nodes = (
"604 580 LINE",
"559 459 OFFCURVE",
"530 285 OFFCURVE",
"530 193 CURVE SMOOTH",
"530 62 OFFCURVE",
"572 -10 OFFCURVE",
"652 -10 CURVE SMOOTH",
"737 -10 OFFCURVE",
"754 58 OFFCURVE",
"754 85 CURVE SMOOTH",
"754 156 OFFCURVE",
"691 248 OFFCURVE",
"535 248 CURVE SMOOTH",
"425 248 OFFCURVE",
"286 201 OFFCURVE",
"226 0 CURVE",
"303 0 LINE",
"337 144 OFFCURVE",
"470 178 OFFCURVE",
"537 178 CURVE SMOOTH",
"656 178 OFFCURVE",
"679 121 OFFCURVE",
"679 89 CURVE SMOOTH",
"679 81 OFFCURVE",
"671 60 OFFCURVE",
"653 60 CURVE SMOOTH",
"631 60 OFFCURVE",
"610 84 OFFCURVE",
"610 183 CURVE SMOOTH",
"610 257 OFFCURVE",
"618 396 OFFCURVE",
"682 569 CURVE"
);
},
{
closed = 1;
nodes = (
"274 284 LINE SMOOTH",
"274 202 OFFCURVE",
"263 110 OFFCURVE",
"227 3 CURVE",
"310 36 LINE",
"336 117 OFFCURVE",
"351 213 OFFCURVE",
"351 289 CURVE SMOOTH",
"351 532 LINE",
"274 510 LINE"
);
},
{
closed = 1;
nodes = (
"271 515 LINE SMOOTH",
"271 421 OFFCURVE",
"256 389 OFFCURVE",
"200 389 CURVE SMOOTH",
"159 389 OFFCURVE",
"130 408 OFFCURVE",
"130 515 CURVE SMOOTH",
"130 600 LINE",
"50 600 LINE",
"50 514 LINE SMOOTH",
"50 366 OFFCURVE",
"106 318 OFFCURVE",
"196 318 CURVE SMOOTH",
"291 318 OFFCURVE",
"351 380 OFFCURVE",
"351 500 CURVE SMOOTH",
"351 595 LINE",
"271 595 LINE"
);
}
);
width = 774;
}
);
unicode = 11623;
category = Letter;
},
{
glyphname = Ba;
lastChange = "2018-08-06 13:07:01 +0000";
layers = (
{
background = {
anchors = (
{
name = Bottom;
position = "{481, 0}";
},
{
name = BtmCtr;
position = "{320, -80}";
},
{
name = Dot;
position = "{516, 718}";
},
{
name = Rakar;
position = "{356, 54}";
},
{
name = Top;
position = "{561, 622}";
}
);
paths = (
{
closed = 1;
nodes = (
"561 551 LINE",
"651 551 LINE",
"651 622 LINE",
"0 622 LINE",
"0 551 LINE",
"67 551 LINE",
"50 519 OFFCURVE",
"40 482 OFFCURVE",
"40 446 CURVE SMOOTH",
"40 380 OFFCURVE",
"77 318 OFFCURVE",
"153 304 CURVE",
"118 264 OFFCURVE",
"105 221 OFFCURVE",
"105 171 CURVE SMOOTH",
"105 67 OFFCURVE",
"186 -10 OFFCURVE",
"315 -10 CURVE SMOOTH",
"388 -10 OFFCURVE",
"442 9 OFFCURVE",
"481 43 CURVE",
"481 0 LINE",
"561 0 LINE"
);
},
{
closed = 1;
nodes = (
"481 236 LINE SMOOTH",
"481 139 OFFCURVE",
"433 64 OFFCURVE",
"316 64 CURVE SMOOTH",
"223 64 OFFCURVE",
"185 119 OFFCURVE",
"185 175 CURVE SMOOTH",
"185 245 OFFCURVE",
"223 288 OFFCURVE",
"302 331 CURVE",
"272 390 LINE",
"238 376 OFFCURVE",
"216 372 OFFCURVE",
"197 372 CURVE SMOOTH",
"147 372 OFFCURVE",
"120 402 OFFCURVE",
"120 448 CURVE SMOOTH",
"120 477 OFFCURVE",
"126 513 OFFCURVE",
"153 551 CURVE",
"481 551 LINE"
);
}
);
};
layerId = UUID0;
paths = (
{
closed = 1;
nodes = (
"561 551 LINE",
"651 551 LINE",
"651 622 LINE",
"0 622 LINE",
"0 551 LINE",
"67 551 LINE",
"50 519 OFFCURVE",
"40 482 OFFCURVE",
"40 446 CURVE SMOOTH",
"40 380 OFFCURVE",
"77 318 OFFCURVE",
"153 304 CURVE",
"118 264 OFFCURVE",
"105 221 OFFCURVE",
"105 171 CURVE SMOOTH",
"105 67 OFFCURVE",
"186 -10 OFFCURVE",
"315 -10 CURVE SMOOTH",
"388 -10 OFFCURVE",
"442 9 OFFCURVE",
"481 43 CURVE",
"481 0 LINE",
"561 0 LINE"
);
},
{
closed = 1;
nodes = (
"481 236 LINE SMOOTH",
"481 139 OFFCURVE",
"433 64 OFFCURVE",
"316 64 CURVE SMOOTH",
"223 64 OFFCURVE",
"185 119 OFFCURVE",
"185 175 CURVE SMOOTH",
"185 245 OFFCURVE",
"223 288 OFFCURVE",
"302 331 CURVE",
"272 390 LINE",
"238 376 OFFCURVE",
"216 372 OFFCURVE",
"197 372 CURVE SMOOTH",
"147 372 OFFCURVE",
"120 402 OFFCURVE",
"120 448 CURVE SMOOTH",
"120 477 OFFCURVE",
"126 513 OFFCURVE",
"153 551 CURVE",
"481 551 LINE"
);
}
);
width = 641;
}
);
unicode = 11624;
category = Letter;
},
{
glyphname = Bha;
lastChange = "2018-08-06 13:07:01 +0000";
layers = (
{
background = {
anchors = (
{
name = Bottom;
position = "{568, 0}";
},
{
name = BtmCtr;
position = "{449, -80}";
},
{
name = Dot;
position = "{603, 718}";
},
{
name = Rakar;
position = "{568, 120}";
},
{
name = Top;
position = "{648, 622}";
}
);
paths = (
{
closed = 1;
nodes = (
"350 271 LINE",
"568 271 LINE",
"568 0 LINE",
"648 0 LINE",
"648 551 LINE",
"738 551 LINE",
"738 622 LINE",
"0 622 LINE",
"0 551 LINE",
"93 551 LINE",
"73 524 OFFCURVE",
"60 485 OFFCURVE",
"60 432 CURVE SMOOTH",
"60 315 OFFCURVE",
"141 271 OFFCURVE",
"244 271 CURVE SMOOTH",
"270 271 LINE",
"270 0 LINE",
"350 0 LINE"
);
},
{
closed = 1;
nodes = (
"350 388 LINE SMOOTH",
"350 458 OFFCURVE",
"337 514 OFFCURVE",
"311 551 CURVE",
"568 551 LINE",
"568 342 LINE",
"350 342 LINE"
);
},
{
closed = 1;
nodes = (
"140 512 OFFCURVE",
"170 533 OFFCURVE",
"202 533 CURVE SMOOTH",
"252 533 OFFCURVE",
"270 483 OFFCURVE",
"270 387 CURVE SMOOTH",
"270 342 LINE",
"246 342 LINE SMOOTH",
"219 342 OFFCURVE",
"140 342 OFFCURVE",
"140 431 CURVE SMOOTH"
);
}
);
};
layerId = UUID0;
paths = (
{
closed = 1;
nodes = (
"350 271 LINE",
"568 271 LINE",
"568 0 LINE",
"648 0 LINE",
"648 551 LINE",
"738 551 LINE",
"738 622 LINE",
"0 622 LINE",
"0 551 LINE",
"93 551 LINE",
"73 524 OFFCURVE",
"60 485 OFFCURVE",
"60 432 CURVE SMOOTH",
"60 315 OFFCURVE",
"141 271 OFFCURVE",
"244 271 CURVE SMOOTH",
"270 271 LINE",
"270 0 LINE",
"350 0 LINE"
);
},
{
closed = 1;
nodes = (
"350 388 LINE SMOOTH",
"350 458 OFFCURVE",
"337 514 OFFCURVE",
"311 551 CURVE",
"568 551 LINE",
"568 342 LINE",
"350 342 LINE"
);
},
{
closed = 1;
nodes = (
"140 512 OFFCURVE",
"170 533 OFFCURVE",
"202 533 CURVE SMOOTH",
"252 533 OFFCURVE",
"270 483 OFFCURVE",
"270 387 CURVE SMOOTH",
"270 342 LINE",
"246 342 LINE SMOOTH",
"219 342 OFFCURVE",
"140 342 OFFCURVE",
"140 431 CURVE SMOOTH"
);
}
);
width = 728;
}
);
unicode = 11625;
category = Letter;
},
{
glyphname = Ma;
lastChange = "2018-08-06 13:07:07 +0000";
layers = (
{
background = {
paths = (
{
closed = 1;
nodes = (
"0 551 LINE",
"79 551 LINE",
"101 464 OFFCURVE",
"111 362 OFFCURVE",
"111 284 CURVE SMOOTH",
"111 191 OFFCURVE",
"101 110 OFFCURVE",
"85 49 CURVE",
"79 34 OFFCURVE",
"74 17 OFFCURVE",
"69 0 CURVE",
"146 0 LINE",
"179 141 OFFCURVE",
"282 176 OFFCURVE",
"402 178 CURVE",
"405 56 OFFCURVE",
"447 -10 OFFCURVE",
"524 -10 CURVE SMOOTH",
"609 -10 OFFCURVE",
"626 58 OFFCURVE",
"626 85 CURVE SMOOTH",
"626 143 OFFCURVE",
"578 214 OFFCURVE",
"483 239 CURVE",
"487 314 OFFCURVE",
"502 422 OFFCURVE",
"547 551 CURVE",
"656 551 LINE",
"656 622 LINE",
"0 622 LINE"
);
},
{
closed = 1;
nodes = (
"315 247 OFFCURVE",
"240 228 OFFCURVE",
"182 184 CURVE",
"187 216 OFFCURVE",
"191 249 OFFCURVE",
"191 275 CURVE SMOOTH",
"191 358 OFFCURVE",
"181 451 OFFCURVE",
"162 551 CURVE",
"465 551 LINE",
"434 455 OFFCURVE",
"412 335 OFFCURVE",
"404 248 CURVE"
);
},
{
closed = 1;
nodes = (
"551 81 OFFCURVE",
"543 60 OFFCURVE",
"525 60 CURVE SMOOTH",
"504 60 OFFCURVE",
"484 81 OFFCURVE",
"482 167 CURVE",
"533 149 OFFCURVE",
"551 112 OFFCURVE",
"551 89 CURVE SMOOTH"
);
}
);
};
layerId = UUID0;
paths = (
{
closed = 1;
nodes = (
"0 551 LINE",
"79 551 LINE",
"101 464 OFFCURVE",
"111 362 OFFCURVE",
"111 284 CURVE SMOOTH",
"111 191 OFFCURVE",
"101 110 OFFCURVE",
"85 49 CURVE",
"79 34 OFFCURVE",
"74 17 OFFCURVE",
"69 0 CURVE",
"146 0 LINE",
"179 141 OFFCURVE",
"282 176 OFFCURVE",
"402 178 CURVE",
"405 56 OFFCURVE",
"447 -10 OFFCURVE",
"524 -10 CURVE SMOOTH",
"609 -10 OFFCURVE",
"626 58 OFFCURVE",
"626 85 CURVE SMOOTH",
"626 143 OFFCURVE",
"578 214 OFFCURVE",
"483 239 CURVE",
"487 314 OFFCURVE",
"502 422 OFFCURVE",
"547 551 CURVE",
"656 551 LINE",
"656 622 LINE",
"0 622 LINE"
);
},
{
closed = 1;
nodes = (
"315 247 OFFCURVE",
"240 228 OFFCURVE",
"182 184 CURVE",
"187 216 OFFCURVE",
"191 249 OFFCURVE",
"191 275 CURVE SMOOTH",
"191 358 OFFCURVE",
"181 451 OFFCURVE",
"162 551 CURVE",
"465 551 LINE",
"434 455 OFFCURVE",
"412 335 OFFCURVE",
"404 248 CURVE"
);
},
{
closed = 1;
nodes = (
"551 81 OFFCURVE",
"543 60 OFFCURVE",
"525 60 CURVE SMOOTH",
"504 60 OFFCURVE",
"484 81 OFFCURVE",
"482 167 CURVE",
"533 149 OFFCURVE",
"551 112 OFFCURVE",
"551 89 CURVE SMOOTH"
);
}
);
width = 646;
}
);
unicode = 11626;
category = Letter;
},
{
glyphname = Ya;
lastChange = "2018-08-06 13:07:07 +0000";
layers = (
{
background = {
anchors = (
{
name = Bottom;
position = "{323, -80}";
},
{
name = BtmCtr;
position = "{324, -80}";
},
{
name = Dot;
position = "{523, 718}";
},
{
name = Top;
position = "{568, 622}";
},
{
name = TopCtr;
position = "{324, 718}";
},
{
name = Vattu;
position = "{323, -70}";
}
);
paths = (
{
closed = 1;
nodes = (
"0 551 LINE",
"103 551 LINE",
"75 514 OFFCURVE",
"60 458 OFFCURVE",
"60 388 CURVE SMOOTH",
"60 171 OFFCURVE",
"128 -10 OFFCURVE",
"323 -10 CURVE SMOOTH",
"503 -10 OFFCURVE",
"568 144 OFFCURVE",
"568 301 CURVE SMOOTH",
"568 551 LINE",
"658 551 LINE",
"658 622 LINE",
"0 622 LINE"
);
},
{
closed = 1;
nodes = (
"183 64 OFFCURVE",
"147 219 OFFCURVE",
"140 337 CURVE",
"158 328 OFFCURVE",
"179 322 OFFCURVE",
"203 322 CURVE SMOOTH",
"280 322 OFFCURVE",
"340 385 OFFCURVE",
"340 462 CURVE SMOOTH",
"340 497 OFFCURVE",
"329 527 OFFCURVE",
"312 551 CURVE",
"488 551 LINE",
"488 302 LINE SMOOTH",
"488 186 OFFCURVE",
"448 64 OFFCURVE",
"324 64 CURVE SMOOTH"
);
},
{
closed = 1;
nodes = (
"249 533 OFFCURVE",
"270 502 OFFCURVE",
"270 461 CURVE SMOOTH",
"270 412 OFFCURVE",
"228 392 OFFCURVE",
"201 392 CURVE SMOOTH",
"176 392 OFFCURVE",
"156 401 OFFCURVE",
"139 414 CURVE",
"143 492 OFFCURVE",
"165 533 OFFCURVE",
"210 533 CURVE SMOOTH"
);
}
);
};
layerId = UUID0;
paths = (
{
closed = 1;
nodes = (
"0 551 LINE",
"103 551 LINE",
"75 514 OFFCURVE",
"60 458 OFFCURVE",
"60 388 CURVE SMOOTH",
"60 171 OFFCURVE",
"128 -10 OFFCURVE",
"323 -10 CURVE SMOOTH",
"503 -10 OFFCURVE",
"568 144 OFFCURVE",
"568 301 CURVE SMOOTH",
"568 551 LINE",
"658 551 LINE",
"658 622 LINE",
"0 622 LINE"
);
},
{
closed = 1;
nodes = (
"183 64 OFFCURVE",
"147 219 OFFCURVE",
"140 337 CURVE",
"158 328 OFFCURVE",
"179 322 OFFCURVE",
"203 322 CURVE SMOOTH",
"280 322 OFFCURVE",
"340 385 OFFCURVE",
"340 462 CURVE SMOOTH",
"340 497 OFFCURVE",
"329 527 OFFCURVE",
"312 551 CURVE",
"488 551 LINE",
"488 302 LINE SMOOTH",
"488 186 OFFCURVE",
"448 64 OFFCURVE",
"324 64 CURVE SMOOTH"
);
},
{
closed = 1;
nodes = (
"249 533 OFFCURVE",
"270 502 OFFCURVE",
"270 461 CURVE SMOOTH",
"270 412 OFFCURVE",
"228 392 OFFCURVE",
"201 392 CURVE SMOOTH",
"176 392 OFFCURVE",
"156 401 OFFCURVE",
"139 414 CURVE",
"143 492 OFFCURVE",
"165 533 OFFCURVE",
"210 533 CURVE SMOOTH"
);
}
);
width = 648;
}
);
unicode = 11627;
category = Letter;
},
{
glyphname = Ra;
lastChange = "2018-08-06 13:07:07 +0000";
layers = (
{
background = {
anchors = (
{
name = Bottom;
position = "{284, -80}";
},
{
name = BtmCtr;
position = "{285, -80}";
},
{
name = Dot;
position = "{415, 718}";
},
{
name = Top;
position = "{478, 622}";
},
{
name = TopCtr;
position = "{285, 718}";
},
{
name = Vattu;
position = "{286, -70}";
}
);
paths = (
{
closed = 1;
nodes = (
"580 622 LINE",
"0 622 LINE",
"0 551 LINE",
"393 551 LINE",
"382 523 OFFCURVE",
"378 498 OFFCURVE",
"378 474 CURVE SMOOTH",
"378 393 OFFCURVE",
"430 326 OFFCURVE",
"430 236 CURVE SMOOTH",
"430 139 OFFCURVE",
"373 64 OFFCURVE",
"284 64 CURVE SMOOTH",
"208 64 OFFCURVE",
"141 131 OFFCURVE",
"83 234 CURVE",
"19 194 LINE",
"83 74 OFFCURVE",
"165 -10 OFFCURVE",
"284 -10 CURVE SMOOTH",
"423 -10 OFFCURVE",
"510 93 OFFCURVE",
"510 227 CURVE SMOOTH",
"510 325 OFFCURVE",
"458 416 OFFCURVE",
"458 473 CURVE SMOOTH",
"458 501 OFFCURVE",
"462 523 OFFCURVE",
"478 551 CURVE",
"580 551 LINE"
);
}
);
};
layerId = UUID0;
paths = (
{
closed = 1;
nodes = (
"580 622 LINE",
"0 622 LINE",
"0 551 LINE",
"393 551 LINE",
"382 523 OFFCURVE",
"378 498 OFFCURVE",
"378 474 CURVE SMOOTH",
"378 393 OFFCURVE",
"430 326 OFFCURVE",
"430 236 CURVE SMOOTH",
"430 139 OFFCURVE",
"373 64 OFFCURVE",
"284 64 CURVE SMOOTH",
"208 64 OFFCURVE",
"141 131 OFFCURVE",
"83 234 CURVE",
"19 194 LINE",
"83 74 OFFCURVE",
"165 -10 OFFCURVE",
"284 -10 CURVE SMOOTH",
"423 -10 OFFCURVE",
"510 93 OFFCURVE",
"510 227 CURVE SMOOTH",
"510 325 OFFCURVE",
"458 416 OFFCURVE",
"458 473 CURVE SMOOTH",
"458 501 OFFCURVE",
"462 523 OFFCURVE",
"478 551 CURVE",
"580 551 LINE"
);
}
);
width = 570;
}
);
unicode = 11628;
category = Letter;
},
{
glyphname = La;
lastChange = "2018-08-06 13:07:07 +0000";
layers = (
{
background = {
anchors = (
{
name = Bottom;
position = "{325, -80}";
},
{
name = BtmCtr;
position = "{301, -80}";
},
{
name = Dot;
position = "{472, 718}";
},
{
name = Rakar;
position = "{359, 54}";
},
{
name = Top;
position = "{528, 622}";
},
{
name = TopCtr;
position = "{311, 718}";
},
{
name = Vattu;
position = "{311, -70}";
}
);
paths = (
{
closed = 1;
nodes = (
"632 622 LINE",
"0 622 LINE",
"0 551 LINE",
"79 551 LINE",
"64 523 OFFCURVE",
"60 489 OFFCURVE",
"60 457 CURVE SMOOTH",
"60 365 OFFCURVE",
"146 315 OFFCURVE",
"233 272 CURVE",
"175 236 OFFCURVE",
"130 192 OFFCURVE",
"130 126 CURVE SMOOTH",
"130 52 OFFCURVE",
"187 -10 OFFCURVE",
"300 -10 CURVE SMOOTH",
"323 -10 LINE SMOOTH",
"435 -9 OFFCURVE",
"492 52 OFFCURVE",
"492 126 CURVE SMOOTH",
"492 192 OFFCURVE",
"446 236 OFFCURVE",
"388 272 CURVE",
"475 315 OFFCURVE",
"562 365 OFFCURVE",
"562 457 CURVE SMOOTH",
"562 489 OFFCURVE",
"557 523 OFFCURVE",
"543 551 CURVE",
"632 551 LINE"
);
},
{
closed = 1;
nodes = (
"140 498 OFFCURVE",
"150 533 OFFCURVE",
"162 551 CURVE",
"460 551 LINE",
"471 533 OFFCURVE",
"482 498 OFFCURVE",
"482 464 CURVE SMOOTH",
"482 395 OFFCURVE",
"397 355 OFFCURVE",
"311 314 CURVE",
"224 355 OFFCURVE",
"140 395 OFFCURVE",
"140 464 CURVE SMOOTH"
);
},
{
closed = 1;
nodes = (
"412 83 OFFCURVE",
"371 62 OFFCURVE",
"321 62 CURVE SMOOTH",
"301 62 LINE SMOOTH",
"251 62 OFFCURVE",
"210 83 OFFCURVE",
"210 129 CURVE SMOOTH",
"210 174 OFFCURVE",
"254 205 OFFCURVE",
"311 235 CURVE",
"368 205 OFFCURVE",
"412 174 OFFCURVE",
"412 129 CURVE SMOOTH"
);
}
);
};
layerId = UUID0;
paths = (
{
closed = 1;
nodes = (
"632 622 LINE",
"0 622 LINE",
"0 551 LINE",
"79 551 LINE",
"64 523 OFFCURVE",
"60 489 OFFCURVE",
"60 457 CURVE SMOOTH",
"60 365 OFFCURVE",
"146 315 OFFCURVE",
"233 272 CURVE",
"175 236 OFFCURVE",
"130 192 OFFCURVE",
"130 126 CURVE SMOOTH",
"130 52 OFFCURVE",
"187 -10 OFFCURVE",
"300 -10 CURVE SMOOTH",
"323 -10 LINE SMOOTH",
"435 -9 OFFCURVE",
"492 52 OFFCURVE",
"492 126 CURVE SMOOTH",
"492 192 OFFCURVE",
"446 236 OFFCURVE",
"388 272 CURVE",
"475 315 OFFCURVE",
"562 365 OFFCURVE",
"562 457 CURVE SMOOTH",
"562 489 OFFCURVE",
"557 523 OFFCURVE",
"543 551 CURVE",
"632 551 LINE"
);
},
{
closed = 1;
nodes = (
"140 498 OFFCURVE",
"150 533 OFFCURVE",
"162 551 CURVE",
"460 551 LINE",
"471 533 OFFCURVE",
"482 498 OFFCURVE",
"482 464 CURVE SMOOTH",
"482 395 OFFCURVE",
"397 355 OFFCURVE",
"311 314 CURVE",
"224 355 OFFCURVE",
"140 395 OFFCURVE",
"140 464 CURVE SMOOTH"
);
},
{
closed = 1;
nodes = (
"412 83 OFFCURVE",
"371 62 OFFCURVE",
"321 62 CURVE SMOOTH",
"301 62 LINE SMOOTH",
"251 62 OFFCURVE",
"210 83 OFFCURVE",
"210 129 CURVE SMOOTH",
"210 174 OFFCURVE",
"254 205 OFFCURVE",
"311 235 CURVE",
"368 205 OFFCURVE",
"412 174 OFFCURVE",
"412 129 CURVE SMOOTH"
);
}
);
width = 622;
}
);
unicode = 11629;
category = Letter;
},
{
glyphname = Va;
lastChange = "2018-08-06 13:07:07 +0000";
layers = (
{
layerId = UUID0;
paths = (
{
closed = 1;
nodes = (
"0 551 LINE",
"83 551 LINE",
"69 487 OFFCURVE",
"60 383 OFFCURVE",
"60 303 CURVE SMOOTH",
"60 141 OFFCURVE",
"107 -10 OFFCURVE",
"284 -10 CURVE SMOOTH",
"380 -10 OFFCURVE",
"429 20 OFFCURVE",
"490 20 CURVE SMOOTH",
"517 20 OFFCURVE",
"522 10 OFFCURVE",
"553 -21 CURVE",
"627 9 LINE",
"608 35 OFFCURVE",
"593 54 OFFCURVE",
"578 66 CURVE",
"541 123 OFFCURVE",
"519 196 OFFCURVE",
"519 355 CURVE SMOOTH",
"519 420 OFFCURVE",
"529 485 OFFCURVE",
"546 551 CURVE",
"641 551 LINE",
"641 622 LINE",
"0 622 LINE"
);
},
{
closed = 1;
nodes = (
"159 61 OFFCURVE",
"140 189 OFFCURVE",
"140 296 CURVE SMOOTH",
"140 356 OFFCURVE",
"146 475 OFFCURVE",
"165 551 CURVE",
"464 551 LINE",
"448 484 OFFCURVE",
"438 417 OFFCURVE",
"438 352 CURVE SMOOTH",
"438 239 OFFCURVE",
"451 150 OFFCURVE",
"479 89 CURVE",
"410 85 OFFCURVE",
"356 61 OFFCURVE",
"283 61 CURVE SMOOTH"
);
}
);
width = 631;
}
);
unicode = 1162A;
category = Letter;
},
{
glyphname = Sha;
lastChange = "2018-08-06 13:07:01 +0000";
layers = (
{
background = {
anchors = (
{
name = Bottom;
position = "{446, 0}";
},
{
name = BtmCtr;
position = "{303, -80}";
},
{
name = Dot;
position = "{481, 718}";
},
{
name = Rakar;
position = "{446, 55}";
},
{
name = Top;
position = "{526, 622}";
}
);
paths = (
{
closed = 1;
nodes = (
"526 551 LINE",
"616 551 LINE",
"616 622 LINE",
"0 622 LINE",
"0 551 LINE",
"124 551 LINE",
"124 482 LINE",
"97 477 OFFCURVE",
"69 466 OFFCURVE",
"38 448 CURVE",
"66 382 LINE",
"100 402 OFFCURVE",
"130 411 OFFCURVE",
"153 411 CURVE SMOOTH",
"189 411 OFFCURVE",
"210 390 OFFCURVE",
"210 369 CURVE SMOOTH",
"210 285 OFFCURVE",
"50 244 OFFCURVE",
"50 119 CURVE SMOOTH",
"50 22 OFFCURVE",
"128 -10 OFFCURVE",
"210 -10 CURVE SMOOTH",
"260 -10 OFFCURVE",
"311 2 OFFCURVE",
"347 19 CURVE",
"328 88 LINE",
"305 76 OFFCURVE",
"255 62 OFFCURVE",
"212 62 CURVE SMOOTH",
"168 62 OFFCURVE",
"130 76 OFFCURVE",
"130 121 CURVE SMOOTH",
"130 211 OFFCURVE",
"290 243 OFFCURVE",
"290 369 CURVE SMOOTH",
"290 420 OFFCURVE",
"259 463 OFFCURVE",
"204 478 CURVE",
"204 551 LINE",
"446 551 LINE",
"446 0 LINE",
"526 0 LINE"
);
}
);
};
layerId = UUID0;
paths = (
{
closed = 1;
nodes = (
"526 551 LINE",
"616 551 LINE",
"616 622 LINE",
"0 622 LINE",
"0 551 LINE",
"124 551 LINE",
"124 482 LINE",
"97 477 OFFCURVE",
"69 466 OFFCURVE",
"38 448 CURVE",
"66 382 LINE",
"100 402 OFFCURVE",
"130 411 OFFCURVE",
"153 411 CURVE SMOOTH",
"189 411 OFFCURVE",
"210 390 OFFCURVE",
"210 369 CURVE SMOOTH",
"210 285 OFFCURVE",
"50 244 OFFCURVE",
"50 119 CURVE SMOOTH",
"50 22 OFFCURVE",
"128 -10 OFFCURVE",
"210 -10 CURVE SMOOTH",
"260 -10 OFFCURVE",
"311 2 OFFCURVE",
"347 19 CURVE",
"328 88 LINE",
"305 76 OFFCURVE",
"255 62 OFFCURVE",
"212 62 CURVE SMOOTH",
"168 62 OFFCURVE",
"130 76 OFFCURVE",
"130 121 CURVE SMOOTH",
"130 211 OFFCURVE",
"290 243 OFFCURVE",
"290 369 CURVE SMOOTH",
"290 420 OFFCURVE",
"259 463 OFFCURVE",
"204 478 CURVE",
"204 551 LINE",
"446 551 LINE",
"446 0 LINE",
"526 0 LINE"
);
}
);
width = 606;
}
);
unicode = 1162B;
category = Letter;
},
{
glyphname = Ssa;
lastChange = "2018-08-06 13:07:01 +0000";
layers = (
{
background = {
anchors = (
{
name = Bottom;
position = "{427, 0}";
},
{
name = Dot;
position = "{462, 718}";
},
{
name = Rakar;
position = "{427, 140}";
},
{
name = Top;
position = "{507, 622}";
}
);
paths = (
{
closed = 1;
nodes = (
"507 551 LINE",
"597 551 LINE",
"597 622 LINE",
"0 622 LINE",
"0 551 LINE",
"80 551 LINE",
"80 358 LINE SMOOTH",
"80 236 OFFCURVE",
"126 146 OFFCURVE",
"255 146 CURVE SMOOTH",
"294 146 OFFCURVE",
"361 154 OFFCURVE",
"427 196 CURVE",
"427 0 LINE",
"507 0 LINE"
);
},
{
closed = 1;
nodes = (
"163 217 OFFCURVE",
"160 292 OFFCURVE",
"160 355 CURVE SMOOTH",
"160 507 LINE",
"388 255 LINE",
"340 224 OFFCURVE",
"286 217 OFFCURVE",
"263 217 CURVE SMOOTH"
);
},
{
closed = 1;
nodes = (
"427 551 LINE",
"427 308 LINE",
"205 551 LINE"
);
}
);
};
layerId = UUID0;
paths = (
{
closed = 1;
nodes = (
"507 551 LINE",
"597 551 LINE",
"597 622 LINE",
"0 622 LINE",
"0 551 LINE",
"80 551 LINE",
"80 358 LINE SMOOTH",
"80 236 OFFCURVE",
"126 146 OFFCURVE",
"255 146 CURVE SMOOTH",
"294 146 OFFCURVE",
"361 154 OFFCURVE",
"427 196 CURVE",
"427 0 LINE",
"507 0 LINE"
);
},
{
closed = 1;
nodes = (
"163 217 OFFCURVE",
"160 292 OFFCURVE",
"160 355 CURVE SMOOTH",
"160 507 LINE",
"388 255 LINE",
"340 224 OFFCURVE",
"286 217 OFFCURVE",
"263 217 CURVE SMOOTH"
);
},
{
closed = 1;
nodes = (
"427 551 LINE",
"427 308 LINE",
"205 551 LINE"
);
}
);
width = 587;
}
);
unicode = 1162C;
category = Letter;
},
{
glyphname = Sa;
lastChange = "2018-08-06 13:07:07 +0000";
layers = (
{
background = {
anchors = (
{
name = Bottom;
position = "{325, -80}";
},
{
name = BtmCtr;
position = "{325, -80}";
},
{
name = Dot;
position = "{492, 718}";
},
{
name = Rakar;
position = "{359, 54}";
},
{
name = Top;
position = "{524, 622}";
},
{
name = TopCtr;
position = "{324, 718}";
},
{
name = Vattu;
position = "{323, -70}";
}
);
paths = (
{
closed = 1;
nodes = (
"0 551 LINE",
"107 551 LINE",
"88 488 OFFCURVE",
"80 416 OFFCURVE",
"80 339 CURVE SMOOTH",
"80 301 LINE SMOOTH",
"80 144 OFFCURVE",
"145 -10 OFFCURVE",
"325 -10 CURVE SMOOTH",
"520 -10 OFFCURVE",
"588 171 OFFCURVE",
"588 388 CURVE SMOOTH",
"588 458 OFFCURVE",
"573 514 OFFCURVE",
"544 551 CURVE",
"658 551 LINE",
"658 622 LINE",
"0 622 LINE"
);
},
{
closed = 1;
nodes = (
"308 385 OFFCURVE",
"368 322 OFFCURVE",
"445 322 CURVE SMOOTH",
"468 322 OFFCURVE",
"490 328 OFFCURVE",
"507 337 CURVE",
"500 219 OFFCURVE",
"464 64 OFFCURVE",
"324 64 CURVE SMOOTH",
"200 64 OFFCURVE",
"160 186 OFFCURVE",
"160 302 CURVE SMOOTH",
"160 352 LINE SMOOTH",
"161 419 OFFCURVE",
"170 490 OFFCURVE",
"190 551 CURVE",
"335 551 LINE",
"318 527 OFFCURVE",
"308 497 OFFCURVE",
"308 462 CURVE SMOOTH"
);
},
{
closed = 1;
nodes = (
"420 392 OFFCURVE",
"378 412 OFFCURVE",
"378 461 CURVE SMOOTH",
"378 502 OFFCURVE",
"399 533 OFFCURVE",
"438 533 CURVE SMOOTH",
"483 533 OFFCURVE",
"504 492 OFFCURVE",
"508 414 CURVE",
"491 401 OFFCURVE",
"471 392 OFFCURVE",
"447 392 CURVE SMOOTH"
);
}
);
};
layerId = UUID0;
paths = (
{
closed = 1;
nodes = (
"0 551 LINE",
"107 551 LINE",
"88 488 OFFCURVE",
"80 416 OFFCURVE",
"80 339 CURVE SMOOTH",
"80 301 LINE SMOOTH",
"80 144 OFFCURVE",
"145 -10 OFFCURVE",
"325 -10 CURVE SMOOTH",
"520 -10 OFFCURVE",
"588 171 OFFCURVE",
"588 388 CURVE SMOOTH",
"588 458 OFFCURVE",
"573 514 OFFCURVE",
"544 551 CURVE",
"658 551 LINE",
"658 622 LINE",
"0 622 LINE"
);
},
{
closed = 1;
nodes = (
"308 385 OFFCURVE",
"368 322 OFFCURVE",
"445 322 CURVE SMOOTH",
"468 322 OFFCURVE",
"490 328 OFFCURVE",
"507 337 CURVE",
"500 219 OFFCURVE",
"464 64 OFFCURVE",
"324 64 CURVE SMOOTH",
"200 64 OFFCURVE",
"160 186 OFFCURVE",
"160 302 CURVE SMOOTH",
"160 352 LINE SMOOTH",
"160 419 OFFCURVE",
"170 490 OFFCURVE",
"190 551 CURVE",
"335 551 LINE",
"318 527 OFFCURVE",
"308 497 OFFCURVE",
"308 462 CURVE SMOOTH"
);
},
{
closed = 1;
nodes = (
"420 392 OFFCURVE",
"378 412 OFFCURVE",
"378 461 CURVE SMOOTH",
"378 502 OFFCURVE",
"399 533 OFFCURVE",
"438 533 CURVE SMOOTH",
"483 533 OFFCURVE",
"504 492 OFFCURVE",
"508 414 CURVE",
"491 401 OFFCURVE",
"471 392 OFFCURVE",
"447 392 CURVE SMOOTH"
);
}
);
width = 648;
}
);
unicode = 1162D;
category = Letter;
},
{
glyphname = Ha;
lastChange = "2018-08-06 13:07:07 +0000";
layers = (
{
background = {
anchors = (
{
name = Bottom;
position = "{295, -80}";
},
{
name = BtmCtr;
position = "{315, -80}";
},
{
name = Dot;
position = "{508, 718}";
},
{
name = Rakar;
position = "{335, 54}";
},
{
name = Top;
position = "{553, 622}";
},
{
name = TopCtr;
position = "{316, 718}";
},
{
name = Vattu;
position = "{312, -70}";
}
);
paths = (
{
closed = 1;
nodes = (
"643 622 LINE",
"0 622 LINE",
"0 551 LINE",
"28 551 LINE",
"47 503 OFFCURVE",
"82 429 OFFCURVE",
"129 373 CURVE",
"82 325 OFFCURVE",
"60 266 OFFCURVE",
"60 209 CURVE SMOOTH",
"60 95 OFFCURVE",
"150 -10 OFFCURVE",
"295 -10 CURVE SMOOTH",
"492 -10 OFFCURVE",
"553 147 OFFCURVE",
"553 301 CURVE SMOOTH",
"553 551 LINE",
"643 551 LINE"
);
},
{
closed = 1;
nodes = (
"473 302 LINE SMOOTH",
"473 169 OFFCURVE",
"427 64 OFFCURVE",
"295 64 CURVE SMOOTH",
"198 64 OFFCURVE",
"140 132 OFFCURVE",
"140 210 CURVE SMOOTH",
"140 263 OFFCURVE",
"169 320 OFFCURVE",
"229 363 CURVE",
"196 395 OFFCURVE",
"132 494 OFFCURVE",
"114 551 CURVE",
"473 551 LINE"
);
}
);
};
layerId = UUID0;
paths = (
{
closed = 1;
nodes = (
"643 622 LINE",
"0 622 LINE",
"0 551 LINE",
"28 551 LINE",
"47 503 OFFCURVE",
"82 429 OFFCURVE",
"129 373 CURVE",
"82 325 OFFCURVE",
"60 266 OFFCURVE",
"60 209 CURVE SMOOTH",
"60 95 OFFCURVE",
"150 -10 OFFCURVE",
"295 -10 CURVE SMOOTH",
"492 -10 OFFCURVE",
"553 147 OFFCURVE",
"553 301 CURVE SMOOTH",
"553 551 LINE",
"643 551 LINE"
);
},
{
closed = 1;
nodes = (
"473 302 LINE SMOOTH",
"473 169 OFFCURVE",
"427 64 OFFCURVE",
"295 64 CURVE SMOOTH",
"198 64 OFFCURVE",
"140 132 OFFCURVE",
"140 210 CURVE SMOOTH",
"140 263 OFFCURVE",
"169 320 OFFCURVE",
"229 363 CURVE",
"196 395 OFFCURVE",
"132 494 OFFCURVE",
"114 551 CURVE",
"473 551 LINE"
);
}
);
width = 633;
}
);
unicode = 1162E;
category = Letter;
},
{
glyphname = Lla;
lastChange = "2018-08-06 13:07:07 +0000";
layers = (
{
background = {
anchors = (
{
name = Bottom;
position = "{555, -80}";
},
{
name = BtmCtr;
position = "{391, -80}";
},
{
name = Dot;
position = "{634, 718}";
},
{
name = Rakar;
position = "{575, 50}";
},
{
name = Top;
position = "{432, 622}";
},
{
name = TopCtr;
position = "{391, 718}";
},
{
name = Vattu;
position = "{391, -80}";
}
);
paths = (
{
closed = 1;
nodes = (
"792 622 LINE",
"0 622 LINE",
"0 551 LINE",
"350 551 LINE",
"350 341 LINE",
"314 381 OFFCURVE",
"270 398 OFFCURVE",
"214 398 CURVE SMOOTH",
"108 398 OFFCURVE",
"40 318 OFFCURVE",
"40 195 CURVE SMOOTH",
"40 63 OFFCURVE",
"126 -10 OFFCURVE",
"222 -10 CURVE SMOOTH",
"289 -10 OFFCURVE",
"344 18 OFFCURVE",
"391 105 CURVE",
"448 1 OFFCURVE",
"509 -10 OFFCURVE",
"556 -10 CURVE SMOOTH",
"668 -10 OFFCURVE",
"742 78 OFFCURVE",
"742 193 CURVE SMOOTH",
"742 295 OFFCURVE",
"691 398 OFFCURVE",
"564 398 CURVE SMOOTH",
"514 398 OFFCURVE",
"472 386 OFFCURVE",
"432 337 CURVE",
"432 551 LINE",
"792 551 LINE"
);
},
{
closed = 1;
nodes = (
"173 61 OFFCURVE",
"120 99 OFFCURVE",
"120 191 CURVE SMOOTH",
"120 285 OFFCURVE",
"165 327 OFFCURVE",
"225 327 CURVE SMOOTH",
"257 327 OFFCURVE",
"314 303 OFFCURVE",
"353 192 CURVE",
"348 181 LINE SMOOTH",
"310 98 OFFCURVE",
"274 61 OFFCURVE",
"224 61 CURVE SMOOTH"
);
},
{
closed = 1;
nodes = (
"438 206 LINE SMOOTH",
"477 290 OFFCURVE",
"507 327 OFFCURVE",
"557 327 CURVE SMOOTH",
"617 327 OFFCURVE",
"662 290 OFFCURVE",
"662 196 CURVE SMOOTH",
"662 107 OFFCURVE",
"620 61 OFFCURVE",
"555 61 CURVE SMOOTH",
"528 61 OFFCURVE",
"481 73 OFFCURVE",
"430 189 CURVE"
);
}
);
};
layerId = UUID0;
paths = (
{
closed = 1;
nodes = (
"792 622 LINE",
"0 622 LINE",
"0 551 LINE",
"350 551 LINE",
"350 341 LINE",
"314 381 OFFCURVE",
"270 398 OFFCURVE",
"214 398 CURVE SMOOTH",
"108 398 OFFCURVE",
"40 318 OFFCURVE",
"40 195 CURVE SMOOTH",
"40 63 OFFCURVE",
"126 -10 OFFCURVE",
"222 -10 CURVE SMOOTH",
"289 -10 OFFCURVE",
"344 18 OFFCURVE",
"391 105 CURVE",
"448 1 OFFCURVE",
"509 -10 OFFCURVE",
"556 -10 CURVE SMOOTH",
"668 -10 OFFCURVE",
"742 78 OFFCURVE",
"742 193 CURVE SMOOTH",
"742 295 OFFCURVE",
"691 398 OFFCURVE",
"564 398 CURVE SMOOTH",
"514 398 OFFCURVE",
"472 386 OFFCURVE",
"432 337 CURVE",
"432 551 LINE",
"792 551 LINE"
);
},
{
closed = 1;
nodes = (
"173 61 OFFCURVE",
"120 99 OFFCURVE",
"120 191 CURVE SMOOTH",
"120 285 OFFCURVE",
"165 327 OFFCURVE",
"225 327 CURVE SMOOTH",
"257 327 OFFCURVE",
"314 303 OFFCURVE",
"353 192 CURVE",
"348 181 LINE SMOOTH",
"310 98 OFFCURVE",
"274 61 OFFCURVE",
"224 61 CURVE SMOOTH"
);
},
{
closed = 1;
nodes = (
"438 206 LINE SMOOTH",
"477 290 OFFCURVE",
"507 327 OFFCURVE",
"557 327 CURVE SMOOTH",
"617 327 OFFCURVE",
"662 290 OFFCURVE",
"662 196 CURVE SMOOTH",
"662 107 OFFCURVE",
"620 61 OFFCURVE",
"555 61 CURVE SMOOTH",
"528 61 OFFCURVE",
"481 73 OFFCURVE",
"430 189 CURVE"
);
}
);
width = 782;
}
);
unicode = 1162F;
category = Letter;
},
{
glyphname = AA_dv;
lastChange = "2018-08-06 13:07:05 +0000";
layers = (
{
background = {
anchors = (
{
name = Dot;
position = "{115, 718}";
},
{
name = TopCtr;
position = "{-74, 880}";
}
);
paths = (
{
closed = 1;
nodes = (
"160 551 LINE",
"250 551 LINE",
"250 622 LINE",
"0 622 LINE",
"0 551 LINE",
"80 551 LINE",
"80 0 LINE",
"160 0 LINE"
);
}
);
};
layerId = UUID0;
paths = (
{
closed = 1;
nodes = (
"160 551 LINE",
"250 551 LINE",
"250 622 LINE",
"0 622 LINE",
"0 551 LINE",
"80 551 LINE",
"80 0 LINE",
"160 0 LINE"
);
}
);
width = 240;
}
);
unicode = 11630;
category = Letter;
},
{
glyphname = I_dv;
lastChange = "2018-08-06 13:07:05 +0000";
layers = (
{
background = {
anchors = (
{
name = Dot;
position = "{195, 758}";
},
{
name = TopCtr;
position = "{230, 806}";
}
);
paths = (
{
closed = 1;
nodes = (
"-30 551 LINE",
"80 551 LINE",
"80 0 LINE",
"160 0 LINE",
"160 551 LINE",
"250 551 LINE",
"250 622 LINE",
"154 622 LINE",
"101 796 OFFCURVE",
"37 878 OFFCURVE",
"-68 878 CURVE SMOOTH",
"-148 878 OFFCURVE",
"-200 815 OFFCURVE",
"-200 724 CURVE SMOOTH",
"-200 685 OFFCURVE",
"-194 649 OFFCURVE",
"-180 612 CURVE",
"-98 612 LINE",
"-110 642 OFFCURVE",
"-120 676 OFFCURVE",
"-120 719 CURVE SMOOTH",
"-120 769 OFFCURVE",
"-104 806 OFFCURVE",
"-62 806 CURVE SMOOTH",
"2 806 OFFCURVE",
"37 725 OFFCURVE",
"75 622 CURVE",
"-30 622 LINE"
);
}
);
};
layerId = UUID0;
paths = (
{
closed = 1;
nodes = (
"-30 551 LINE",
"80 551 LINE",
"80 0 LINE",
"160 0 LINE",
"160 551 LINE",
"250 551 LINE",
"250 622 LINE",
"154 622 LINE",
"101 796 OFFCURVE",
"37 878 OFFCURVE",
"-68 878 CURVE SMOOTH",
"-148 878 OFFCURVE",
"-200 815 OFFCURVE",
"-200 724 CURVE SMOOTH",
"-200 685 OFFCURVE",
"-194 649 OFFCURVE",
"-180 612 CURVE",
"-98 612 LINE",
"-110 642 OFFCURVE",
"-120 676 OFFCURVE",
"-120 719 CURVE SMOOTH",
"-120 769 OFFCURVE",
"-104 806 OFFCURVE",
"-62 806 CURVE SMOOTH",
"2 806 OFFCURVE",
"37 725 OFFCURVE",
"75 622 CURVE",
"-30 622 LINE"
);
}
);
width = 240;
}
);
unicode = 11631;
category = Letter;
},
{
glyphname = II_dv;
lastChange = "2018-08-06 13:07:05 +0000";
layers = (
{
background = {
anchors = (
{
name = Dot;
position = "{242, 758}";
},
{
name = TopCtr;
position = "{264, 806}";
}
);
paths = (
{
closed = 1;
nodes = (
"-30 551 LINE",
"153 551 LINE",
"162 520 OFFCURVE",
"169 487 OFFCURVE",
"175 455 CURVE",
"100 377 OFFCURVE",
"46 274 OFFCURVE",
"46 161 CURVE SMOOTH",
"46 55 OFFCURVE",
"84 -10 OFFCURVE",
"158 -10 CURVE SMOOTH",
"257 -10 OFFCURVE",
"277 106 OFFCURVE",
"277 207 CURVE SMOOTH",
"277 302 OFFCURVE",
"264 433 OFFCURVE",
"234 551 CURVE",
"336 551 LINE",
"336 622 LINE",
"213 622 LINE",
"165 764 OFFCURVE",
"77 878 OFFCURVE",
"-61 878 CURVE SMOOTH",
"-162 878 OFFCURVE",
"-199 801 OFFCURVE",
"-199 718 CURVE SMOOTH",
"-199 682 OFFCURVE",
"-192 645 OFFCURVE",
"-180 612 CURVE",
"-98 612 LINE",
"-110 645 OFFCURVE",
"-121 686 OFFCURVE",
"-121 723 CURVE SMOOTH",
"-121 768 OFFCURVE",
"-104 805 OFFCURVE",
"-53 805 CURVE SMOOTH",
"30 805 OFFCURVE",
"91 727 OFFCURVE",
"130 622 CURVE",
"-30 622 LINE"
);
},
{
closed = 1;
nodes = (
"197 119 OFFCURVE",
"187 61 OFFCURVE",
"160 61 CURVE SMOOTH",
"137 61 OFFCURVE",
"126 105 OFFCURVE",
"126 161 CURVE SMOOTH",
"126 235 OFFCURVE",
"147 304 OFFCURVE",
"188 361 CURVE",
"194 303 OFFCURVE",
"197 247 OFFCURVE",
"197 198 CURVE SMOOTH"
);
}
);
};
layerId = UUID0;
paths = (
{
closed = 1;
nodes = (
"-30 551 LINE",
"153 551 LINE",
"162 520 OFFCURVE",
"169 487 OFFCURVE",
"175 455 CURVE",
"100 377 OFFCURVE",
"46 274 OFFCURVE",
"46 161 CURVE SMOOTH",
"46 55 OFFCURVE",
"84 -10 OFFCURVE",
"158 -10 CURVE SMOOTH",
"257 -10 OFFCURVE",
"277 106 OFFCURVE",
"277 207 CURVE SMOOTH",
"277 302 OFFCURVE",
"264 433 OFFCURVE",
"234 551 CURVE",
"336 551 LINE",
"336 622 LINE",
"213 622 LINE",
"165 764 OFFCURVE",
"77 878 OFFCURVE",
"-61 878 CURVE SMOOTH",
"-162 878 OFFCURVE",
"-199 801 OFFCURVE",
"-199 718 CURVE SMOOTH",
"-199 682 OFFCURVE",
"-192 645 OFFCURVE",
"-180 612 CURVE",
"-98 612 LINE",
"-110 645 OFFCURVE",
"-121 686 OFFCURVE",
"-121 723 CURVE SMOOTH",
"-121 768 OFFCURVE",
"-104 805 OFFCURVE",
"-53 805 CURVE SMOOTH",
"30 805 OFFCURVE",
"91 727 OFFCURVE",
"130 622 CURVE",
"-30 622 LINE"
);
},
{
closed = 1;
nodes = (
"197 119 OFFCURVE",
"187 61 OFFCURVE",
"160 61 CURVE SMOOTH",
"137 61 OFFCURVE",
"126 105 OFFCURVE",
"126 161 CURVE SMOOTH",
"126 235 OFFCURVE",
"147 304 OFFCURVE",
"188 361 CURVE",
"194 303 OFFCURVE",
"197 247 OFFCURVE",
"197 198 CURVE SMOOTH"
);
}
);
width = 326;
}
);
unicode = 11632;
category = Letter;
},
{
glyphname = U_dv;
lastChange = "2018-08-06 13:07:09 +0000";
layers = (
{
background = {
anchors = (
{
name = _Bottom;
position = "{-159, -50}";
}
);
paths = (
{
closed = 1;
nodes = (
"-387 -99 LINE",
"-314 -170 OFFCURVE",
"-237 -202 OFFCURVE",
"-151 -202 CURVE SMOOTH",
"-87 -202 OFFCURVE",
"-61 -177 OFFCURVE",
"-61 -147 CURVE SMOOTH",
"-61 -107 OFFCURVE",
"-108 -98 OFFCURVE",
"-131 -98 CURVE SMOOTH",
"-156 -98 OFFCURVE",
"-181 -102 OFFCURVE",
"-213 -117 CURVE",
"-239 -51 LINE",
"-204 -37 OFFCURVE",
"-177 -30 OFFCURVE",
"-131 -30 CURVE SMOOTH",
"-47 -30 OFFCURVE",
"17 -72 OFFCURVE",
"17 -150 CURVE SMOOTH",
"17 -216 OFFCURVE",
"-37 -270 OFFCURVE",
"-149 -270 CURVE SMOOTH",
"-273 -270 OFFCURVE",
"-364 -225 OFFCURVE",
"-442 -144 CURVE"
);
}
);
};
layerId = UUID0;
paths = (
{
closed = 1;
nodes = (
"-364 -225 OFFCURVE",
"-273 -270 OFFCURVE",
"-149 -270 CURVE SMOOTH",
"-37 -270 OFFCURVE",
"17 -216 OFFCURVE",
"17 -150 CURVE SMOOTH",
"17 -72 OFFCURVE",
"-47 -30 OFFCURVE",
"-131 -30 CURVE SMOOTH",
"-177 -30 OFFCURVE",
"-204 -37 OFFCURVE",
"-239 -51 CURVE",
"-213 -117 LINE",
"-181 -102 OFFCURVE",
"-156 -98 OFFCURVE",
"-131 -98 CURVE SMOOTH",
"-108 -98 OFFCURVE",
"-61 -107 OFFCURVE",
"-61 -147 CURVE SMOOTH",
"-61 -177 OFFCURVE",
"-87 -202 OFFCURVE",
"-151 -202 CURVE SMOOTH",
"-237 -202 OFFCURVE",
"-314 -170 OFFCURVE",
"-387 -99 CURVE",
"-442 -144 LINE"
);
}
);
width = 0;
}
);
unicode = 11633;
category = Mark;
},
{
glyphname = UU_dv;
lastChange = "2018-08-06 13:07:09 +0000";
layers = (
{
background = {
anchors = (
{
name = _Bottom;
position = "{-179, -50}";
}
);
paths = (
{
closed = 1;
nodes = (
"102 -237 LINE",
"29 -166 OFFCURVE",
"-68 -98 OFFCURVE",
"-154 -98 CURVE SMOOTH",
"-218 -98 OFFCURVE",
"-244 -124 OFFCURVE",
"-244 -154 CURVE SMOOTH",
"-244 -194 OFFCURVE",
"-197 -202 OFFCURVE",
"-174 -202 CURVE SMOOTH",
"-149 -202 OFFCURVE",
"-124 -198 OFFCURVE",
"-92 -183 CURVE",
"-66 -249 LINE",
"-101 -263 OFFCURVE",
"-128 -270 OFFCURVE",
"-167 -270 CURVE SMOOTH",
"-258 -270 OFFCURVE",
"-322 -229 OFFCURVE",
"-322 -151 CURVE SMOOTH",
"-322 -85 OFFCURVE",
"-268 -30 OFFCURVE",
"-156 -30 CURVE SMOOTH",
"-32 -30 OFFCURVE",
"81 -107 OFFCURVE",
"159 -188 CURVE"
);
}
);
};
layerId = UUID0;
paths = (
{
closed = 1;
nodes = (
"81 -107 OFFCURVE",
"-32 -30 OFFCURVE",
"-156 -30 CURVE SMOOTH",
"-268 -30 OFFCURVE",
"-322 -85 OFFCURVE",
"-322 -151 CURVE SMOOTH",
"-322 -229 OFFCURVE",
"-258 -270 OFFCURVE",
"-167 -270 CURVE SMOOTH",
"-128 -270 OFFCURVE",
"-101 -263 OFFCURVE",
"-66 -249 CURVE",
"-92 -183 LINE",
"-124 -198 OFFCURVE",
"-149 -202 OFFCURVE",
"-174 -202 CURVE SMOOTH",
"-197 -202 OFFCURVE",
"-244 -194 OFFCURVE",
"-244 -154 CURVE SMOOTH",
"-244 -124 OFFCURVE",
"-218 -98 OFFCURVE",
"-154 -98 CURVE SMOOTH",
"-68 -98 OFFCURVE",
"29 -166 OFFCURVE",
"102 -237 CURVE",
"159 -188 LINE"
);
}
);
width = 0;
}
);
unicode = 11634;
category = Mark;
},
{
glyphname = VocR_dv;
lastChange = "2018-08-06 13:07:09 +0000";
layers = (
{
background = {
anchors = (
{
name = _Bottom;
position = "{-143, -50}";
}
);
paths = (
{
closed = 1;
nodes = (
"39 -247 LINE",
"12 -258 OFFCURVE",
"-36 -270 OFFCURVE",
"-82 -270 CURVE SMOOTH",
"-178 -270 OFFCURVE",
"-232 -216 OFFCURVE",
"-232 -150 CURVE SMOOTH",
"-232 -79 OFFCURVE",
"-155 -20 OFFCURVE",
"-64 -20 CURVE",
"-57 -85 LINE",
"-80 -85 OFFCURVE",
"-154 -107 OFFCURVE",
"-154 -147 CURVE SMOOTH",
"-154 -177 OFFCURVE",
"-128 -202 OFFCURVE",
"-81 -202 CURVE SMOOTH",
"-45 -202 OFFCURVE",
"-13 -195 OFFCURVE",
"18 -185 CURVE"
);
}
);
};
layerId = UUID0;
paths = (
{
closed = 1;
nodes = (
"-13 -195 OFFCURVE",
"-45 -202 OFFCURVE",
"-81 -202 CURVE SMOOTH",
"-128 -202 OFFCURVE",
"-154 -177 OFFCURVE",
"-154 -147 CURVE SMOOTH",
"-154 -107 OFFCURVE",
"-80 -85 OFFCURVE",
"-57 -85 CURVE",
"-64 -20 LINE",
"-155 -20 OFFCURVE",
"-232 -79 OFFCURVE",
"-232 -150 CURVE SMOOTH",
"-232 -216 OFFCURVE",
"-178 -270 OFFCURVE",
"-82 -270 CURVE SMOOTH",
"-36 -270 OFFCURVE",
"12 -258 OFFCURVE",
"39 -247 CURVE",
"18 -185 LINE"
);
}
);
width = 0;
}
);
unicode = 11635;
category = Mark;
},
{
glyphname = VocRR_dv;
lastChange = "2018-08-06 13:07:09 +0000";
layers = (
{
background = {
anchors = (
{
name = _Bottom;
position = "{-163, -50}";
}
);
paths = (
{
closed = 1;
nodes = (
"-3 -229 LINE",
"-35 -241 OFFCURVE",
"-65 -247 OFFCURVE",
"-96 -247 CURVE SMOOTH",
"-105 -247 OFFCURVE",
"-114 -247 OFFCURVE",
"-122 -246 CURVE",
"-132 -255 OFFCURVE",
"-137 -265 OFFCURVE",
"-137 -280 CURVE SMOOTH",
"-137 -314 OFFCURVE",
"-104 -332 OFFCURVE",
"-67 -332 CURVE SMOOTH",
"-31 -332 OFFCURVE",
"-2 -322 OFFCURVE",
"25 -307 CURVE",
"50 -372 LINE",
"11 -392 OFFCURVE",
"-25 -400 OFFCURVE",
"-74 -400 CURVE SMOOTH",
"-156 -400 OFFCURVE",
"-209 -355 OFFCURVE",
"-209 -285 CURVE SMOOTH",
"-209 -263 OFFCURVE",
"-203 -242 OFFCURVE",
"-190 -225 CURVE",
"-222 -206 OFFCURVE",
"-239 -176 OFFCURVE",
"-239 -140 CURVE SMOOTH",
"-239 -82 OFFCURVE",
"-192 -31 OFFCURVE",
"-84 -25 CURVE",
"-79 -85 LINE",
"-143 -91 OFFCURVE",
"-167 -112 OFFCURVE",
"-167 -136 CURVE SMOOTH",
"-167 -170 OFFCURVE",
"-135 -179 OFFCURVE",
"-101 -179 CURVE SMOOTH",
"-73 -179 OFFCURVE",
"-47 -175 OFFCURVE",
"-23 -164 CURVE"
);
}
);
};
layerId = UUID0;
paths = (
{
closed = 1;
nodes = (
"-47 -175 OFFCURVE",
"-73 -179 OFFCURVE",
"-101 -179 CURVE SMOOTH",
"-135 -179 OFFCURVE",
"-167 -170 OFFCURVE",
"-167 -136 CURVE SMOOTH",
"-167 -112 OFFCURVE",
"-143 -91 OFFCURVE",
"-79 -85 CURVE",
"-84 -25 LINE",
"-192 -31 OFFCURVE",
"-239 -82 OFFCURVE",
"-239 -140 CURVE SMOOTH",
"-239 -176 OFFCURVE",
"-222 -206 OFFCURVE",
"-190 -225 CURVE",
"-203 -242 OFFCURVE",
"-209 -263 OFFCURVE",
"-209 -285 CURVE SMOOTH",
"-209 -355 OFFCURVE",
"-156 -400 OFFCURVE",
"-74 -400 CURVE SMOOTH",
"-25 -400 OFFCURVE",
"11 -392 OFFCURVE",
"50 -372 CURVE",
"25 -307 LINE",
"-2 -322 OFFCURVE",
"-31 -332 OFFCURVE",
"-67 -332 CURVE SMOOTH",
"-104 -332 OFFCURVE",
"-137 -314 OFFCURVE",
"-137 -280 CURVE SMOOTH",
"-137 -265 OFFCURVE",
"-132 -255 OFFCURVE",
"-122 -246 CURVE",
"-114 -247 OFFCURVE",
"-105 -247 OFFCURVE",
"-96 -247 CURVE SMOOTH",
"-65 -247 OFFCURVE",
"-35 -241 OFFCURVE",
"-3 -229 CURVE",
"-23 -164 LINE"
);
}
);
width = 0;
}
);
unicode = 11636;
category = Mark;
},
{
glyphname = VocL_dv;
lastChange = "2018-08-06 13:07:12 +0000";
layers = (
{
background = {
anchors = (
{
name = _Bottom;
position = "{-146, -50}";
},
{
name = _BtmCtr;
position = "{-202, -50}";
}
);
paths = (
{
closed = 1;
nodes = (
"-290 -262 LINE",
"-315 -228 OFFCURVE",
"-334 -194 OFFCURVE",
"-334 -156 CURVE SMOOTH",
"-334 -123 OFFCURVE",
"-319 -98 OFFCURVE",
"-289 -98 CURVE SMOOTH",
"-261 -98 OFFCURVE",
"-240 -117 OFFCURVE",
"-231 -166 CURVE",
"-172 -166 LINE",
"-170 -122 OFFCURVE",
"-141 -97 OFFCURVE",
"-115 -97 CURVE SMOOTH",
"-92 -97 OFFCURVE",
"-71 -114 OFFCURVE",
"-71 -140 CURVE SMOOTH",
"-71 -198 OFFCURVE",
"-154 -232 OFFCURVE",
"-154 -303 CURVE SMOOTH",
"-154 -351 OFFCURVE",
"-120 -400 OFFCURVE",
"-35 -400 CURVE SMOOTH",
"-9 -400 OFFCURVE",
"16 -394 OFFCURVE",
"36 -386 CURVE",
"22 -322 LINE",
"8 -328 OFFCURVE",
"-14 -332 OFFCURVE",
"-36 -332 CURVE SMOOTH",
"-54 -332 OFFCURVE",
"-82 -324 OFFCURVE",
"-82 -300 CURVE SMOOTH",
"-82 -251 OFFCURVE",
"1 -237 OFFCURVE",
"1 -131 CURVE SMOOTH",
"1 -68 OFFCURVE",
"-45 -30 OFFCURVE",
"-102 -30 CURVE SMOOTH",
"-144 -30 OFFCURVE",
"-179 -48 OFFCURVE",
"-202 -78 CURVE",
"-226 -45 OFFCURVE",
"-262 -30 OFFCURVE",
"-293 -30 CURVE SMOOTH",
"-369 -30 OFFCURVE",
"-406 -77 OFFCURVE",
"-406 -145 CURVE SMOOTH",
"-406 -194 OFFCURVE",
"-387 -248 OFFCURVE",
"-347 -297 CURVE"
);
}
);
};
layerId = UUID0;
paths = (
{
closed = 1;
nodes = (
"-290 -262 LINE",
"-315 -228 OFFCURVE",
"-334 -194 OFFCURVE",
"-334 -156 CURVE SMOOTH",
"-334 -123 OFFCURVE",
"-319 -98 OFFCURVE",
"-289 -98 CURVE SMOOTH",
"-261 -98 OFFCURVE",
"-240 -117 OFFCURVE",
"-231 -166 CURVE",
"-172 -166 LINE",
"-170 -122 OFFCURVE",
"-141 -97 OFFCURVE",
"-115 -97 CURVE SMOOTH",
"-92 -97 OFFCURVE",
"-71 -114 OFFCURVE",
"-71 -140 CURVE SMOOTH",
"-71 -198 OFFCURVE",
"-154 -232 OFFCURVE",
"-154 -303 CURVE SMOOTH",
"-154 -351 OFFCURVE",
"-120 -400 OFFCURVE",
"-35 -400 CURVE SMOOTH",
"-9 -400 OFFCURVE",
"16 -394 OFFCURVE",
"36 -386 CURVE",
"22 -322 LINE",
"8 -328 OFFCURVE",
"-14 -332 OFFCURVE",
"-36 -332 CURVE SMOOTH",
"-54 -332 OFFCURVE",
"-82 -324 OFFCURVE",
"-82 -300 CURVE SMOOTH",
"-82 -251 OFFCURVE",
"1 -237 OFFCURVE",
"1 -131 CURVE SMOOTH",
"1 -68 OFFCURVE",
"-45 -30 OFFCURVE",
"-102 -30 CURVE SMOOTH",
"-144 -30 OFFCURVE",
"-179 -48 OFFCURVE",
"-202 -78 CURVE",
"-226 -45 OFFCURVE",
"-262 -30 OFFCURVE",
"-293 -30 CURVE SMOOTH",
"-369 -30 OFFCURVE",
"-406 -77 OFFCURVE",
"-406 -145 CURVE SMOOTH",
"-406 -194 OFFCURVE",
"-387 -248 OFFCURVE",
"-347 -297 CURVE"
);
}
);
width = 0;
}
);
unicode = 11637;
category = Mark;
},
{
glyphname = VocLL_dv;
lastChange = "2018-08-06 13:07:12 +0000";
layers = (
{
background = {
anchors = (
{
name = _Bottom;
position = "{-146, -50}";
},
{
name = _BtmCtr;
position = "{-201, -50}";
}
);
paths = (
{
closed = 1;
nodes = (
"-290 -262 LINE",
"-315 -228 OFFCURVE",
"-334 -194 OFFCURVE",
"-334 -156 CURVE SMOOTH",
"-334 -123 OFFCURVE",
"-319 -99 OFFCURVE",
"-289 -99 CURVE SMOOTH",
"-261 -99 OFFCURVE",
"-240 -117 OFFCURVE",
"-231 -166 CURVE",
"-172 -166 LINE",
"-170 -122 OFFCURVE",
"-141 -99 OFFCURVE",
"-111 -99 CURVE SMOOTH",
"-89 -99 OFFCURVE",
"-71 -110 OFFCURVE",
"-71 -131 CURVE SMOOTH",
"-71 -168 OFFCURVE",
"-143 -187 OFFCURVE",
"-143 -258 CURVE SMOOTH",
"-143 -273 OFFCURVE",
"-138 -291 OFFCURVE",
"-125 -306 CURVE",
"-136 -323 OFFCURVE",
"-144 -341 OFFCURVE",
"-144 -363 CURVE SMOOTH",
"-144 -411 OFFCURVE",
"-110 -460 OFFCURVE",
"-25 -460 CURVE SMOOTH",
"1 -460 OFFCURVE",
"26 -454 OFFCURVE",
"46 -446 CURVE",
"32 -384 LINE",
"18 -390 OFFCURVE",
"-6 -394 OFFCURVE",
"-28 -394 CURVE SMOOTH",
"-46 -394 OFFCURVE",
"-74 -386 OFFCURVE",
"-74 -362 CURVE SMOOTH",
"-74 -353 OFFCURVE",
"-71 -345 OFFCURVE",
"-66 -337 CURVE",
"-57 -339 OFFCURVE",
"-46 -340 OFFCURVE",
"-35 -340 CURVE SMOOTH",
"-16 -340 OFFCURVE",
"9 -337 OFFCURVE",
"28 -332 CURVE",
"18 -268 LINE",
"5 -272 OFFCURVE",
"-11 -275 OFFCURVE",
"-26 -275 CURVE SMOOTH",
"-44 -275 OFFCURVE",
"-73 -269 OFFCURVE",
"-73 -245 CURVE SMOOTH",
"-73 -210 OFFCURVE",
"1 -186 OFFCURVE",
"1 -123 CURVE SMOOTH",
"1 -68 OFFCURVE",
"-38 -30 OFFCURVE",
"-104 -30 CURVE SMOOTH",
"-141 -30 OFFCURVE",
"-177 -48 OFFCURVE",
"-201 -79 CURVE",
"-225 -45 OFFCURVE",
"-261 -30 OFFCURVE",
"-293 -30 CURVE SMOOTH",
"-369 -30 OFFCURVE",
"-406 -84 OFFCURVE",
"-406 -145 CURVE SMOOTH",
"-406 -194 OFFCURVE",
"-387 -248 OFFCURVE",
"-347 -297 CURVE"
);
}
);
};
layerId = UUID0;
paths = (
{
closed = 1;
nodes = (
"-290 -262 LINE",
"-315 -228 OFFCURVE",
"-334 -194 OFFCURVE",
"-334 -156 CURVE SMOOTH",
"-334 -123 OFFCURVE",
"-319 -99 OFFCURVE",
"-289 -99 CURVE SMOOTH",
"-261 -99 OFFCURVE",
"-240 -117 OFFCURVE",
"-231 -166 CURVE",
"-172 -166 LINE",
"-170 -122 OFFCURVE",
"-141 -99 OFFCURVE",
"-111 -99 CURVE SMOOTH",
"-89 -99 OFFCURVE",
"-71 -110 OFFCURVE",
"-71 -131 CURVE SMOOTH",
"-71 -168 OFFCURVE",
"-143 -187 OFFCURVE",
"-143 -258 CURVE SMOOTH",
"-143 -273 OFFCURVE",
"-138 -291 OFFCURVE",
"-125 -306 CURVE",
"-136 -323 OFFCURVE",
"-144 -341 OFFCURVE",
"-144 -363 CURVE SMOOTH",
"-144 -411 OFFCURVE",
"-110 -460 OFFCURVE",
"-25 -460 CURVE SMOOTH",
"1 -460 OFFCURVE",
"26 -454 OFFCURVE",
"46 -446 CURVE",
"32 -384 LINE",
"18 -390 OFFCURVE",
"-6 -394 OFFCURVE",
"-28 -394 CURVE SMOOTH",
"-46 -394 OFFCURVE",
"-74 -386 OFFCURVE",
"-74 -362 CURVE SMOOTH",
"-74 -353 OFFCURVE",
"-71 -345 OFFCURVE",
"-66 -337 CURVE",
"-57 -339 OFFCURVE",
"-46 -340 OFFCURVE",
"-35 -340 CURVE SMOOTH",
"-16 -340 OFFCURVE",
"9 -337 OFFCURVE",
"28 -332 CURVE",
"18 -268 LINE",
"5 -272 OFFCURVE",
"-11 -275 OFFCURVE",
"-26 -275 CURVE SMOOTH",
"-44 -275 OFFCURVE",
"-73 -269 OFFCURVE",
"-73 -245 CURVE SMOOTH",
"-73 -210 OFFCURVE",
"1 -186 OFFCURVE",
"1 -123 CURVE SMOOTH",
"1 -68 OFFCURVE",
"-38 -30 OFFCURVE",
"-104 -30 CURVE SMOOTH",
"-141 -30 OFFCURVE",
"-177 -48 OFFCURVE",
"-201 -79 CURVE",
"-225 -45 OFFCURVE",
"-261 -30 OFFCURVE",
"-293 -30 CURVE SMOOTH",
"-369 -30 OFFCURVE",
"-406 -84 OFFCURVE",
"-406 -145 CURVE SMOOTH",
"-406 -194 OFFCURVE",
"-387 -248 OFFCURVE",
"-347 -297 CURVE"
);
}
);
width = 0;
}
);
unicode = 11638;
category = Mark;
},
{
glyphname = E_dv;
lastChange = "2018-08-06 13:07:19 +0000";
layers = (
{
background = {
anchors = (
{
name = Dot;
position = "{13, 758}";
},
{
name = TopCtr;
position = "{-160, 920}";
},
{
name = _Top;
position = "{0, 617}";
}
);
paths = (
{
closed = 1;
nodes = (
"-327 781 LINE",
"-150 771 OFFCURVE",
"-108 694 OFFCURVE",
"-82 615 CURVE",
"0 615 LINE",
"-25 717 OFFCURVE",
"-106 848 OFFCURVE",
"-346 848 CURVE"
);
}
);
};
layerId = UUID0;
paths = (
{
closed = 1;
nodes = (
"-327 781 LINE",
"-150 771 OFFCURVE",
"-108 694 OFFCURVE",
"-82 615 CURVE",
"0 615 LINE",
"-25 717 OFFCURVE",
"-106 848 OFFCURVE",
"-346 848 CURVE"
);
}
);
width = 0;
}
);
unicode = 11639;
category = Mark;
},
{
glyphname = AI_dv;
lastChange = "2018-08-06 13:07:19 +0000";
layers = (
{
background = {
anchors = (
{
name = Dot;
position = "{63, 758}";
},
{
name = TopCtr;
position = "{-220, 900}";
},
{
name = _Top;
position = "{0, 617}";
}
);
paths = (
{
closed = 1;
nodes = (
"-393 799 LINE",
"-334 736 OFFCURVE",
"-263 725 OFFCURVE",
"-215 725 CURVE SMOOTH",
"-174 725 OFFCURVE",
"-133 735 OFFCURVE",
"-102 749 CURVE",
"-79 615 LINE",
"0 615 LINE",
"-39 819 LINE",
"-88 836 LINE",
"-109 819 OFFCURVE",
"-155 795 OFFCURVE",
"-220 795 CURVE SMOOTH",
"-266 795 OFFCURVE",
"-311 818 OFFCURVE",
"-344 847 CURVE"
);
}
);
};
layerId = UUID0;
paths = (
{
closed = 1;
nodes = (
"-393 799 LINE",
"-334 736 OFFCURVE",
"-263 725 OFFCURVE",
"-215 725 CURVE SMOOTH",
"-174 725 OFFCURVE",
"-133 735 OFFCURVE",
"-102 749 CURVE",
"-79 615 LINE",
"0 615 LINE",
"-39 819 LINE",
"-88 836 LINE",
"-109 819 OFFCURVE",
"-155 795 OFFCURVE",
"-220 795 CURVE SMOOTH",
"-266 795 OFFCURVE",
"-311 818 OFFCURVE",
"-344 847 CURVE"
);
}
);
width = 0;
}
);
unicode = 1163A;
category = Mark;
},
{
glyphname = O_dv;
lastChange = "2018-08-06 13:07:05 +0000";
layers = (
{
background = {
anchors = (
{
name = Dot;
position = "{171, 758}";
}
);
components = (
{
name = AA_dv;
},
{
name = E_dv;
transform = "{1, 0, 0, 1, 161, 0}";
}
);
};
layerId = UUID0;
paths = (
{
closed = 1;
nodes = (
"160 551 LINE",
"250 551 LINE",
"250 622 LINE",
"0 622 LINE",
"0 551 LINE",
"80 551 LINE",
"80 0 LINE",
"160 0 LINE"
);
},
{
closed = 1;
nodes = (
"-166 781 LINE",
"11 771 OFFCURVE",
"53 694 OFFCURVE",
"79 615 CURVE",
"161 615 LINE",
"136 717 OFFCURVE",
"55 848 OFFCURVE",
"-185 848 CURVE"
);
}
);
width = 240;
}
);
unicode = 1163B;
category = Letter;
},
{
glyphname = AU_dv;
lastChange = "2018-08-06 13:07:05 +0000";
layers = (
{
background = {
anchors = (
{
name = Dot;
position = "{228, 758}";
}
);
components = (
{
name = AA_dv;
},
{
name = AI_dv;
transform = "{1, 0, 0, 1, 160, 0}";
}
);
};
layerId = UUID0;
paths = (
{
closed = 1;
nodes = (
"160 551 LINE",
"250 551 LINE",
"250 622 LINE",
"0 622 LINE",
"0 551 LINE",
"80 551 LINE",
"80 0 LINE",
"160 0 LINE"
);
},
{
closed = 1;
nodes = (
"-233 799 LINE",
"-174 736 OFFCURVE",
"-103 725 OFFCURVE",
"-55 725 CURVE SMOOTH",
"-14 725 OFFCURVE",
"27 735 OFFCURVE",
"58 749 CURVE",
"81 615 LINE",
"160 615 LINE",
"121 819 LINE",
"72 836 LINE",
"51 819 OFFCURVE",
"5 795 OFFCURVE",
"-60 795 CURVE SMOOTH",
"-106 795 OFFCURVE",
"-151 818 OFFCURVE",
"-184 847 CURVE"
);
}
);
width = 240;
}
);
unicode = 1163C;
category = Letter;
},
{
glyphname = Anusvara;
lastChange = "2018-08-06 13:07:14 +0000";
layers = (
{
background = {
anchors = (
{
name = _Dot;
position = "{0, 680}";
}
);
paths = (
{
closed = 1;
nodes = (
"-28 790 OFFCURVE",
"-52 766 OFFCURVE",
"-52 735 CURVE SMOOTH",
"-52 706 OFFCURVE",
"-28 680 OFFCURVE",
"0 680 CURVE SMOOTH",
"28 680 OFFCURVE",
"52 706 OFFCURVE",
"52 735 CURVE SMOOTH",
"52 766 OFFCURVE",
"28 790 OFFCURVE",
"0 790 CURVE SMOOTH"
);
}
);
};
layerId = UUID0;
paths = (
{
closed = 1;
nodes = (
"-28 790 OFFCURVE",
"-52 766 OFFCURVE",
"-52 735 CURVE SMOOTH",
"-52 706 OFFCURVE",
"-28 680 OFFCURVE",
"0 680 CURVE SMOOTH",
"28 680 OFFCURVE",
"52 706 OFFCURVE",
"52 735 CURVE SMOOTH",
"52 766 OFFCURVE",
"28 790 OFFCURVE",
"0 790 CURVE SMOOTH"
);
}
);
width = 0;
}
);
unicode = 1163D;
category = Mark;
},
{
glyphname = Visarga;
lastChange = "2018-08-06 13:06:16 +0000";
layers = (
{
background = {
paths = (
{
closed = 1;
nodes = (
"127 113 OFFCURVE",
"100 86 OFFCURVE",
"100 51 CURVE SMOOTH",
"100 19 OFFCURVE",
"127 -10 OFFCURVE",
"158 -10 CURVE SMOOTH",
"189 -10 OFFCURVE",
"216 19 OFFCURVE",
"216 51 CURVE SMOOTH",
"216 86 OFFCURVE",
"189 113 OFFCURVE",
"158 113 CURVE SMOOTH"
);
},
{
closed = 1;
nodes = (
"127 500 OFFCURVE",
"100 473 OFFCURVE",
"100 438 CURVE SMOOTH",
"100 406 OFFCURVE",
"127 377 OFFCURVE",
"158 377 CURVE SMOOTH",
"189 377 OFFCURVE",
"216 406 OFFCURVE",
"216 438 CURVE SMOOTH",
"216 473 OFFCURVE",
"189 500 OFFCURVE",
"158 500 CURVE SMOOTH"
);
}
);
};
layerId = UUID0;
paths = (
{
closed = 1;
nodes = (
"127 113 OFFCURVE",
"100 86 OFFCURVE",
"100 51 CURVE SMOOTH",
"100 19 OFFCURVE",
"127 -10 OFFCURVE",
"158 -10 CURVE SMOOTH",
"189 -10 OFFCURVE",
"216 19 OFFCURVE",
"216 51 CURVE SMOOTH",
"216 86 OFFCURVE",
"189 113 OFFCURVE",
"158 113 CURVE SMOOTH"
);
},
{
closed = 1;
nodes = (
"127 500 OFFCURVE",
"100 473 OFFCURVE",
"100 438 CURVE SMOOTH",
"100 406 OFFCURVE",
"127 377 OFFCURVE",
"158 377 CURVE SMOOTH",
"189 377 OFFCURVE",
"216 406 OFFCURVE",
"216 438 CURVE SMOOTH",
"216 473 OFFCURVE",
"189 500 OFFCURVE",
"158 500 CURVE SMOOTH"
);
}
);
width = 316;
}
);
unicode = 1163E;
category = Letter;
},
{
glyphname = Virama;
lastChange = "2018-08-06 13:07:09 +0000";
layers = (
{
background = {
anchors = (
{
name = _Bottom;
position = "{-129, -50}";
}
);
paths = (
{
closed = 1;
nodes = (
"-230 -50 LINE",
"-110 -86 OFFCURVE",
"-35 -135 OFFCURVE",
"35 -204 CURVE",
"-15 -249 LINE",
"-85 -181 OFFCURVE",
"-186 -132 OFFCURVE",
"-254 -108 CURVE"
);
}
);
};
layerId = UUID0;
paths = (
{
closed = 1;
nodes = (
"-186 -132 OFFCURVE",
"-85 -181 OFFCURVE",
"-15 -249 CURVE",
"35 -204 LINE",
"-35 -135 OFFCURVE",
"-110 -86 OFFCURVE",
"-230 -50 CURVE",
"-254 -108 LINE"
);
}
);
width = 0;
}
);
unicode = 1163F;
category = Mark;
},
{
glyphname = Ardhacandra;
lastChange = "2018-08-06 13:07:22 +0000";
layers = (
{
background = {
anchors = (
{
name = Dot;
position = "{0, 799}";
},
{
name = _Dot;
position = "{80, 712}";
},
{
name = _TopCtr;
position = "{0, 712}";
}
);
paths = (
{
closed = 1;
nodes = (
"200 808 LINE",
"156 722 OFFCURVE",
"92 680 OFFCURVE",
"1 680 CURVE SMOOTH",
"-90 680 OFFCURVE",
"-156 722 OFFCURVE",
"-200 808 CURVE",
"-132 840 LINE",
"-98 777 OFFCURVE",
"-57 749 OFFCURVE",
"1 749 CURVE SMOOTH",
"61 749 OFFCURVE",
"100 777 OFFCURVE",
"132 840 CURVE"
);
}
);
};
layerId = UUID0;
paths = (
{
closed = 1;
nodes = (
"100 777 OFFCURVE",
"61 749 OFFCURVE",
"1 749 CURVE SMOOTH",
"-57 749 OFFCURVE",
"-98 777 OFFCURVE",
"-132 840 CURVE",
"-200 808 LINE",
"-156 722 OFFCURVE",
"-90 680 OFFCURVE",
"1 680 CURVE SMOOTH",
"92 680 OFFCURVE",
"156 722 OFFCURVE",
"200 808 CURVE",
"132 840 LINE"
);
}
);
width = 0;
}
);
unicode = 11640;
category = Mark;
},
{
glyphname = Danda;
lastChange = "2018-08-06 13:06:16 +0000";
layers = (
{
background = {
paths = (
{
closed = 1;
nodes = (
"180 622 LINE",
"100 622 LINE",
"100 0 LINE",
"180 0 LINE"
);
}
);
};
layerId = UUID0;
paths = (
{
closed = 1;
nodes = (
"180 622 LINE",
"100 622 LINE",
"100 0 LINE",
"180 0 LINE"
);
}
);
width = 280;
}
);
unicode = 11641;
category = Letter;
},
{
glyphname = DblDanda;
lastChange = "2018-08-06 13:06:16 +0000";
layers = (
{
background = {
paths = (
{
closed = 1;
nodes = (
"180 622 LINE",
"100 622 LINE",
"100 0 LINE",
"180 0 LINE"
);
},
{
closed = 1;
nodes = (
"360 622 LINE",
"280 622 LINE",
"280 0 LINE",
"360 0 LINE"
);
}
);
};
layerId = UUID0;
paths = (
{
closed = 1;
nodes = (
"180 622 LINE",
"100 622 LINE",
"100 0 LINE",
"180 0 LINE"
);
},
{
closed = 1;
nodes = (
"360 622 LINE",
"280 622 LINE",
"280 0 LINE",
"360 0 LINE"
);
}
);
width = 460;
}
);
unicode = 11642;
category = Letter;
},
{
glyphname = Abbreviation;
lastChange = "2018-08-06 13:06:16 +0000";
layers = (
{
background = {
paths = (
{
closed = 1;
nodes = (
"80 51 OFFCURVE",
"141 -10 OFFCURVE",
"218 -10 CURVE SMOOTH",
"295 -10 OFFCURVE",
"357 51 OFFCURVE",
"357 128 CURVE SMOOTH",
"357 205 OFFCURVE",
"295 267 OFFCURVE",
"218 267 CURVE SMOOTH",
"141 267 OFFCURVE",
"80 205 OFFCURVE",
"80 128 CURVE SMOOTH"
);
},
{
closed = 1;
nodes = (
"150 167 OFFCURVE",
"178 199 OFFCURVE",
"218 199 CURVE SMOOTH",
"258 199 OFFCURVE",
"287 168 OFFCURVE",
"287 128 CURVE SMOOTH",
"287 88 OFFCURVE",
"258 57 OFFCURVE",
"218 57 CURVE SMOOTH",
"178 57 OFFCURVE",
"150 87 OFFCURVE",
"150 127 CURVE SMOOTH"
);
}
);
};
layerId = UUID0;
paths = (
{
closed = 1;
nodes = (
"80 51 OFFCURVE",
"141 -10 OFFCURVE",
"218 -10 CURVE SMOOTH",
"295 -10 OFFCURVE",
"357 51 OFFCURVE",
"357 128 CURVE SMOOTH",
"357 205 OFFCURVE",
"295 267 OFFCURVE",
"218 267 CURVE SMOOTH",
"141 267 OFFCURVE",
"80 205 OFFCURVE",
"80 128 CURVE SMOOTH"
);
},
{
closed = 1;
nodes = (
"150 167 OFFCURVE",
"178 199 OFFCURVE",
"218 199 CURVE SMOOTH",
"258 199 OFFCURVE",
"287 168 OFFCURVE",
"287 128 CURVE SMOOTH",
"287 88 OFFCURVE",
"258 57 OFFCURVE",
"218 57 CURVE SMOOTH",
"178 57 OFFCURVE",
"150 87 OFFCURVE",
"150 127 CURVE SMOOTH"
);
}
);
width = 407;
}
);
unicode = 11643;
category = Letter;
},
{
glyphname = Huva;
lastChange = "2018-08-06 13:06:16 +0000";
layers = (
{
background = {
paths = (
{
closed = 1;
nodes = (
"20 166 LINE",
"64 57 OFFCURVE",
"137 -10 OFFCURVE",
"230 -10 CURVE SMOOTH",
"348 -10 OFFCURVE",
"392 53 OFFCURVE",
"392 157 CURVE SMOOTH",
"392 622 LINE",
"312 622 LINE",
"312 161 LINE SMOOTH",
"312 106 OFFCURVE",
"288 64 OFFCURVE",
"230 64 CURVE SMOOTH",
"174 64 OFFCURVE",
"120 114 OFFCURVE",
"91 189 CURVE"
);
}
);
};
layerId = UUID0;
paths = (
{
closed = 1;
nodes = (
"20 166 LINE",
"64 57 OFFCURVE",
"137 -10 OFFCURVE",
"230 -10 CURVE SMOOTH",
"348 -10 OFFCURVE",
"392 53 OFFCURVE",
"392 157 CURVE SMOOTH",
"392 622 LINE",
"312 622 LINE",
"312 161 LINE SMOOTH",
"312 106 OFFCURVE",
"288 64 OFFCURVE",
"230 64 CURVE SMOOTH",
"174 64 OFFCURVE",
"120 114 OFFCURVE",
"91 189 CURVE"
);
}
);
width = 472;
}
);
unicode = 11644;
category = Letter;
},
{
glyphname = u11650;
lastChange = "2018-08-06 13:06:16 +0000";
layers = (
{
background = {
paths = (
{
closed = 1;
nodes = (
"374 490 OFFCURVE",
"461 406 OFFCURVE",
"461 289 CURVE SMOOTH",
"461 173 OFFCURVE",
"376 91 OFFCURVE",
"260 91 CURVE SMOOTH",
"144 91 OFFCURVE",
"60 173 OFFCURVE",
"60 291 CURVE SMOOTH",
"60 408 OFFCURVE",
"144 490 OFFCURVE",
"259 490 CURVE SMOOTH"
);
},
{
closed = 1;
nodes = (
"328 162 OFFCURVE",
"379 218 OFFCURVE",
"379 292 CURVE SMOOTH",
"379 365 OFFCURVE",
"332 418 OFFCURVE",
"262 418 CURVE SMOOTH",
"192 418 OFFCURVE",
"142 363 OFFCURVE",
"142 288 CURVE SMOOTH",
"142 214 OFFCURVE",
"188 162 OFFCURVE",
"258 162 CURVE SMOOTH"
);
}
);
};
layerId = UUID0;
paths = (
{
closed = 1;
nodes = (
"144 490 OFFCURVE",
"60 408 OFFCURVE",
"60 291 CURVE SMOOTH",
"60 173 OFFCURVE",
"144 91 OFFCURVE",
"260 91 CURVE SMOOTH",
"376 91 OFFCURVE",
"461 173 OFFCURVE",
"461 289 CURVE SMOOTH",
"461 406 OFFCURVE",
"374 490 OFFCURVE",
"259 490 CURVE SMOOTH"
);
},
{
closed = 1;
nodes = (
"188 162 OFFCURVE",
"142 214 OFFCURVE",
"142 288 CURVE SMOOTH",
"142 363 OFFCURVE",
"192 418 OFFCURVE",
"262 418 CURVE SMOOTH",
"332 418 OFFCURVE",
"379 365 OFFCURVE",
"379 292 CURVE SMOOTH",
"379 218 OFFCURVE",
"328 162 OFFCURVE",
"258 162 CURVE SMOOTH"
);
}
);
width = 521;
}
);
unicode = 11650;
category = Letter;
},
{
glyphname = u11651;
lastChange = "2018-08-06 13:06:16 +0000";
layers = (
{
background = {
paths = (
{
closed = 1;
nodes = (
"447 64 LINE",
"415 69 OFFCURVE",
"391 86 OFFCURVE",
"391 141 CURVE SMOOTH",
"391 408 LINE SMOOTH",
"391 541 OFFCURVE",
"333 600 OFFCURVE",
"226 600 CURVE SMOOTH",
"121 600 OFFCURVE",
"60 525 OFFCURVE",
"60 439 CURVE SMOOTH",
"60 340 OFFCURVE",
"134 275 OFFCURVE",
"231 275 CURVE SMOOTH",
"262 275 OFFCURVE",
"287 280 OFFCURVE",
"311 289 CURVE",
"311 137 LINE SMOOTH",
"311 33 OFFCURVE",
"348 -5 OFFCURVE",
"436 -10 CURVE"
);
},
{
closed = 1;
nodes = (
"178 348 OFFCURVE",
"141 379 OFFCURVE",
"141 434 CURVE SMOOTH",
"141 491 OFFCURVE",
"174 527 OFFCURVE",
"227 527 CURVE SMOOTH",
"290 527 OFFCURVE",
"311 482 OFFCURVE",
"311 391 CURVE SMOOTH",
"311 370 LINE",
"288 356 OFFCURVE",
"262 348 OFFCURVE",
"233 348 CURVE SMOOTH"
);
}
);
};
layerId = UUID0;
paths = (
{
closed = 1;
nodes = (
"447 64 LINE",
"415 69 OFFCURVE",
"391 86 OFFCURVE",
"391 141 CURVE SMOOTH",
"391 408 LINE SMOOTH",
"391 541 OFFCURVE",
"333 600 OFFCURVE",
"226 600 CURVE SMOOTH",
"121 600 OFFCURVE",
"60 525 OFFCURVE",
"60 439 CURVE SMOOTH",
"60 340 OFFCURVE",
"134 275 OFFCURVE",
"231 275 CURVE SMOOTH",
"262 275 OFFCURVE",
"287 280 OFFCURVE",
"311 289 CURVE",
"311 137 LINE SMOOTH",
"311 33 OFFCURVE",
"348 -5 OFFCURVE",
"436 -10 CURVE"
);
},
{
closed = 1;
nodes = (
"178 348 OFFCURVE",
"141 379 OFFCURVE",
"141 434 CURVE SMOOTH",
"141 491 OFFCURVE",
"174 527 OFFCURVE",
"227 527 CURVE SMOOTH",
"290 527 OFFCURVE",
"311 482 OFFCURVE",
"311 391 CURVE SMOOTH",
"311 370 LINE",
"288 356 OFFCURVE",
"262 348 OFFCURVE",
"233 348 CURVE SMOOTH"
);
}
);
width = 497;
}
);
unicode = 11651;
category = Letter;
},
{
glyphname = u11652;
lastChange = "2018-08-06 13:06:16 +0000";
layers = (
{
background = {
paths = (
{
closed = 1;
nodes = (
"55 51 LINE",
"72 52 OFFCURVE",
"85 53 OFFCURVE",
"97 53 CURVE SMOOTH",
"239 53 OFFCURVE",
"337 -15 OFFCURVE",
"393 -74 CURVE",
"449 -20 LINE",
"407 23 OFFCURVE",
"336 76 OFFCURVE",
"249 104 CURVE",
"342 154 OFFCURVE",
"403 241 OFFCURVE",
"403 382 CURVE SMOOTH",
"403 519 OFFCURVE",
"313 600 OFFCURVE",
"192 600 CURVE SMOOTH",
"137 600 OFFCURVE",
"79 585 OFFCURVE",
"30 564 CURVE",
"54 496 LINE",
"101 518 OFFCURVE",
"140 526 OFFCURVE",
"188 526 CURVE SMOOTH",
"259 526 OFFCURVE",
"323 474 OFFCURVE",
"323 383 CURVE SMOOTH",
"323 170 OFFCURVE",
"161 129 OFFCURVE",
"42 123 CURVE"
);
}
);
};
layerId = UUID0;
paths = (
{
closed = 1;
nodes = (
"55 51 LINE",
"77 53 OFFCURVE",
"85 53 OFFCURVE",
"97 53 CURVE SMOOTH",
"239 53 OFFCURVE",
"337 -15 OFFCURVE",
"393 -74 CURVE",
"449 -20 LINE",
"407 23 OFFCURVE",
"336 76 OFFCURVE",
"249 104 CURVE",
"342 154 OFFCURVE",
"403 241 OFFCURVE",
"403 382 CURVE SMOOTH",
"403 519 OFFCURVE",
"313 600 OFFCURVE",
"192 600 CURVE SMOOTH",
"137 600 OFFCURVE",
"79 585 OFFCURVE",
"30 564 CURVE",
"54 496 LINE",
"101 518 OFFCURVE",
"140 526 OFFCURVE",
"188 526 CURVE SMOOTH",
"259 526 OFFCURVE",
"323 474 OFFCURVE",
"323 383 CURVE SMOOTH",
"323 170 OFFCURVE",
"161 129 OFFCURVE",
"42 123 CURVE"
);
}
);
width = 479;
}
);
unicode = 11652;
category = Letter;
},
{
glyphname = u11653;
lastChange = "2018-08-06 13:06:16 +0000";
layers = (
{
background = {
paths = (
{
closed = 1;
nodes = (
"30 13 LINE",
"65 0 OFFCURVE",
"123 -10 OFFCURVE",
"177 -10 CURVE SMOOTH",
"297 -10 OFFCURVE",
"382 65 OFFCURVE",
"382 173 CURVE SMOOTH",
"382 233 OFFCURVE",
"345 288 OFFCURVE",
"276 312 CURVE",
"325 339 OFFCURVE",
"362 381 OFFCURVE",
"362 444 CURVE SMOOTH",
"362 555 OFFCURVE",
"273 600 OFFCURVE",
"173 600 CURVE SMOOTH",
"121 600 OFFCURVE",
"81 593 OFFCURVE",
"48 584 CURVE",
"61 510 LINE",
"91 520 OFFCURVE",
"135 526 OFFCURVE",
"171 526 CURVE SMOOTH",
"239 526 OFFCURVE",
"282 494 OFFCURVE",
"282 450 CURVE SMOOTH",
"282 393 OFFCURVE",
"229 336 OFFCURVE",
"97 332 CURVE",
"91 267 LINE",
"108 268 OFFCURVE",
"129 270 OFFCURVE",
"151 270 CURVE SMOOTH",
"222 270 OFFCURVE",
"302 255 OFFCURVE",
"302 168 CURVE SMOOTH",
"302 115 OFFCURVE",
"264 64 OFFCURVE",
"173 64 CURVE SMOOTH",
"142 64 OFFCURVE",
"85 76 OFFCURVE",
"44 86 CURVE"
);
}
);
};
layerId = UUID0;
paths = (
{
closed = 1;
nodes = (
"30 13 LINE",
"65 0 OFFCURVE",
"123 -10 OFFCURVE",
"177 -10 CURVE SMOOTH",
"297 -10 OFFCURVE",
"382 65 OFFCURVE",
"382 173 CURVE SMOOTH",
"382 233 OFFCURVE",
"345 288 OFFCURVE",
"276 312 CURVE",
"325 339 OFFCURVE",
"362 381 OFFCURVE",
"362 444 CURVE SMOOTH",
"362 555 OFFCURVE",
"273 600 OFFCURVE",
"173 600 CURVE SMOOTH",
"121 600 OFFCURVE",
"81 593 OFFCURVE",
"48 584 CURVE",
"61 510 LINE",
"91 520 OFFCURVE",
"135 526 OFFCURVE",
"171 526 CURVE SMOOTH",
"239 526 OFFCURVE",
"282 494 OFFCURVE",
"282 450 CURVE SMOOTH",
"282 393 OFFCURVE",
"229 336 OFFCURVE",
"97 332 CURVE",
"91 267 LINE",
"116 269 OFFCURVE",
"129 270 OFFCURVE",
"151 270 CURVE SMOOTH",
"222 270 OFFCURVE",
"302 255 OFFCURVE",
"302 168 CURVE SMOOTH",
"302 115 OFFCURVE",
"264 64 OFFCURVE",
"173 64 CURVE SMOOTH",
"142 64 OFFCURVE",
"85 76 OFFCURVE",
"44 86 CURVE"
);
}
);
width = 442;
}
);
unicode = 11653;
category = Letter;
},
{
glyphname = u11654;
lastChange = "2018-08-06 13:06:16 +0000";
layers = (
{
background = {
paths = (
{
closed = 1;
nodes = (
"399 -10 OFFCURVE",
"429 64 OFFCURVE",
"429 126 CURVE SMOOTH",
"429 194 OFFCURVE",
"383 263 OFFCURVE",
"322 326 CURVE",
"380 386 OFFCURVE",
"458 457 OFFCURVE",
"555 544 CURVE",
"506 598 LINE",
"476 565 OFFCURVE",
"364 477 OFFCURVE",
"269 376 CURVE",
"187 449 OFFCURVE",
"96 507 OFFCURVE",
"63 534 CURVE",
"20 474 LINE",
"62 442 OFFCURVE",
"147 384 OFFCURVE",
"220 320 CURVE",
"166 254 OFFCURVE",
"126 185 OFFCURVE",
"126 126 CURVE SMOOTH",
"126 64 OFFCURVE",
"156 -10 OFFCURVE",
"278 -10 CURVE SMOOTH"
);
},
{
closed = 1;
nodes = (
"225 62 OFFCURVE",
"206 95 OFFCURVE",
"206 129 CURVE SMOOTH",
"206 171 OFFCURVE",
"228 216 OFFCURVE",
"272 270 CURVE",
"317 222 OFFCURVE",
"349 173 OFFCURVE",
"349 129 CURVE SMOOTH",
"349 95 OFFCURVE",
"335 62 OFFCURVE",
"280 62 CURVE SMOOTH"
);
}
);
};
layerId = UUID0;
paths = (
{
closed = 1;
nodes = (
"399 -10 OFFCURVE",
"429 64 OFFCURVE",
"429 126 CURVE SMOOTH",
"429 194 OFFCURVE",
"383 263 OFFCURVE",
"322 326 CURVE",
"380 386 OFFCURVE",
"458 457 OFFCURVE",
"555 544 CURVE",
"506 598 LINE",
"486 579 OFFCURVE",
"441 538 OFFCURVE",
"389 492 CURVE SMOOTH",
"351 458 OFFCURVE",
"309 418 OFFCURVE",
"269 376 CURVE",
"187 449 OFFCURVE",
"96 507 OFFCURVE",
"63 534 CURVE",
"20 474 LINE",
"62 442 OFFCURVE",
"147 384 OFFCURVE",
"220 320 CURVE",
"166 254 OFFCURVE",
"126 185 OFFCURVE",
"126 126 CURVE SMOOTH",
"126 64 OFFCURVE",
"156 -10 OFFCURVE",
"278 -10 CURVE SMOOTH"
);
},
{
closed = 1;
nodes = (
"225 62 OFFCURVE",
"206 95 OFFCURVE",
"206 129 CURVE SMOOTH",
"206 171 OFFCURVE",
"228 216 OFFCURVE",
"272 270 CURVE",
"317 222 OFFCURVE",
"349 173 OFFCURVE",
"349 129 CURVE SMOOTH",
"349 95 OFFCURVE",
"335 62 OFFCURVE",
"280 62 CURVE SMOOTH"
);
}
);
width = 575;
}
);
unicode = 11654;
category = Letter;
},
{
glyphname = u11655;
lastChange = "2018-08-06 13:06:16 +0000";
layers = (
{
background = {
paths = (
{
closed = 1;
nodes = (
"535 128 LINE",
"513 102 OFFCURVE",
"471 64 OFFCURVE",
"396 64 CURVE SMOOTH",
"308 64 OFFCURVE",
"259 142 OFFCURVE",
"259 240 CURVE SMOOTH",
"259 343 OFFCURVE",
"308 456 OFFCURVE",
"439 523 CURVE",
"430 605 LINE",
"400 594 OFFCURVE",
"372 580 OFFCURVE",
"347 561 CURVE SMOOTH",
"269 501 OFFCURVE",
"226 467 OFFCURVE",
"146 467 CURVE SMOOTH",
"115 467 OFFCURVE",
"81 479 OFFCURVE",
"55 502 CURVE",
"20 435 LINE",
"52 407 OFFCURVE",
"96 393 OFFCURVE",
"145 393 CURVE SMOOTH",
"168 393 OFFCURVE",
"192 396 OFFCURVE",
"217 403 CURVE",
"192 350 OFFCURVE",
"179 293 OFFCURVE",
"179 238 CURVE SMOOTH",
"179 94 OFFCURVE",
"261 -10 OFFCURVE",
"399 -10 CURVE SMOOTH",
"489 -10 OFFCURVE",
"561 35 OFFCURVE",
"596 82 CURVE"
);
}
);
};
layerId = UUID0;
paths = (
{
closed = 1;
nodes = (
"535 128 LINE",
"513 102 OFFCURVE",
"471 64 OFFCURVE",
"396 64 CURVE SMOOTH",
"308 64 OFFCURVE",
"259 142 OFFCURVE",
"259 240 CURVE SMOOTH",
"259 343 OFFCURVE",
"308 456 OFFCURVE",
"439 523 CURVE",
"430 605 LINE",
"400 594 OFFCURVE",
"372 581 OFFCURVE",
"347 561 CURVE SMOOTH",
"269 500 OFFCURVE",
"226 467 OFFCURVE",
"146 467 CURVE SMOOTH",
"115 467 OFFCURVE",
"81 479 OFFCURVE",
"55 502 CURVE",
"20 435 LINE",
"52 407 OFFCURVE",
"96 393 OFFCURVE",
"145 393 CURVE SMOOTH",
"168 393 OFFCURVE",
"192 396 OFFCURVE",
"217 403 CURVE",
"192 350 OFFCURVE",
"179 293 OFFCURVE",
"179 238 CURVE SMOOTH",
"179 94 OFFCURVE",
"261 -10 OFFCURVE",
"399 -10 CURVE SMOOTH",
"489 -10 OFFCURVE",
"561 35 OFFCURVE",
"596 82 CURVE"
);
}
);
width = 606;
}
);
unicode = 11655;
category = Letter;
},
{
glyphname = u11656;
lastChange = "2018-08-06 13:06:16 +0000";
layers = (
{
background = {
paths = (
{
closed = 1;
nodes = (
"430 105 LINE",
"388 85 OFFCURVE",
"316 64 OFFCURVE",
"261 64 CURVE SMOOTH",
"196 64 OFFCURVE",
"140 86 OFFCURVE",
"140 149 CURVE SMOOTH",
"140 218 OFFCURVE",
"212 273 OFFCURVE",
"327 282 CURVE",
"316 351 LINE",
"299 348 OFFCURVE",
"283 346 OFFCURVE",
"268 346 CURVE SMOOTH",
"188 346 OFFCURVE",
"155 392 OFFCURVE",
"155 429 CURVE SMOOTH",
"155 489 OFFCURVE",
"244 528 OFFCURVE",
"317 534 CURVE",
"310 609 LINE",
"181 598 OFFCURVE",
"75 539 OFFCURVE",
"75 429 CURVE SMOOTH",
"75 370 OFFCURVE",
"112 327 OFFCURVE",
"162 303 CURVE",
"90 271 OFFCURVE",
"60 209 OFFCURVE",
"60 148 CURVE SMOOTH",
"60 38 OFFCURVE",
"156 -10 OFFCURVE",
"251 -10 CURVE SMOOTH",
"325 -10 OFFCURVE",
"397 6 OFFCURVE",
"452 34 CURVE"
);
}
);
};
layerId = UUID0;
paths = (
{
closed = 1;
nodes = (
"430 105 LINE",
"388 85 OFFCURVE",
"316 64 OFFCURVE",
"261 64 CURVE SMOOTH",
"196 64 OFFCURVE",
"140 86 OFFCURVE",
"140 149 CURVE SMOOTH",
"140 218 OFFCURVE",
"212 273 OFFCURVE",
"327 282 CURVE",
"316 351 LINE",
"299 348 OFFCURVE",
"283 346 OFFCURVE",
"268 346 CURVE SMOOTH",
"188 346 OFFCURVE",
"155 392 OFFCURVE",
"155 429 CURVE SMOOTH",
"155 489 OFFCURVE",
"244 528 OFFCURVE",
"317 534 CURVE",
"310 609 LINE",
"181 598 OFFCURVE",
"75 539 OFFCURVE",
"75 429 CURVE SMOOTH",
"75 370 OFFCURVE",
"112 327 OFFCURVE",
"162 303 CURVE",
"90 271 OFFCURVE",
"60 209 OFFCURVE",
"60 148 CURVE SMOOTH",
"60 38 OFFCURVE",
"156 -10 OFFCURVE",
"251 -10 CURVE SMOOTH",
"325 -10 OFFCURVE",
"397 6 OFFCURVE",
"452 34 CURVE"
);
}
);
width = 482;
}
);
unicode = 11656;
category = Letter;
},
{
glyphname = u11657;
lastChange = "2018-08-06 13:06:16 +0000";
layers = (
{
background = {
paths = (
{
closed = 1;
nodes = (
"30 286 LINE",
"42 126 OFFCURVE",
"137 -10 OFFCURVE",
"298 -10 CURVE SMOOTH",
"519 -10 OFFCURVE",
"594 191 OFFCURVE",
"594 385 CURVE SMOOTH",
"594 518 OFFCURVE",
"538 600 OFFCURVE",
"444 600 CURVE SMOOTH",
"373 600 OFFCURVE",
"309 544 OFFCURVE",
"309 459 CURVE SMOOTH",
"309 355 OFFCURVE",
"384 319 OFFCURVE",
"466 319 CURVE SMOOTH",
"481 319 OFFCURVE",
"497 320 OFFCURVE",
"512 322 CURVE",
"501 193 OFFCURVE",
"448 64 OFFCURVE",
"297 64 CURVE SMOOTH",
"175 64 OFFCURVE",
"115 204 OFFCURVE",
"109 305 CURVE"
);
},
{
closed = 1;
nodes = (
"420 393 OFFCURVE",
"384 410 OFFCURVE",
"384 458 CURVE SMOOTH",
"384 499 OFFCURVE",
"406 526 OFFCURVE",
"445 526 CURVE SMOOTH",
"492 526 OFFCURVE",
"513 484 OFFCURVE",
"515 397 CURVE",
"498 394 OFFCURVE",
"482 393 OFFCURVE",
"468 393 CURVE SMOOTH"
);
}
);
};
layerId = UUID0;
paths = (
{
closed = 1;
nodes = (
"30 286 LINE",
"42 126 OFFCURVE",
"137 -10 OFFCURVE",
"298 -10 CURVE SMOOTH",
"519 -10 OFFCURVE",
"594 191 OFFCURVE",
"594 385 CURVE SMOOTH",
"594 518 OFFCURVE",
"538 600 OFFCURVE",
"444 600 CURVE SMOOTH",
"373 600 OFFCURVE",
"309 544 OFFCURVE",
"309 459 CURVE SMOOTH",
"309 355 OFFCURVE",
"384 319 OFFCURVE",
"466 319 CURVE SMOOTH",
"481 319 OFFCURVE",
"497 320 OFFCURVE",
"512 322 CURVE",
"501 193 OFFCURVE",
"448 64 OFFCURVE",
"297 64 CURVE SMOOTH",
"175 64 OFFCURVE",
"115 204 OFFCURVE",
"109 305 CURVE"
);
},
{
closed = 1;
nodes = (
"420 393 OFFCURVE",
"384 410 OFFCURVE",
"384 458 CURVE SMOOTH",
"384 499 OFFCURVE",
"406 526 OFFCURVE",
"445 526 CURVE SMOOTH",
"492 526 OFFCURVE",
"513 484 OFFCURVE",
"515 397 CURVE",
"498 394 OFFCURVE",
"482 393 OFFCURVE",
"468 393 CURVE SMOOTH"
);
}
);
width = 654;
}
);
unicode = 11657;
category = Letter;
},
{
glyphname = u11658;
lastChange = "2018-08-06 13:06:16 +0000";
layers = (
{
background = {
paths = (
{
closed = 1;
nodes = (
"284 605 LINE",
"173 449 OFFCURVE",
"30 211 OFFCURVE",
"30 108 CURVE SMOOTH",
"30 14 OFFCURVE",
"135 -10 OFFCURVE",
"231 -10 CURVE SMOOTH",
"305 -10 OFFCURVE",
"373 6 OFFCURVE",
"433 41 CURVE",
"405 112 LINE",
"369 87 OFFCURVE",
"293 64 OFFCURVE",
"239 64 CURVE SMOOTH",
"168 64 OFFCURVE",
"110 76 OFFCURVE",
"110 113 CURVE SMOOTH",
"110 183 OFFCURVE",
"237 404 OFFCURVE",
"351 563 CURVE"
);
}
);
};
layerId = UUID0;
paths = (
{
closed = 1;
nodes = (
"284 605 LINE",
"173 449 OFFCURVE",
"30 211 OFFCURVE",
"30 108 CURVE SMOOTH",
"30 14 OFFCURVE",
"135 -10 OFFCURVE",
"231 -10 CURVE SMOOTH",
"305 -10 OFFCURVE",
"373 6 OFFCURVE",
"433 41 CURVE",
"405 112 LINE",
"369 87 OFFCURVE",
"293 64 OFFCURVE",
"239 64 CURVE SMOOTH",
"168 64 OFFCURVE",
"110 76 OFFCURVE",
"110 113 CURVE SMOOTH",
"110 183 OFFCURVE",
"237 404 OFFCURVE",
"351 563 CURVE"
);
}
);
width = 463;
}
);
unicode = 11658;
category = Letter;
},
{
glyphname = u11659;
lastChange = "2018-08-06 13:06:16 +0000";
layers = (
{
background = {
paths = (
{
closed = 1;
nodes = (
"583 338 LINE",
"548 190 OFFCURVE",
"478 64 OFFCURVE",
"353 64 CURVE SMOOTH",
"232 64 OFFCURVE",
"164 158 OFFCURVE",
"145 294 CURVE",
"159 293 OFFCURVE",
"174 292 OFFCURVE",
"188 292 CURVE SMOOTH",
"261 292 OFFCURVE",
"370 319 OFFCURVE",
"370 459 CURVE SMOOTH",
"370 549 OFFCURVE",
"295 600 OFFCURVE",
"230 600 CURVE SMOOTH",
"116 600 OFFCURVE",
"60 518 OFFCURVE",
"60 385 CURVE SMOOTH",
"60 160 OFFCURVE",
"154 -10 OFFCURVE",
"351 -10 CURVE SMOOTH",
"515 -10 OFFCURVE",
"614 129 OFFCURVE",
"660 319 CURVE"
);
},
{
closed = 1;
nodes = (
"139 384 LINE SMOOTH",
"139 480 OFFCURVE",
"160 526 OFFCURVE",
"222 526 CURVE SMOOTH",
"266 526 OFFCURVE",
"290 495 OFFCURVE",
"290 454 CURVE SMOOTH",
"290 380 OFFCURVE",
"234 366 OFFCURVE",
"186 366 CURVE SMOOTH",
"171 366 OFFCURVE",
"155 368 OFFCURVE",
"139 370 CURVE"
);
}
);
};
layerId = UUID0;
paths = (
{
closed = 1;
nodes = (
"583 338 LINE",
"548 190 OFFCURVE",
"478 64 OFFCURVE",
"353 64 CURVE SMOOTH",
"232 64 OFFCURVE",
"164 158 OFFCURVE",
"145 294 CURVE",
"159 293 OFFCURVE",
"174 292 OFFCURVE",
"188 292 CURVE SMOOTH",
"261 292 OFFCURVE",
"370 319 OFFCURVE",
"370 459 CURVE SMOOTH",
"370 549 OFFCURVE",
"295 600 OFFCURVE",
"230 600 CURVE SMOOTH",
"116 600 OFFCURVE",
"60 518 OFFCURVE",
"60 385 CURVE SMOOTH",
"60 160 OFFCURVE",
"154 -10 OFFCURVE",
"351 -10 CURVE SMOOTH",
"515 -10 OFFCURVE",
"614 129 OFFCURVE",
"660 319 CURVE"
);
},
{
closed = 1;
nodes = (
"139 384 LINE SMOOTH",
"139 480 OFFCURVE",
"160 526 OFFCURVE",
"222 526 CURVE SMOOTH",
"266 526 OFFCURVE",
"290 495 OFFCURVE",
"290 454 CURVE SMOOTH",
"290 380 OFFCURVE",
"234 366 OFFCURVE",
"186 366 CURVE SMOOTH",
"171 366 OFFCURVE",
"155 368 OFFCURVE",
"139 370 CURVE"
);
}
);
width = 690;
}
);
unicode = 11659;
category = Letter;
},
{
glyphname = Tha.alt;
lastChange = "2018-08-06 13:07:01 +0000";
layers = (
{
background = {
anchors = (
{
name = Bottom;
position = "{472, 0}";
},
{
name = Dot;
position = "{507, 718}";
},
{
name = Rakar;
position = "{354, 177}";
},
{
name = Top;
position = "{552, 622}";
}
);
paths = (
{
closed = 1;
nodes = (
"552 551 LINE",
"642 551 LINE",
"642 622 LINE",
"0 622 LINE",
"0 551 LINE",
"81 551 LINE",
"62 527 OFFCURVE",
"50 497 OFFCURVE",
"50 462 CURVE SMOOTH",
"50 385 OFFCURVE",
"110 322 OFFCURVE",
"187 322 CURVE SMOOTH",
"194 322 OFFCURVE",
"200 322 OFFCURVE",
"207 323 CURVE",
"168 282 OFFCURVE",
"114 264 OFFCURVE",
"86 255 CURVE",
"112 154 OFFCURVE",
"199 105 OFFCURVE",
"290 105 CURVE SMOOTH",
"356 105 OFFCURVE",
"424 129 OFFCURVE",
"472 172 CURVE",
"472 0 LINE",
"552 0 LINE"
);
},
{
closed = 1;
nodes = (
"250 179 OFFCURVE",
"207 194 OFFCURVE",
"182 226 CURVE",
"300 278 OFFCURVE",
"330 360 OFFCURVE",
"330 439 CURVE SMOOTH",
"330 480 OFFCURVE",
"321 521 OFFCURVE",
"299 551 CURVE",
"472 551 LINE",
"472 294 LINE",
"434 215 OFFCURVE",
"362 179 OFFCURVE",
"294 179 CURVE SMOOTH"
);
},
{
closed = 1;
nodes = (
"162 392 OFFCURVE",
"120 412 OFFCURVE",
"120 461 CURVE SMOOTH",
"120 502 OFFCURVE",
"151 533 OFFCURVE",
"190 533 CURVE SMOOTH",
"240 533 OFFCURVE",
"251 483 OFFCURVE",
"251 439 CURVE SMOOTH",
"251 430 OFFCURVE",
"250 421 OFFCURVE",
"249 413 CURVE",
"232 400 OFFCURVE",
"213 392 OFFCURVE",
"189 392 CURVE SMOOTH"
);
}
);
};
layerId = UUID0;
paths = (
{
closed = 1;
nodes = (
"552 551 LINE",
"642 551 LINE",
"642 622 LINE",
"0 622 LINE",
"0 551 LINE",
"81 551 LINE",
"62 527 OFFCURVE",
"50 497 OFFCURVE",
"50 462 CURVE SMOOTH",
"50 385 OFFCURVE",
"110 322 OFFCURVE",
"187 322 CURVE SMOOTH",
"194 322 OFFCURVE",
"200 322 OFFCURVE",
"207 323 CURVE",
"168 282 OFFCURVE",
"114 264 OFFCURVE",
"86 255 CURVE",
"112 154 OFFCURVE",
"199 105 OFFCURVE",
"290 105 CURVE SMOOTH",
"356 105 OFFCURVE",
"424 129 OFFCURVE",
"472 172 CURVE",
"472 0 LINE",
"552 0 LINE"
);
},
{
closed = 1;
nodes = (
"250 179 OFFCURVE",
"207 194 OFFCURVE",
"182 226 CURVE",
"300 278 OFFCURVE",
"330 360 OFFCURVE",
"330 439 CURVE SMOOTH",
"330 480 OFFCURVE",
"321 521 OFFCURVE",
"299 551 CURVE",
"472 551 LINE",
"472 294 LINE",
"434 215 OFFCURVE",
"362 179 OFFCURVE",
"294 179 CURVE SMOOTH"
);
},
{
closed = 1;
nodes = (
"162 392 OFFCURVE",
"120 412 OFFCURVE",
"120 461 CURVE SMOOTH",
"120 502 OFFCURVE",
"151 533 OFFCURVE",
"190 533 CURVE SMOOTH",
"240 533 OFFCURVE",
"251 483 OFFCURVE",
"251 439 CURVE SMOOTH",
"251 430 OFFCURVE",
"250 421 OFFCURVE",
"249 413 CURVE",
"232 400 OFFCURVE",
"213 392 OFFCURVE",
"189 392 CURVE SMOOTH"
);
}
);
width = 632;
}
);
category = Letter;
},
{
glyphname = Da.alt;
lastChange = "2018-08-06 13:07:07 +0000";
layers = (
{
background = {
anchors = (
{
name = Bottom;
position = "{235, -80}";
},
{
name = BtmCtr;
position = "{283, -80}";
},
{
name = Dot;
position = "{378, 718}";
},
{
name = Rakar;
position = "{362, 60}";
},
{
name = Top;
position = "{413, 622}";
},
{
name = Vattu;
position = "{306, -70}";
}
);
paths = (
{
closed = 1;
nodes = (
"526 622 LINE",
"0 622 LINE",
"0 551 LINE",
"91 551 LINE",
"70 491 OFFCURVE",
"60 426 OFFCURVE",
"60 364 CURVE SMOOTH",
"60 191 OFFCURVE",
"139 -10 OFFCURVE",
"306 -10 CURVE SMOOTH",
"421 -10 OFFCURVE",
"488 55 OFFCURVE",
"488 152 CURVE SMOOTH",
"488 223 OFFCURVE",
"446 265 OFFCURVE",
"397 288 CURVE",
"418 306 OFFCURVE",
"432 331 OFFCURVE",
"432 363 CURVE SMOOTH",
"432 399 OFFCURVE",
"398 431 OFFCURVE",
"398 471 CURVE SMOOTH",
"398 496 OFFCURVE",
"401 524 OFFCURVE",
"413 551 CURVE",
"526 551 LINE"
);
},
{
closed = 1;
nodes = (
"285 247 LINE",
"289 247 OFFCURVE",
"294 247 OFFCURVE",
"299 248 CURVE",
"366 246 OFFCURVE",
"408 201 OFFCURVE",
"408 151 CURVE SMOOTH",
"408 100 OFFCURVE",
"375 64 OFFCURVE",
"311 64 CURVE SMOOTH",
"215 64 OFFCURVE",
"141 184 OFFCURVE",
"141 364 CURVE SMOOTH",
"141 424 OFFCURVE",
"151 491 OFFCURVE",
"175 551 CURVE",
"330 551 LINE",
"321 523 OFFCURVE",
"318 493 OFFCURVE",
"318 472 CURVE SMOOTH",
"318 422 OFFCURVE",
"352 386 OFFCURVE",
"352 359 CURVE SMOOTH",
"352 326 OFFCURVE",
"304 313 OFFCURVE",
"281 313 CURVE"
);
}
);
};
layerId = UUID0;
paths = (
{
closed = 1;
nodes = (
"526 622 LINE",
"0 622 LINE",
"0 551 LINE",
"91 551 LINE",
"70 491 OFFCURVE",
"60 426 OFFCURVE",
"60 364 CURVE SMOOTH",
"60 191 OFFCURVE",
"139 -10 OFFCURVE",
"306 -10 CURVE SMOOTH",
"421 -10 OFFCURVE",
"488 55 OFFCURVE",
"488 152 CURVE SMOOTH",
"488 223 OFFCURVE",
"446 265 OFFCURVE",
"397 288 CURVE",
"418 306 OFFCURVE",
"432 331 OFFCURVE",
"432 363 CURVE SMOOTH",
"432 399 OFFCURVE",
"398 431 OFFCURVE",
"398 471 CURVE SMOOTH",
"398 496 OFFCURVE",
"401 524 OFFCURVE",
"413 551 CURVE",
"526 551 LINE"
);
},
{
closed = 1;
nodes = (
"285 247 LINE",
"289 247 OFFCURVE",
"294 247 OFFCURVE",
"299 248 CURVE",
"366 246 OFFCURVE",
"408 201 OFFCURVE",
"408 151 CURVE SMOOTH",
"408 100 OFFCURVE",
"375 64 OFFCURVE",
"311 64 CURVE SMOOTH",
"215 64 OFFCURVE",
"141 184 OFFCURVE",
"141 364 CURVE SMOOTH",
"141 424 OFFCURVE",
"151 491 OFFCURVE",
"175 551 CURVE",
"330 551 LINE",
"321 523 OFFCURVE",
"318 493 OFFCURVE",
"318 472 CURVE SMOOTH",
"318 422 OFFCURVE",
"352 386 OFFCURVE",
"352 359 CURVE SMOOTH",
"352 326 OFFCURVE",
"304 313 OFFCURVE",
"281 313 CURVE"
);
}
);
width = 406;
}
);
category = Letter;
},
{
glyphname = Dha.alt;
lastChange = "2018-08-06 13:07:07 +0000";
layers = (
{
background = {
anchors = (
{
name = Bottom;
position = "{325, -80}";
},
{
name = BtmCtr;
position = "{351, -80}";
},
{
name = Dot;
position = "{433, 718}";
},
{
name = Rakar;
position = "{407, 59}";
},
{
name = Top;
position = "{463, 622}";
},
{
name = Vattu;
position = "{351, -70}";
}
);
paths = (
{
closed = 1;
nodes = (
"533 224 LINE",
"503 147 OFFCURVE",
"460 62 OFFCURVE",
"354 62 CURVE SMOOTH",
"307 62 OFFCURVE",
"260 97 OFFCURVE",
"260 161 CURVE SMOOTH",
"260 206 OFFCURVE",
"305 255 OFFCURVE",
"349 270 CURVE",
"319 328 LINE",
"311 324 LINE SMOOTH",
"280 310 OFFCURVE",
"254 304 OFFCURVE",
"232 304 CURVE SMOOTH",
"190 304 OFFCURVE",
"162 326 OFFCURVE",
"146 359 CURVE",
"159 355 OFFCURVE",
"172 353 OFFCURVE",
"188 353 CURVE SMOOTH",
"265 353 OFFCURVE",
"323 398 OFFCURVE",
"323 479 CURVE SMOOTH",
"323 507 OFFCURVE",
"314 531 OFFCURVE",
"300 551 CURVE",
"513 551 LINE",
"513 622 LINE",
"0 622 LINE",
"0 551 LINE",
"82 551 LINE",
"60 520 OFFCURVE",
"50 480 OFFCURVE",
"50 444 CURVE SMOOTH",
"50 343 OFFCURVE",
"105 247 OFFCURVE",
"209 237 CURVE",
"192 211 OFFCURVE",
"185 184 OFFCURVE",
"185 158 CURVE SMOOTH",
"185 69 OFFCURVE",
"250 -10 OFFCURVE",
"351 -10 CURVE SMOOTH",
"476 -10 OFFCURVE",
"540 58 OFFCURVE",
"588 161 CURVE"
);
},
{
closed = 1;
nodes = (
"128 450 LINE SMOOTH",
"128 483 OFFCURVE",
"140 535 OFFCURVE",
"190 535 CURVE SMOOTH",
"229 535 OFFCURVE",
"245 506 OFFCURVE",
"245 479 CURVE SMOOTH",
"245 443 OFFCURVE",
"219 421 OFFCURVE",
"187 421 CURVE SMOOTH",
"164 421 OFFCURVE",
"145 429 OFFCURVE",
"128 441 CURVE"
);
}
);
};
layerId = UUID0;
paths = (
{
closed = 1;
nodes = (
"533 224 LINE",
"503 147 OFFCURVE",
"460 62 OFFCURVE",
"354 62 CURVE SMOOTH",
"307 62 OFFCURVE",
"260 97 OFFCURVE",
"260 161 CURVE SMOOTH",
"260 206 OFFCURVE",
"305 255 OFFCURVE",
"349 270 CURVE",
"319 328 LINE",
"311 324 LINE SMOOTH",
"280 310 OFFCURVE",
"254 304 OFFCURVE",
"232 304 CURVE SMOOTH",
"190 304 OFFCURVE",
"162 326 OFFCURVE",
"146 359 CURVE",
"159 355 OFFCURVE",
"172 353 OFFCURVE",
"188 353 CURVE SMOOTH",
"265 353 OFFCURVE",
"323 398 OFFCURVE",
"323 479 CURVE SMOOTH",
"323 507 OFFCURVE",
"314 531 OFFCURVE",
"300 551 CURVE",
"513 551 LINE",
"513 622 LINE",
"0 622 LINE",
"0 551 LINE",
"82 551 LINE",
"60 520 OFFCURVE",
"50 480 OFFCURVE",
"50 444 CURVE SMOOTH",
"50 343 OFFCURVE",
"105 247 OFFCURVE",
"209 237 CURVE",
"192 211 OFFCURVE",
"185 184 OFFCURVE",
"185 158 CURVE SMOOTH",
"185 69 OFFCURVE",
"250 -10 OFFCURVE",
"351 -10 CURVE SMOOTH",
"476 -10 OFFCURVE",
"540 58 OFFCURVE",
"588 161 CURVE"
);
},
{
closed = 1;
nodes = (
"128 450 LINE SMOOTH",
"128 483 OFFCURVE",
"140 535 OFFCURVE",
"190 535 CURVE SMOOTH",
"229 535 OFFCURVE",
"245 506 OFFCURVE",
"245 479 CURVE SMOOTH",
"245 443 OFFCURVE",
"219 421 OFFCURVE",
"187 421 CURVE SMOOTH",
"164 421 OFFCURVE",
"145 429 OFFCURVE",
"128 441 CURVE"
);
}
);
width = 503;
}
);
category = Letter;
},
{
glyphname = Pa.alt;
lastChange = "2018-08-06 13:07:01 +0000";
layers = (
{
background = {
anchors = (
{
name = Bottom;
position = "{427, 0}";
},
{
name = Dot;
position = "{462, 718}";
},
{
name = Rakar;
position = "{321, 215}";
},
{
name = Top;
position = "{507, 622}";
}
);
paths = (
{
closed = 1;
nodes = (
"507 551 LINE",
"597 551 LINE",
"597 622 LINE",
"0 622 LINE",
"0 551 LINE",
"80 551 LINE",
"80 358 LINE SMOOTH",
"80 236 OFFCURVE",
"126 146 OFFCURVE",
"255 146 CURVE SMOOTH",
"294 146 OFFCURVE",
"361 154 OFFCURVE",
"427 196 CURVE",
"427 0 LINE",
"507 0 LINE"
);
},
{
closed = 1;
nodes = (
"163 217 OFFCURVE",
"160 292 OFFCURVE",
"160 355 CURVE SMOOTH",
"160 551 LINE",
"427 551 LINE",
"427 288 LINE",
"373 228 OFFCURVE",
"293 217 OFFCURVE",
"263 217 CURVE SMOOTH"
);
}
);
};
layerId = UUID0;
paths = (
{
closed = 1;
nodes = (
"507 551 LINE",
"597 551 LINE",
"597 622 LINE",
"0 622 LINE",
"0 551 LINE",
"80 551 LINE",
"80 358 LINE SMOOTH",
"80 236 OFFCURVE",
"126 146 OFFCURVE",
"255 146 CURVE SMOOTH",
"294 146 OFFCURVE",
"361 154 OFFCURVE",
"427 196 CURVE",
"427 0 LINE",
"507 0 LINE"
);
},
{
closed = 1;
nodes = (
"163 217 OFFCURVE",
"160 292 OFFCURVE",
"160 355 CURVE SMOOTH",
"160 551 LINE",
"427 551 LINE",
"427 288 LINE",
"373 228 OFFCURVE",
"293 217 OFFCURVE",
"263 217 CURVE SMOOTH"
);
}
);
width = 587;
}
);
category = Letter;
},
{
glyphname = Ma.alt;
lastChange = "2018-08-06 13:07:01 +0000";
layers = (
{
background = {
anchors = (
{
name = Bottom;
position = "{427, 0}";
},
{
name = Dot;
position = "{462, 718}";
},
{
name = Rakar;
position = "{427, 213}";
},
{
name = Top;
position = "{507, 622}";
}
);
paths = (
{
closed = 1;
nodes = (
"176 142 LINE",
"248 261 OFFCURVE",
"348 263 OFFCURVE",
"427 287 CURVE",
"427 0 LINE",
"507 0 LINE",
"507 551 LINE",
"597 551 LINE",
"597 622 LINE",
"0 622 LINE",
"0 551 LINE",
"79 551 LINE",
"103 464 OFFCURVE",
"118 361 OFFCURVE",
"118 275 CURVE SMOOTH",
"118 237 OFFCURVE",
"111 183 OFFCURVE",
"98 153 CURVE"
);
},
{
closed = 1;
nodes = (
"198 358 OFFCURVE",
"182 451 OFFCURVE",
"162 551 CURVE",
"427 551 LINE",
"427 372 LINE",
"360 339 OFFCURVE",
"267 333 OFFCURVE",
"198 275 CURVE"
);
}
);
};
layerId = UUID0;
paths = (
{
closed = 1;
nodes = (
"176 142 LINE",
"248 261 OFFCURVE",
"348 263 OFFCURVE",
"427 287 CURVE",
"427 0 LINE",
"507 0 LINE",
"507 551 LINE",
"597 551 LINE",
"597 622 LINE",
"0 622 LINE",
"0 551 LINE",
"79 551 LINE",
"103 464 OFFCURVE",
"118 361 OFFCURVE",
"118 275 CURVE SMOOTH",
"118 237 OFFCURVE",
"111 183 OFFCURVE",
"98 153 CURVE"
);
},
{
closed = 1;
nodes = (
"198 358 OFFCURVE",
"182 451 OFFCURVE",
"162 551 CURVE",
"427 551 LINE",
"427 372 LINE",
"360 339 OFFCURVE",
"267 333 OFFCURVE",
"198 275 CURVE"
);
}
);
width = 587;
}
);
category = Letter;
},
{
glyphname = Ya.alt;
lastChange = "2018-08-06 13:07:01 +0000";
layers = (
{
background = {
anchors = (
{
name = Bottom;
position = "{432, 0}";
},
{
name = Dot;
position = "{467, 718}";
},
{
name = Rakar;
position = "{324, 185}";
},
{
name = Top;
position = "{512, 622}";
}
);
paths = (
{
closed = 1;
nodes = (
"512 551 LINE",
"602 551 LINE",
"602 622 LINE",
"0 622 LINE",
"0 551 LINE",
"83 551 LINE",
"120 503 OFFCURVE",
"134 455 OFFCURVE",
"134 413 CURVE SMOOTH",
"134 330 OFFCURVE",
"81 267 OFFCURVE",
"46 255 CURVE",
"63 150 OFFCURVE",
"149 105 OFFCURVE",
"241 105 CURVE SMOOTH",
"310 105 OFFCURVE",
"383 133 OFFCURVE",
"432 179 CURVE",
"432 0 LINE",
"512 0 LINE"
);
},
{
closed = 1;
nodes = (
"203 179 OFFCURVE",
"159 194 OFFCURVE",
"131 230 CURVE",
"184 266 OFFCURVE",
"210 338 OFFCURVE",
"210 412 CURVE SMOOTH",
"210 460 OFFCURVE",
"197 508 OFFCURVE",
"170 551 CURVE",
"432 551 LINE",
"432 290 LINE",
"397 219 OFFCURVE",
"320 179 OFFCURVE",
"248 179 CURVE SMOOTH"
);
}
);
};
layerId = UUID0;
paths = (
{
closed = 1;
nodes = (
"512 551 LINE",
"602 551 LINE",
"602 622 LINE",
"0 622 LINE",
"0 551 LINE",
"83 551 LINE",
"120 503 OFFCURVE",
"134 455 OFFCURVE",
"134 413 CURVE SMOOTH",
"134 330 OFFCURVE",
"81 267 OFFCURVE",
"46 255 CURVE",
"63 150 OFFCURVE",
"149 105 OFFCURVE",
"241 105 CURVE SMOOTH",
"310 105 OFFCURVE",
"383 133 OFFCURVE",
"432 179 CURVE",
"432 0 LINE",
"512 0 LINE"
);
},
{
closed = 1;
nodes = (
"203 179 OFFCURVE",
"159 194 OFFCURVE",
"131 230 CURVE",
"184 266 OFFCURVE",
"210 338 OFFCURVE",
"210 412 CURVE SMOOTH",
"210 460 OFFCURVE",
"197 508 OFFCURVE",
"170 551 CURVE",
"432 551 LINE",
"432 290 LINE",
"397 219 OFFCURVE",
"320 179 OFFCURVE",
"248 179 CURVE SMOOTH"
);
}
);
width = 592;
}
);
category = Letter;
},
{
glyphname = Ra.alt;
lastChange = "2018-08-06 13:07:01 +0000";
layers = (
{
background = {
anchors = (
{
name = Bottom;
position = "{357, 0}";
},
{
name = Dot;
position = "{392, 718}";
},
{
name = Rakar;
position = "{357, 213}";
},
{
name = Top;
position = "{437, 622}";
}
);
paths = (
{
closed = 1;
nodes = (
"437 551 LINE",
"527 551 LINE",
"527 622 LINE",
"0 622 LINE",
"0 551 LINE",
"357 551 LINE",
"357 426 LINE",
"336 365 OFFCURVE",
"282 284 OFFCURVE",
"159 284 CURVE SMOOTH",
"128 284 OFFCURVE",
"92 289 OFFCURVE",
"63 297 CURVE",
"40 227 LINE",
"79 216 OFFCURVE",
"128 210 OFFCURVE",
"164 210 CURVE SMOOTH",
"232 210 OFFCURVE",
"300 221 OFFCURVE",
"357 286 CURVE",
"357 0 LINE",
"437 0 LINE"
);
}
);
};
layerId = UUID0;
paths = (
{
closed = 1;
nodes = (
"437 551 LINE",
"527 551 LINE",
"527 622 LINE",
"0 622 LINE",
"0 551 LINE",
"357 551 LINE",
"357 426 LINE",
"336 365 OFFCURVE",
"282 284 OFFCURVE",
"159 284 CURVE SMOOTH",
"128 284 OFFCURVE",
"92 289 OFFCURVE",
"63 297 CURVE",
"40 227 LINE",
"79 216 OFFCURVE",
"128 210 OFFCURVE",
"164 210 CURVE SMOOTH",
"232 210 OFFCURVE",
"300 221 OFFCURVE",
"357 286 CURVE",
"357 0 LINE",
"437 0 LINE"
);
}
);
width = 517;
}
);
category = Letter;
},
